<svg xmlns="http://www.w3.org/2000/svg" xmlns:xlink="http://www.w3.org/1999/xlink" version="1.1" x="0px" y="0px" viewBox="0 0 268 335" style="enable-background:new 0 0 268 268;" xml:space="preserve"><g fill="#F1F0EA"><path d="M22.77425,152.17937c0.44757,0.83447,1.69769,1.16211,2.4856,0.62207c0.08313,0.26318,0.16742,0.52539,0.24066,0.79541   c0.01813,0.06738,0.1167,0.03467,0.11261-0.02832c-0.02173-0.33447-0.06787-0.65674-0.10706-0.98242   c3.93048-4.43164-1.64063-11.61523-5.57013-16.03418c1.49878,1.13037,3.2196,2.00391,4.89728,2.67432   c2.39221,0.95605,5.02344,1.12305,7.55811,1.02393c3.38214-0.13184,6.10083-3.19336,9.66595-1.43018   c0.46136,0.22803,1.08551-0.13037,0.92529-0.69092c-0.74542-2.60791-2.75287-3.19678-5.32745-3.01611   c-1.67474,0.11768-3.2666,0.68164-4.89142,1.06152c-3.32849,0.77881-7.02185-0.67529-9.82202-2.36719   c-11.90796-7.19531,5.54974-21.04199,4.44763-29.77441c-0.08948-0.70898-1.02576-0.98242-1.46533-0.40381   c-3.1319,4.125-5.62598,9.26514-8.05115,13.84619c-3.50262,6.61719-3.0567,12.31641-1.02551,15.73438   c-5.3316-5.67432-12.33478-14.98096-6.48853-20.14941c3.35315-2.64648,8.75952-2.96094,9.34564-7.82324   c0.16626-1.37891-1.62384-1.74463-2.36115-0.7998c-2.19666,2.81348-6.66608,4.30859-8.23102,5.13574   c1.30029-4.9502-0.69672-12.88721,7.37769-22.52686c4.05371-4.83984,13.10834-5.35205,15.58582-11.17773   c0.24512-0.57666-0.29858-1.21631-0.86938-1.2417c-3.19635-0.1416-6.07794,1.8457-8.83948,3.34961   c0.13287-7.31055,2.07721-13.13721,7.52679-18.45313c8.86853-8.65137,21.20837-1.90186,28.81305-7.22803   c6.56793-4.59961,2.16321-12.59375,0.65265-9.84131c-1.04114,1.89795-1.20648,4.24268-2.86462,5.74023   c-1.73077,1.56348-4.67212,1.65967-6.86047,1.8418c-1.16278,0.09668-2.32855,0.1543-3.49359,0.20801   c2.94666-9.31201,4.43793-12.92822,13.94501-19.40186c13.93073-9.48633,22.6474-2.55762,30.91077-2.82031   c2.07697-0.06592,2.05267-2.74756,0.59143-3.60938c-0.55176-0.3252-1.12048-0.62549-1.70319-0.90186   c2.26605-7.38916,9.09045-10.92041,16.87085-10.56934c5.4649,0.24658,9.37915,3.34131,10.83911,4.19092   c-0.02368,0.02979-0.04907,0.05713-0.07251,0.08691c-0.22913,0.29102,0.05701,0.78223,0.43311,0.61865   c0.12061-0.05225,0.23828-0.10889,0.35815-0.1626c1.8916,1.47656,3.45923,3.07324,5.85571,3.79053   c0.74438,0.22314,1.3396-0.44727,1.22974-1.15625c-0.2915-1.88086-1.16553-3.50293-2.42212-4.88232   c5.37231-2.60254,8.39697-3.33447,15.96655-2.50684c2.60034,0.28467,5.35669,0.86328,7.38647,2.49805   c-8.74512,1.98877-13.32422,6.30811-26.66577,9.88232c-5.88257,1.57568-12.1344,2.87988-17.53741,5.7959   c-10.04907,5.42383-16.14478,15.48633-23.71753,23.6499c-4.09149,4.41064-8.03735,8.98584-11.70636,13.74561   c-0.29413-1.94531-1.06799-3.48486-2.20856-4.5293c-2.50549-8.46484,12.935-15.56738,14.76715-22.89355   c0.3299-1.31934-1.45703-1.64063-2.17328-0.87256C66.65187,51.38445,60.77547,56.8698,63.03951,62.99333   c-1.73431-0.80762-3.9527-0.81104-6.44623,0.18799c-8.13947,3.26172-16.43921,15.32129-19.96008,23.41357   c-2.16852,4.98486,2.65289,9.21826,0.94519,13.78662c-2.22351,5.94824-11.84045,9.9375-5.86536,17.04541   c0.94867,1.12891,2.80188-0.20605,2.36023-1.48828c-2.33539-6.78125,6.22101-9.43701,7.46045-15.35742   c0.63074-3.01318-0.39923-5.51221-1.45636-8.29248c-1.4671-3.8584,2.04865-8.65723,4.07196-11.87451   c2.77826-4.41797,6.49933-8.58545,10.56171-11.8501c6.81799-5.47656,8.72339-3.1709,10.84058,1.44189   c-4.82861,6.42188-9.13501,13.17871-12.58661,20.33057c-0.95068-0.76367-0.89087-1.57666-0.74152-2.93311   c0.23615-2.14453,1.28864-4.17676,1.21649-6.35205c-0.02509-0.75684-0.94904-0.84375-1.43219-0.53516   c-2.35016,1.5-3.16516,5.19092-3.03003,7.80127c0.07867,1.52002,1.242,3.8877,2.78601,4.61475   c-3.66101,8.18213-6.19153,16.87109-7.11328,26.15088c-1.16077,11.68506-1.37762,24.02588-0.08215,35.69727   c0.89038,8.02197,3.26074,15.7998,8.04559,22.08057c-2.06665,1.8418-3.76892,2.48877-6.64349,2.41064   c-3.98126-0.10791-6.05896-1.89453-8.95953-4.0498c1.99878-1.15186,3.15356-3.47119,2.66571-7.00244   c-0.11676-0.84521-1.43646-1.02441-1.69135-0.16895c-0.77197,2.5918-1.27985,5.41846-4.461,5.44873   c-2.32483,0.02246-4.69574-1.46191-6.61792-2.60059c-3.33838-1.97803-6.5061-4.6377-8.96423-7.65039   c-3.69519-4.52832-11.98499-19.16895-2.97534-21.35254c0.65289-0.1582,0.53119-1.01709-0.08179-1.11963   c-13.35291-2.2417-2.2287,19.49072,0.56995,23.64746c3.06732,4.55566,8.7243,8.76758,13.77979,10.7793   c2.21771,0.88232,4.40619,1.09814,6.21283,0.63965c-0.71027,5.82764,15.70538,10.29248,19.64343,3.90088   c0.23462,0.24268,2.19843,2.24023,2.53271,2.27148c3.02209,6.66357,15.95874,15.75928,29.36499,15.53613   c6.07361-0.10107,8.80359-4.59912,13.49738-6.91406c1.72815,6.62305,3.88385,14.07373,11.34808,15.78906   c4.72125,1.08496,6.11359-3.17627,6.49493-7.55566c5.1084,6.75049,11.33435,11.63721,20.71387,12.14746   c4.75916,0.25879,8.23621-0.98584,11.62329-3.58984c0.60327,0.78857,1.29541,1.49609,2.13513,2.1167   c3.4054,2.51709,5.90515,4.97363,7.80652,8.80859c3.04773,6.14795,10.92444,32.50732,29.95325,40.00783   c7.151,2.81885,14.01587,0.86719,15.69006-7.11134c2.11353-10.07031-6.15308-18.33301-11.98694-25.99902   c17.94019-0.91309,35.97009-12.88135,39.46448-30.68408c1.77039-9.02002-1.00281-20.05273-9.47583-24.25439   c0.03845-0.32422,0.07617-0.6499,0.11279-0.97754c11.28259,2.0293,15.08569,2.23291,22.44922-6.98193   c4.41541-5.52539,8.52686-16.20166,9.13416-23.43506c0.19737-2.35059-2.52637-7.29785,1.03941-8.53516   c8.24268-2.85889,8.2887-16.1543,5.27625-22.89209c-0.60315-1.34912-1.62927-2.41064-2.62012-3.47852   c-2.48596-2.67871,0.4176-4.85889,2.05066-6.96338c2.71558-3.49951,2.1936-8.81738,1.28015-12.854   c-1.89966-8.39697-9.76329-11.05566-11.81261-18.16797c-1.01099-3.50928-0.80908-11.08887-11.92114-19.61963   c-1.75769-1.34912-4.42188-2.75586-6.67822-2.83789c-0.54248-0.01953-7.18982,0.35938-7.198,0.27148   c-0.97559-10.3667-18.30322-25.375-28.98413-19.58057c-5.60742-6.34473-12.63647-8.29541-21.30835-9.0127   c-7.97607-0.65918-15.86279-1.55127-23.58472-0.69727c-1.7876-5.05078-9.14209-5.99121-14.50146-6.12109   c-6.01147-0.14551-11.55835,1.58398-15.98779,5.2373c-4.75208-3.49658-12.19421-4.82129-16.9472-4.32568   c-7.15607,0.74561-15.76453,5.94531-15.30817,13.68604C68.05788,14.54362,41.97029,33.24675,45.7914,50.26091   c-3.59271,0.16357-7.17511,0.31494-10.63824,1.44287c-9.46729,3.0835-18.49152,17.13916-13.87372,26.87256   c-3.31104,1.83594-6.11035,4.08447-8.42841,7.12451c-4.60498,6.04004-7.83691,17.02295-5.20441,24.75586   c-2.65405,1.78369-4.10382,4.18799-3.65991,8.48047c-0.40771,9.44189,7.41455,15.90039,13.57434,22.26025   C23.15889,148.28972,20.6678,148.2531,22.77425,152.17937z M201.20406,244.84196c1.13379,3.78418,0.95044,9.54346-3.83325,10.16162   c-3.33276,0.43066-7.15076-1.73779-9.8385-3.43457c-14.98865-9.46338-19.7262-31.66895-25.29382-39.26367   c-2.46033-3.35645-6.03809-4.66992-9.38232-6.71875c3.44324-3.05957,6.15833-1.90479,10.22754-0.95459   c3.73828,0.87305,9.28699-0.271,12.93713-1.40869c-1.69031,2.14453-2.89636,4.77881-3.63452,7.17822   c-2.5509,8.29004,9.33069,14.41504,18.49817,14.85742C193.33675,232.27263,199.04073,237.62077,201.20406,244.84196z    M189.64339,220.96159c-4.51733-0.15479-13.31628-2.81201-14.42249-7.95605c-0.81787-3.8042,2.01953-7.83887,4.51685-11.19238   c4.05774-1.78857,7.79407-4.32568,10.86194-7.49414c0.98865-1.021,1.70129-2.40869,2.45032-3.60645   c1.23682-1.97705,3.25806-0.66748,4.92981-0.24756c5.83362,1.46533,22.69592-2.03857,25.6499-16.13916   C238.92036,192.36931,219.96358,221.99968,189.64339,220.96159z M166.64839,19.38103   c10.10156,1.25391,20.46606,0.37451,27.11914,9.50635c0.953,1.30811,2.67395,1.7002,3.92639,0.50586   c4.96252-4.7334,14.00159,2.86719,17.59753,6.22363c7.83704,7.31445,3.52698,9.4585,6.47546,11.64648   c-15.15759,1.95264-35.07458,9.35254-40.98938,24.44824c-10.28418-11.03857-28.25146-4.49902-27.42041,6.54346   c0.0614,0.81641,1.20203,1.43555,1.86011,0.8208c4.71204-4.40479,8.60718-13.96631,24.93848-5.57373   c-4.58496,14.99512,6.5874,32.31836,3.46021,47.16992c-1.21655,5.77881-6.00732,8.7915-10.94409,11.2998   c-1.25061,0.63574-0.65186,2.70801,0.73169,2.61963c21.88843-1.3999,15.146-28.15674,12.19495-42.06543   c-2.7998-13.19824-4.95374-25.50488,18.84375-36.13574c1.62537,3.93896,8.48767,7.03564,11.40833,13.66895   c2.65503,6.02979-0.08887,12.95898-0.76245,19.08594c-0.11499,1.0459,1.26123,1.9043,1.98511,0.92676   c4.18018-5.646,6.03076-13.7959,3.55054-20.53955c-2.12524-5.77783-7.78979-11.83398-13.94507-14.10547   c14.14734-5.91553,16.68018-6.10596,16.45813-7.49902c3.42346,1.22168,6.66992,0.02148,10.21912,0.87402   c5.09338,1.22412,9.95813,7.95801,11.59937,12.58545c1.48816,4.19531,1.49451,8.30957,4.25195,12.0127   c2.61035,3.50488,6.16992,5.94678,8.25365,9.88477c2.29468,4.33691,1.76587,9.28955-1.20337,12.95703   c-2.79979,3.45801-3.91527,6.42725-0.2993,10.42139c2.35252,2.59814,3.29662,4.6167,3.43773,8.26465   c0.4231,10.93701-1.32739,10.30811-5.00963,12.44775c-5.0426,2.92969-2.30444,9.04395-2.63538,12.98633   c-0.39038,4.6499-4.56152,16.34668-10.9939,22.71191c-5.33337,5.27734-11.34412,2.54395-17.70544,1.72656   c-5.24548-0.67334-0.40833,8.77344-7.01843,15.76514c-4.64404,4.91162-12.69543,7.57275-19.12061,5.38184   c-9.99463-3.40771-3.58398,9.68066-27.22974,14.10693c-5.27783,0.98828-10.13293-2.0498-15.21362-0.68799   c-3.75635,1.00684-6.02637,5.02393-9.53345,6.55908c-4.96545,2.17334-11.97266,0.31201-16.31738-2.396   c-4.64954-2.89795-7.74609-8.18555-10.5166-12.73291c-1.17151-1.92285-3.99414-0.89941-4.01648,1.21924   c-0.03137,2.96191,1.22205,12.85938-4.2605,8.77979c-4.88214-3.63281-5.02545-12.94141-6.31122-14.38379   c0.9328-4.58936,0.72345-8.50391,6.82037-9.39502c3.33301-0.4873,6.25439-1.20361,9.33435-2.58887   c11.14319-5.01074,11.38965-13.43896,5.91577-17.37061c4.27014-1.53955,8.47864-4.56445,11.28528-7.82861   c9.21973-10.72363,0.14185-23.67627,12.79517-37.97559c9.32202-10.53369,18.43286-0.11475,24.27808,1.17969   c1.64844,0.36475,2.93921-1.59082,1.71509-2.88037c-4.74707-5.00146-13.08765-8.71631-19.98523-7.3208   c-2.80823,0.56787-5.31262,2.11279-7.49048,4.12842c1.9696-3.44824,3.49329-6.96631,2.7207-11.2998   c-0.99548-5.58398-4.45276-11.21826-10.24158-12.54297c-1.1687-0.26758-2.31799,1.0459-1.3833,2.06885   c4.29199,4.69775,8.50391,8.15918,8.43555,15.1875c-0.03687,3.77246-2.52332,6.78857-2.97119,10.46387   c-6.76428,9.1084-6.63721,15.71436-7.29724,26.4585c-0.63245,10.29492-8.47107,12.56445-14.19861,19.04443   c-11.42584-5.05664-17.76288,2.43066-34.30389-14.49756c-0.75012-0.76807-1.87518,0.05322-1.51221,1.01172   c2.6853,7.09277,9.70184,11.26953,16.45654,13.83447c5.97125,2.26709,13.21661,0.76123,18.68805,4.44873   c5.28259,3.56006-2.22913,8.11768-5.07385,9.58203c-3.3623,1.73145-6.88391,1.95557-10.50616,2.75586   c-6.73181,1.4873-7.90784,7.48193-6.59924,13.21289c-3.13232,1.17041-5.46777,3.45117-8.22137,5.37549   c-4.63397,3.23877-12.47406,1.12354-17.19226-0.87305c-4.73645-2.00439-9.81165-5.35693-12.80017-9.59912   c-2.73376-3.88086-3.24817-9.72607-4.91113-14.14014c-0.50806-1.34863-2.49823-0.68018-2.34784,0.66699   c0.46442,4.15967,0.56653,8.05859,1.76221,11.95801c-0.32568-0.49023-0.64453-0.98242-0.94891-1.47803   c0.01465-0.64063-0.34003-1.15186-0.84406-1.43848c-4.47717-7.875-6.43158-16.35254-7.11292-25.08984   c2.2052,1.69922,4.99396,2.93359,7.15137,3.74756c4.28864,1.61865,9.01459,1.64893,13.02673-0.64941   c5.29303-3.03271,6.13855-10.31348,7.24744-15.6333c2.6684-12.7998,10.81628-9.92334,16.08563-12.26611   c0.99829-0.44385,0.95532-1.87158-0.04614-2.2793c-5.40259-2.19971-14.2193-0.39893-17.92365,6.6875   c-2.54584-1.36621-3.92322-3.26221-3.11096-6.6958c0.86218-3.64404,3.5144-6.59863,5.3714-9.7334   c0.36554-0.61719-0.36389-1.16309-0.92432-0.8916c-6.74567,3.26514-11.14276,17.62793-1.97827,18.69238   c-3.3139,7.74707-2.12457,22.20508-15.29022,19.33252c-3.8288-0.83545-6.59845-3.36572-9.86279-5.02441   c-0.2569-8.50977,0.45984-17.20361,1.02936-25.77344c0.17126-2.57715,0.5022-5.11865,0.96136-7.62744   c6.09576-8.31641,19.52545-13.45264,29.00439-11.6499c7.31213,1.39063,14.29449,3.3833,21.06439,0.62354   c13.36218,5.74707,9.9632,15.96436,17.00452,21.14795c0.7041,0.51807,1.91455,0.07861,1.94434-0.86279   c0.18921-5.95508-4.42627-13.69336-8.1261-18.16406c-1.69849-2.05273-4.01465-3.63086-6.5578-4.56885   c5.91766-4.57715,8.5174-12.77002,10.92975-19.47119c1.4447-4.0127,3.49658-7.82666,6.86792-10.52344   c3.73865-2.99121,8.55066-2.32764,12.60889-4.3291c0.84814-0.41797,1.01318-1.91406,0.0636-2.34375   c-7.25549-3.28076-16.05359,2.21143-20.11328,8.08984c-0.61755,0.89404-1.16003,1.82764-1.6637,2.78076   c-0.44037-3.67969-2.89404-7.00146-3.92743-10.74756c-2.38666-8.65186,6.10028-14.52637,12.63885-17.78027   c1.15845-0.57666,0.86255-2.16699-0.4635-2.19873c-7.32898-0.17578-13.10016,6.76514-15.26984,13.1377   c-2.57458,7.56201,3.62994,13.7876,5.54694,20.71729c-2.97089,7.00977-4.52142,14.71826-10.92627,19.6958   c-8.37256,6.50635-21.34149-1.31787-30.9917,0.67969c-6.40839,1.32666-14.00513,5.71582-18.68182,11.36084   c4.61865-18.52344,16.42731-35.02979,29.11676-48.91602c6.7326-7.36816,12.61523-15.98242,20.43567-22.24609   c8.91919-7.14404,21.99695-7.78223,32.42468-11.71875C142.91731,22.1154,146.17012,16.83904,166.64839,19.38103z"/><path d="M146.80183,189.78874c-0.53186,0.66211,0.3175,1.6416,1.02332,1.11182c4.72192-3.54736,9.65393-6.86426,15.2124-8.93457   c4.7959-1.78662,10.1665-1.8374,15.17334-2.72461c39.09888-6.93018,28.29407-27.57568,42.10535-37.10156   c3.68298-2.54053,8.17151-3.00098,12.14404-4.8667c1.43835-0.67529,0.91589-3.10547-0.58069-3.31494   c-7.12549-0.99609-14.76587,3.22168-19.33105,8.48291c-8.0874,9.3208-4.17969,21.47266-22.27173,28.87451   c0.69141-4.1123-3.1897-9.18115-3.83447-12.99756c-1.64941-9.7627,12.75049-9.04004,13.0304-16.53809   c0.01721-0.45996-0.44153-0.97803-0.89832-1.02148c-3.05518-0.2915-5.79712,2.49854-8.23254,4.12207   c-3.09045,2.06006-5.43665,4.47656-6.92322,7.89355c-3.17871,7.30664,3.44336,12.76563,4.11646,19.55762   C173.48189,177.13152,158.42671,175.31804,146.80183,189.78874z"/><path d="M134.92769,44.43327c4.71753-4.62695,6.89099-4.38086,13.92163-3.37842c-5.50037,4.01025-7.56946,10.4751-9.479,17.89307   c-0.33545,1.30371,1.5426,2.45898,2.42505,1.30273c3.19043-4.18115,4.28833-9.38965,7.36523-13.61914   c7.02905-9.66211,21.39111-1.16797,35.51282-8.67578c4.32251-2.29834,5.88318-5.71436,7.27942-10.14404   c0.25732-0.81641-1.04639-1.2207-1.39478-0.47119c-7.40186,15.92188-26.37524,5.45703-39.46191,12.32959   c-6.1897-2.8667-16.44116-5.38867-18.20789,3.67871C132.68428,44.39519,134.17415,45.17204,134.92769,44.43327z"/><path d="M228.51094,113.80779c4.88464,0.26172,9.76221,0.27051,13.40991,4.03955c3.77222,3.89697,3.854,9.7207,6.61633,14.17334   c0.41321,0.66602,1.63086,0.69727,1.67432-0.27588c0.32629-7.31348-3.36914-17.43213-10.64734-20.38916   c-1.88611-0.76611-3.82007-1.19629-5.7832-1.4624c-5.41553-7.22217-1.92822-17.74512,5.82617-21.72754   c0.81616-0.41895,0.56213-1.91797-0.43359-1.83447c-10.22546,0.8584-14.13232,16.04102-8.04944,23.29199   c-6.81335-0.49561-11.98877,0.03174-20.72266-4.74316c-0.53625-0.29297-1.2821,0.30518-1.14832,0.88818   C211.02522,113.49821,222.33931,113.47722,228.51094,113.80779z"/></g></svg>