<svg xmlns="http://www.w3.org/2000/svg" xmlns:xlink="http://www.w3.org/1999/xlink" version="1.1" x="0px" y="0px" viewBox="0 0 268 335" style="enable-background:new 0 0 268 268;" xml:space="preserve"><g fill="#F1F0EA"><path d="M23.43438,260.621c-0.86353,1.35889,1.13916,2.77832,2.06079,1.43555c5.26025-7.66258,14.64526-10.80418,23.55188-11.56297   c0.5946-0.05078,1.08118-0.55469,1.03894-1.16699c-0.49585-7.18604,4.0354-12.41504,7.03821-18.42383   c5.64099,1.4209,12.20203-0.60059,17.31067-2.96289c10.55762-4.88135,18.91919-13.46729,26.73413-21.84424   c31.93774-34.23438,46.69872-42.19434,48.76196-54.6084c7.7146,0.22412,14.74036-3.03857,16.72107-12.33203   c0.73401-3.44434-0.19495-6.70117-1.85852-9.69385c10.08862,0.87207,18.23633-10.24366,25.16162-16.14161   c95.82423-81.61377,42.5354-109.91309,15.23169-92.1167c-2.83716-5.61279-8.00806-11.02686-13.04663-13.94775   c-6.55408-3.79932-14.35449-1.25-19.92188,3.10449c-9.50696,7.43555-14.26294,16.20605-30.43994,39.08789   c-4.13562,5.84961-8.97864,11.50879-11.8938,18.08301c-0.57495,1.29639,0.79041,2.30713,1.95435,2.11523   c-0.20728,0.42773-0.18579,0.95996,0.24792,1.26709c2.95105,2.0918,6.70325,2.44141,6.83838,1.44385   c7.85791-10.6084,0.24084,1.37793,22.3844-29.9126c4.19299-5.92432,8.51782-11.7373,12.7688-17.61621   c4.07251-5.6333,9.03833-14.87744,17.22095-13.16309c4.88953,3.62207,8.00415,8.60156,10.198,12.2251   c-12.22559,9.78418-29.58813,34.23047-52.49463,57.92578c-6.56628,5.82715-13.1825,14.0625-11.20947,22.57422   c-0.177-0.08105-0.35083-0.16699-0.52954-0.24512c-3.12439-3.97021-12.50072-4.00977-19.84008,3.81201   c-3.59717,3.8335-4.13892,8.60449-2.92957,13.49561c-9.76563-0.07373-16.20398,5.9751-21.60754,13.73096   c-25.04187,35.94385-54.62451,70.51025-44.20935,89.11475c-2.59729,1.35742-4.87354,3.33643-7.21545,5.08838   c-3.20093,2.39453-8.33496,3.7832-10.896,6.85205c-1.28101,1.53467,0.05005,6.42139-0.41907,9.50244   C29.32012,251.16985,26.32806,256.06827,23.43438,260.621z M167.76518,31.25138   c-20.17908,27.34375-19.37793,27.98193-23.42993,32.521c-2.1781,2.43994-4.20874,4.79736-5.74487,7.66162   c-0.95459-1.38623-4.4657-2.22852-5.68616-2.4165c8.53699-7.42041,22.3717-31.25977,33.76135-46.01807   c4.6311-6.00049,12.04907-14.13623,20.3479-12.96826C179.32646,11.99699,170.4998,27.5463,167.76518,31.25138z M231.92754,23.32267   c2.64136,1.32178,4.49365,3.05127,5.74072,5.0415c-2.48254,0.76074-4.62402,0.95752-7.505-1.38916   c-1.33032-1.08301-1.69299-2.59375-1.93323-4.2002c-0.04468-0.29834-0.16162-0.91992-0.50562-1.104   C229.11674,22.07316,230.51872,22.61759,231.92754,23.32267z M227.55669,21.62199   c-1.51172-0.13281-1.39661,2.21777-1.06543,3.69775c1.04932,4.68701,8.32068,7.979,12.44824,5.71484   c1.58936,4.60107,0.79492,10.10059-0.83105,15.20313c-3.55737-0.19336-10.50391,0.31836-18.74268-4.61768   c-3.89978-2.33691-6.74756-5.68506-9.30176-9.36865c-1.42017-2.04834-1.854-4.69824-3.49146-6.5   C212.92973,21.57511,220.09843,19.52726,227.55669,21.62199z M143.4666,93.40128   c7.85522-11.84521,22.52417-17.79834,32.7439-35.93506c6.76697-8.08154,19.98877-24.08008,28.39038-30.33154   c3.57593,14.75586,20.10388,24.10352,32.07861,23.03174c-8.03418,19.76807-32.31689,43.83203-48.28125,57.67236   c-7.55225,6.54736-15.2406,16.91162-25.77026,18.32617c-2.79785-3.70361-12.22717-13.71143-18.72339-18.24658   C142.5894,103.02677,141.39604,100.36271,143.4666,93.40128z M118.51421,115.16203   c0.12842-4.23975,4.34644-7.14795,7.78125-8.79688c2.86791-1.37695,5.65124-1.92188,7.9425-0.89111   c0.52087,0.87354,2.32849,2.58496,3.38013,3.47607c0.04773,0.09375,0.09216,0.14648,0.20349,0.1748   c3.79077,3.16162,8.33557,5.62061,11.77197,9.18555c3.98511,4.13428,8.3833,8.0835,11.37476,13.03126   c3.69727,6.11475,0.43384,13.86426-6.31909,15.80957c-5.04883,1.45459-10.84766-0.46973-15.46558-2.46777   C128.4832,140.05363,118.15264,127.08927,118.51421,115.16203z M59.69878,191.34367   c3.42786,14.34277,13.75964,20.45703,23.22852,19.03857c1.29541-0.19385,1.92432-2.04248,0.73621-2.8291   c-4.39429-2.90918-9.8927-2.41992-13.85193-6.29541c-4.36719-4.27539-5.56079-11.58008-8.18494-13.22949   c11.00415-18.58203,19.6427-27.84521,33.63416-49.39063c4.86938-7.49805,10.74402-13.72706,20.09399-14.41309   c3.26001,8.75782,11.34412,17.4087,16.9475,21.3086c4.14697,2.88623,9.61829,5.07422,14.99597,5.74902   c-5.96545,12.18457-20.94201,21.14795-44.9945,47.37256c-6.66577,7.26758-13.24463,14.61475-21.14307,20.58545   c-6.81079,5.14844-19.9469,12.86279-27.59985,5.01855C45.82159,216.3261,54.31377,200.8051,59.69878,191.34367z    M33.03765,239.24065c-0.46143-3.01855,6.42603-5.26758,8.68909-6.80859c2.85266-1.94189,5.42273-4.2124,8.22839-6.2124   c1.43188,1.81396,3.14404,3.18359,5.30493,4.07861c-4.56689,4.84424-7.9574,11.50391-7.4657,18.17871   c-6.7616,1.15234-12.63782,2.99219-17.89185,6.53809C32.37054,250.08684,33.85406,244.58244,33.03765,239.24065z"/><path d="M35.08843,250.70207c3.74463-1.89941,7.34473-8.5625,9.2262-11.52637c0.78137-1.23047,1.58936-2.17676,1.8446-3.5459   c0.99487,0.40381,1.92749-0.25049,2.30469-1.07373c0.69995-1.52881-1.16675-3.05225-2.27686-2.13232   c-0.1001,0.06348-1.24243,0.17822-1.24731,1.54834c-0.00195,0.56299,0.26294,1.00586,0.65503,1.32471   c-3.47046,2.29248-4.96655,7.79688-10.99548,14.85498C34.30499,250.49651,34.73248,250.88225,35.08843,250.70207z"/><path d="M144.60429,136.66936c0.36768,0.14941,0.64941-0.33203,0.30005-0.54834c-4.00049-2.47803-7.59119-5.23975-10.59814-8.88331   c-4.65601-5.64258-5.67749-12.83691-6.19861-11.646c-1.50475,3.43457,2.02673,7.86084,3.86707,10.49951   C135.15019,130.64445,139.42583,134.57024,144.60429,136.66936z"/></g></svg>