<svg xmlns="http://www.w3.org/2000/svg" xmlns:xlink="http://www.w3.org/1999/xlink" version="1.1" x="0px" y="0px" viewBox="0 0 268 335" style="enable-background:new 0 0 268 268;" xml:space="preserve"><g fill="#F1F0EA"><path d="M41.84607,45.48138c2.56158-0.69336,5.12146-0.5083,7.50092-1.79102c0.659-0.35547,0.672-1.35889,0.01825-1.72803   c-6.4007-3.61328-16.26727,2.2876-19.37122,8.07715c-4.12054,7.68652-1.60809,18.40869,4.07489,24.64258   c13.5752,14.89063,39.44818-0.00098,33.82349-19.15479c-0.39545-1.34668-2.29779-0.70752-2.26038,0.54199   c0.6772,22.60149-20.06854,25.55409-28.65351,16.48389c-4.83154-5.10498-7.25165-14.50293-3.64636-20.88672   C35.14636,48.45453,38.33709,46.4306,41.84607,45.48138z"/><path d="M82.698,23.60248c-6.69476-5.98828-16.24121-8.01709-23.9773-2.73779c-6.70062,4.57275-10.6344,13.86865-8.38965,21.77637   c0.19958,0.70361,1.40717,0.63477,1.46576-0.11816c0.56982-7.32031,2.00354-14.53711,8.85046-18.57959   c6.31495-3.72852,13.81733-1.96338,19.0633,2.83496c6.63257,6.06592,8.07776,16.93554-0.50427,22.3164   c-4.43341,2.77979-10.20966,2.34277-15.12799,3.70752c-0.45331,0.12549-0.63929,0.8623-0.08606,1.01416   C86.11262,59.89608,97.80238,37.11351,82.698,23.60248z"/><path d="M213.14807,183.96918c-3.74078-3.90723-7.22717-9.89502-11.85852-13.05273c0.29785-0.60352-0.22339-1.5791-1.02411-1.37598   c-10.92607,2.77638-14.70901,14.22311-17.20331,17.11475c-0.17072-0.12695-0.33386-0.26953-0.5069-0.3916   c-0.22345-0.1582-0.5376,0.12305-0.44885,0.36572c0.08423,0.22998,0.17981,0.45752,0.27661,0.68457   c-1.08124,0.89063-2.42169,1.16406-4.2666,0.11133c-6.66042-3.80154-6.11777-12.54892-10.86761-14.61816   c0.2132-0.16846,0.27411-0.53027,0.01733-0.75293c-11.74945-10.18457-20.88715-23.01074-31.42627-34.37012   c-5.57898-6.01318-11.26617-11.92725-16.77924-18.00146c-9.71143-10.69939-16.86288-21.23827-34.15594-32.0874   c-14.19204-8.90219-20.0825-0.98899-32.5929-0.17188c-8.28552,0.54102-15.22021-1.67236-21.61694-6.21826   c-1.88141-3.73047-5.16583-6.74219-7.0611-10.53711C11.8388,47.05335,30.2066,31.8637,33.05542,24.40863   C46.14306,14.23627,60.96685,3.95307,78.45587,9.28021c15.36597,4.67969,25.34882,19.95605,22.17236,35.75488   c-1.32349,6.58252-4.297,12.98389-4.55298,19.75342c-0.59834,15.82028,17.02542,22.77775,27.02893,32.6377   c11.33362,11.17181,18.08546,25.15778,36.92456,40.1875c8.25983,6.58936,15.5415,14.43604,24.01831,20.73145   c0.26721,0.86462,1.20857,0.78241,1.33423,0.17383c-0.39131,1.89415,6.33813,1.47693,10.32037,4.55664   c2.64191,2.04297,4.0816,5.12891,6.43634,7.43018c0.29559,0.28857,0.81342-0.06592,0.74683-0.43896   c-0.64703-3.62061-3.20288-6.92383-6.17786-9c-3.36243-2.34717-7.55817-2.67578-11.3811-3.86865   c-0.17737-0.05518-0.33643-0.06152-0.48492-0.02979c-13.53961-13.57617-29.50293-24.44336-41.92529-39.11621   c-5.9715-7.05371-11.19214-14.87158-17.81995-21.3457c-6.3078-6.16162-14.56653-9.9209-20.50354-16.5083   c-13.36475-14.82861,2.44385-30.21875-0.25244-46.67334c-2.28119-13.9209-14.19141-25.35107-27.84955-28.07617   C59.39154,2.03656,41.32238,11.6518,30.34594,24.42133c-13.31068,14.74044-19.00173,30.46439-9.79803,48.25244   c2.0036,3.87207,4.77856,8.70166,9.00598,10.45557c7.93677,6.73975,18.77606,8.39648,29.18652,6.4082   c7.2475-1.38428,13.59967-4.94824,20.85999-1.52295c19.84822,9.36466,45.16088,41.95543,71.33325,70.7793   c4.54059,5.00098,8.84393,10.8335,15.09192,13.7168c-1.17072,0.00577-1.04536,1.43581-0.69318,1.42529   c2.9447-0.08984,4.70526,6.82129,5.84772,8.9082c2.54539,4.64922,8.39949,9.86638,12.20148,6.43213   c1.47058,2.48535,3.56213,4.76465,5.6275,6.86182c-2.81433,1.55322-5.34796,3.74609-7.7785,5.74463   c-2.75049,2.26172-7.38568,4.8457-8.92407,8.13525c-0.08722,0.18652,0.02136,0.45557,0.2594,0.43701   c3.64972-0.28027,7.49792-4.26025,10.32947-6.38672c2.59314-1.94727,5.43628-3.90967,7.85303-6.18457   c2.53497,2.53667,30.30907,29.7318,31.11206,30.53516c-8.6333,7.83029-12.42543,19.29179-17.02155,16.99902   c-2.44696-1.2207-4.85114-5.42236-6.50208-7.55811c-0.4787-0.61914-1.19495-0.61279-1.75232-0.11377   c-4.42468,3.96436-10.14209,9.41162-4.11859,14.65039c1.61047,1.40039,3.24683,1.86182,1.92242,4.34326   c-1.05304,1.97314-3.29785,4.3877-5.46295,4.00684c-2.57452-0.45215-4.56256-3.5293-6.24274-5.39648   c-2.1286-2.36621-4.0448-4.75391-5.59491-7.49414c4.06799-3.229,1.901-5.76172-0.80133-9.90332   c-3.13959-4.81201-5.31323-3.38477-8.99847-0.58447c-4.22359-5.33466-9.7843-7.00778-9.45416-9.03857   c0.32281-1.98509,4.02875-2.83841,4.87531-6.89844c4.33693,2.47551,6.05721,6.18187,7.67987,4.77197   c2.46686-2.14258,8.17499-5.32275,8.08356-9.09668c-0.07013-2.89551-3.52002-6.13232-6.39288-5.58105   c-0.70697,0.13525-0.54755,1.20557,0.14117,1.23096c2.03186,0.07373,3.42401,1.979,3.74738,3.71094   c0.37958,2.0332-0.02277,2.17188-1.40381,3.49414c-0.83424,0.79846-3.93422,4.30623-5.30341,3.98291   c-1.44516-0.34114-2.55489-3.47537-7.00256-5.26807c-0.60663-0.24414-1.55902,0.06494-1.59857,0.84082   c-0.18628,3.65234-3.52563,5.5625-5.49054,8.30127c-1.67174,2.33037,7.25037,6.99832,10.896,12.24561   c0.42334,0.60938,1.34357,0.49072,1.8457,0.10303c2.38092-1.83789,3.42163-3.31055,6.30054-0.72754   c0.5556,0.49805,1.23163,1.62256,1.60022,2.28564c1.26215,2.27148,1.4682,3.15283-0.83771,4.89014   c-0.5191,0.39111-0.60144,1.01563-0.28967,1.56689c1.81995,3.21729,4.06384,6.00732,6.5575,8.73486   c1.67749,1.83496,4.01318,5.14355,6.44733,6.04248c3.2204,1.18896,5.27191-1.56641,7.24817-3.85791   c1.56476-1.81445,3.31653-3.67871,1.74841-5.98633c-1.0639-1.56592-3.49036-1.94238-4.32947-3.78516   c-1.69574-3.72412,2.16962-6.96533,4.85583-9.2417c2.2771,3.32666,6.21326,9.67285,10.24255,8.21387   c2.72345-0.98584,5.4007-5.22168,7.14581-7.34619c3.00989-3.66357,5.89233-7.40527,8.30505-11.48438   c8.14043,8.24954,11.54849,13.3593,12.05481,13.99219c-0.51398,0.25-0.28503,1.00635,0.23724,1.06006   c11.15094,1.14697,17.24426-10.84766,16.51959-20.27246c-0.00043-0.00488-0.0025-0.00977-0.00299-0.01514   c0.18536-0.06006,0.33148-0.28467,0.18958-0.4585C227.35359,193.76331,224.03131,195.3371,213.14807,183.96918z    M250.17133,223.30511c-3.86101,1.32721-4.66443,5.91901-12.69427,12.35889c-0.43103,0.3457-0.03906,1.125,0.49707,0.97412   c5.48944-1.54465,8.62134-8.55232,11.56219-10.57764c-0.03931,3.98682-0.89215,7.84326-3.45886,11.07227   c-2.69678,3.39209-6.09473,4.25391-9.74933,5.74219c-0.00952-0.05811-0.01062-0.11426-0.03601-0.17529   c-5.02594-12.0166-16.85089-19.81006-25.66211-28.8584c-7.41611-7.61517-13.54887-12.78926-18.10431-17.79248   c0.0589-0.06738,0.12378-0.13086,0.1817-0.19873c0.38348-0.4502,0.02722-1.29004-0.62579-1.07568   c-0.17847,0.05859-0.3493,0.1377-0.52545,0.20264c-2.23792-2.48242-4.49298-5.00684-6.96161-7.11133   c3.27087-4.65436,6.06451-12.36188,15.37427-16.20508c5.33913,9.60268,21.84773,23.00604,36.15485,37.13916   C240.78979,213.40863,244.83124,219.38373,250.17133,223.30511z"/></g></svg>