<svg xmlns="http://www.w3.org/2000/svg" xmlns:xlink="http://www.w3.org/1999/xlink" version="1.1" x="0px" y="0px" viewBox="0 0 268 335" style="enable-background:new 0 0 268 268;" xml:space="preserve"><g fill="#F1F0EA"><path d="M243.26175,104.30602c0.85583-7.39502,4.70703-13.23218,5.28125-20.72314c0.16736-2.18262-1.3125-4.32007-1.39404-6.52881   c-0.01001-0.27344-0.42725-0.29712-0.42932-0.01733c-0.04211,5.52417,2.47742,3.13013-0.04602,13.12988   c-1.21289,4.80664-3.40869,9.09546-3.56665,14.11816C243.10379,104.38317,243.24991,104.40807,243.26175,104.30602z"/><path d="M34.23153,77.02892c-0.01343-0.05078-0.08582-0.03833-0.09631,0.00708c-1.93842,8.36035,4.26685,14.85327,5.87683,22.54443   c0.03937,0.18799,0.35901,0.17993,0.34766-0.02295c-0.19592-3.49609-1.56793-6.25464-3.08392-9.38428   C35.19302,85.87292,35.40633,81.47521,34.23153,77.02892z"/><path d="M66.94711,87.63976c-4.66937-0.96655-0.94183,7.18481,0.01239,8.58179c3.84314,5.62598,12.13831,1.44141,14.35748-3.42334   c0.39429-0.86426-0.46515-1.94678-1.39093-1.38208c-2.27582,1.38843-5.17871,3.95142-8.01031,3.77466   c-1.88916-0.11768-2.73889-1.79834-3.53064-3.19092c-0.43433-0.76416-1.92542-3.12622-1.32275-4.11475   C67.12893,87.77599,67.06478,87.66418,66.94711,87.63976z"/><path d="M264.29446,203.43321c-0.71777-0.40552-1.44165-0.75659-2.17017-1.07129   c0.73804-8.46973-0.77588-16.87378-0.20422-37.29761c0.3634-12.98315-3.09192-25.29175-1.13782-38.29931   c1.71497-11.41431,3.8252-22.42676,3.98584-34.02734c0.07056-5.09888-3.70483-6.23975-7.52075-5.47729   c0.55566-2.46851,1.06995-4.94653,1.51001-7.44116c0.45313-2.56763,0.68018-5.20068,1.30896-7.73267   c0.32214-1.29761,0.98401-2.729,0.90686-4.09351c-0.35547-6.28857-12.9585-2.90918-17.68579-1.28369   c0.729-17.1272-2.01733-15.11475-2.19409-22.66235c-0.00342-0.14087-0.03931-0.25464-0.07813-0.36499   c0.81665-0.90625-0.01428-2.75781-1.32471-2.25635c-29.45142,11.27051-38.68726,10.58569-56.59717,17.96387   C153.06595,71.76086,156.173,75.41711,147.22342,81.6134c-1.34302,0.92993-2.63208,2.01758-3.39246,3.39233   c-10.29163-14.55566-28.02845-22.25098-45.19245-25.3457C81.26455,56.5277,70.52749,58.94836,47.24746,47.7423   c-4.55475-2.19238-9.02936-2.65552-13.76294-3.64038c-0.08215-0.2876-0.17047-0.57275-0.24756-0.8623   c-0.39905-1.4978-2.66162-1.24854-2.43487,0.35986c0.58606,4.15674,2.61804,7.92065,3.65021,11.98145   c0.86603,3.40698,1.62726,6.83887,2.4469,10.25635c-2.73993-1.17163-9.4444-0.80493-13.43872-0.55054   c-2.62195-0.56079-4.93982-1.04541-7.62488-0.1731c-3.31927,1.07886,7.93781,15.62158,9.24609,17.88184   c-3.03778-1.271-6.80176-1.61377-9.92535-2.34717c-3.59222-0.84302-7.24762-1.30029-10.88373-0.57495   c-1.15564,0.23047-1.43823,1.33911-1.12012,2.2644c0.08374,3.27002,2.39612,5.87012,3.23578,8.98242   c1.35687,5.02979,1.82324,10.42896,2.59058,15.57007c6.37524,42.71044,0.46405,50.65502,2.45911,86.01952   c0.19519,3.45923-0.17017,6.79541,1.13074,10.09058c0.4353,1.10278,1.5921,1.15698,2.33838,0.63745   c3.34814,0.35669,1.26648-0.52368,20.92059-1.30786c39.97333-1.59473,60.34827,14.9082,77.7533,8.16357   c-1.86145,4.33984,2.28015,8.98828,5.73743,11.27246c15.31812,10.12036,47.0918,3.70557,43.23121-11.56934   c4.25781-0.03345,33.18677-7.08789,49.43262-6.77563c8.44666,0.16235,16.77026,1.92456,25.20361,2.03564   c8.74414,0.11499,17.36584-0.86279,26.02002,0.91089C264.75906,206.6859,265.66995,204.21056,264.29446,203.43321z    M243.88333,200.29918c-8.44897,0.33032-16.7865-0.52954-25.20361-0.9021c0.07153-0.80688-0.14624-1.78882-0.34033-2.54712   c-0.17102-0.66748-1.16602-0.61377-1.31934,0.03369c-0.21338,0.90283-0.66077,1.26904-0.98584,2.41309   c-9.99512-0.29761-17.09351,1.43066-36.80505,4.88525c-0.70654-0.80347-0.22607-1.58667-0.31213-2.46069   c-0.11377-1.15356-2.46973,0.19995-1.90015,2.86353c-11.06128,1.97388-11.0874,2.67554-15.50708,3.3623   c-5.14856-3.625,2.39233,13.78613-21.87183,14.48096c-5.91626,0.16919-15.95484-1.5061-20.63514-5.29712   c-2.6908-2.17969-2.39478-5.68506-3.6377-7.43433c0.8949-0.45435,1.76404-0.97656,2.59607-1.58936   c0.65173-0.47998,0.20972-1.56567-0.54077-1.60327c-4.51245-0.22632-8.65576,1.28394-13.1427,1.52856   c-6.01349,0.32813-11.90399-1.50928-19.95319-3.51416c0.19293-0.23486,0.34174-0.5625,0.25745-0.82837   c-0.15796-0.49805,0.02637-0.6521,0.047-1.08008c0.05963-1.23462-2.61212,0.02612-2.31488,1.41333   c-12.341-3.00464-19.24493-3.95386-28.90576-4.59692c0.06543-0.18823,0.12286-0.38306,0.19293-0.55542   c0.23938-0.58862-0.26526-1.2395-0.90839-1.02734c-0.97809,0.323-1.23145,0.47778-1.93939,1.42725   c-6.84937-0.36035-22.68005-0.32227-29.26159,1.16748c0.28198-0.3689,0.55786-0.74097,0.8559-1.09814   c0.33154-0.39722-0.18701-0.97144-0.62756-0.75537c-0.94269,0.4624-2.87103,1.39209-2.59741,2.39526   c-1.23737,0.27344-2.47961,0.49658-3.73779,0.57324c-1.09277-3.25415-0.46594-6.74707-0.72656-10.11499   c-0.9859-12.73975,0.64325-36.78662,0.73315-52.32813c0.0993-17.16723-3.84442-38.54247-6.00946-46.69433   c-0.8363-3.14893-2.8963-5.78296-3.99017-8.771c10.29083-0.43018,15.80853,3.35815,20.50024,1.73975   c1.44537,4.64063,1.06097,3.21362,2.52838,7.63135c-6.96179,1.41113-11.34802-0.57544-10.75146,2.13281   c0.83527,3.79028,2.4303,7.33447,3.20154,11.14429c0.50763,2.50757,2.22034,25.46557,1.78851,38.12402   c-0.93738,27.48047,2.74109,33.96802,3.02051,46.31519c0.01349,0.59766,0.48267,0.99268,1.05219,1.0271   c2.39124,0.14478,4.63275-0.3186,6.95477-0.81079c4.55359-0.96533,25.22186-0.99976,42.41699,2.57031   c16.43518,3.4126,33.40637,2.29785,49.76428,5.94067c0.672,0.14966,1.23352-0.80542,0.63049-1.24805   c-5.07092-3.71997-12.51599-3.29199-18.50104-3.87524c-9.95947-0.97021-19.85858-1.26636-29.65698-3.42993   c-19.10791-4.21875-32.44189-3.12866-37.09796-3.1687c-4.59222-0.03955-9.03015,1.89551-13.51916,1.95898   c-0.39014-13.60132-3.63019-16.16748-2.4231-50.70679c0.26752-7.65405-0.60486-15.29491-1.20886-22.91113   c-1.2749-16.07739-1.49017-11.81226-3.9245-20.22363c2.99292-0.10229,5.92078-0.21826,8.78406-1.19995   c8.69159,26.86572,9.52112,50.41503,7.15301,82.03027c-0.07996,1.06763,1.40729,1.3208,1.784,0.36499   c0.15619-0.39624,0.2926-0.80029,0.42822-1.20483c17.94031-0.59204,22.6911-0.73926,47.54053,5.67871   c8.39099,2.16699,16.88843,3.84253,25.16669,6.43896c8.08362,2.5354,14.32483,7.18188,21.67432,11.01465   c0.57019,0.29736,1.19836-0.30981,0.87756-0.88501c-6.56043-11.76172-28.20417-15.54321-45.29011-19.70508   c-11.63922-2.83521-38.14508-9.72827-49.31116-4.8252c1.81781-7.51074,0.81866-16.05737,0.83466-23.56055   c0.05408-25.27636-0.48883-40.87499-13.54156-73.46362c-1.35052-3.37183-3.73724-5.74683-6.06897-8.26343   c1.1405,0.02173,2.28064,0.01367,3.42096-0.0061c3.68317,0.94556,7.47998,1.15186,13.8324-0.20483   c6.95532,27.77295,5.15509,31.37573,8.63385,60.34985c0.57129,4.75781,0.83826,9.3042,0.76355,14.09863   c-0.0802,5.14478,1.69781,9.90698,2.05908,14.97705c0.06378,0.89526,1.39386,0.92773,1.5484,0.06226   c0.7522-4.2146,0.00928-7.70361-0.50879-11.92578c-0.55426-4.51685,0.1947-9.12427-0.33478-13.67114   c-5.40588-46.41747-1.70575-35.83007-11.47845-73.63696c-1.07843-4.17212-2.7215-8.12158-4.03351-12.18774   c2.76019,1.28271,6.00739,1.59814,8.83789,2.91748c19.57251,9.12134,15.21307,9.47485,46.53357,13.4082   c14.08636,1.76929,34.76129,8.56104,44.20942,17.53369c2.77698,2.63721,5.1311,5.54199,8.13159,7.89233   c-0.79077,3.71509-0.8728,7.58887-1.29517,11.3584c-1.47266,13.13965-7.15356,24.72168-4.86499,36.99242   c1.67505,8.98096,3.71826,18.26807,3.12598,27.45068c-0.47461,7.35986-3.5459,15.13818-1.61169,22.49707   c0.12048,0.4585,0.86926,0.63818,1.0144,0.08618c6.31995-24.03467,3.09387-35.61548,0.88403-47.30103   c-3.64966-19.29955,6.67542-33.85815,3.96472-50.22411c1.16309,0.50122,2.46582-0.53516,2.09521-1.73999   c1.41248-2.99927,5.32837-3.86719,7.67407-5.93872c29.9707-26.46802,72.26782-25.04395,86.12439-35.56934   c0.17468,5.90381,3.03625,8.14453,0.53772,26.69629c-2.59766,19.28613-8.94849,26.81055-9.37964,62.3391   c-0.19116,15.77173-0.82593,20.55835,0.92175,25.10498c-18.49011-3.56396-38.75696-2.07324-56.2533,4.60815   c-15.33984,5.85791-31.15796,14.65283-37.66272,30.10303c-9.01355-12.92041-27.06342-19.48535-40.85694-25.48291   c-11.59137-5.03979-23.93451-10.79004-35.3952-11.92041c-4.3653-0.43042-7.94592,1.23926-12.20764,1.71826   c-0.83154,0.09326-0.96735,1.3999-0.08136,1.50854c6.69867,0.82129,8.30646-2.11475,24.52448,3.3186   c7.9024,2.64746,15.49139,6.21899,23.12231,9.54492c28.39166,12.375,25.25995,13.72754,40.13715,23.26611   c-0.28955,0.81104-0.56274,1.63379-0.80127,2.48047c-0.25293,0.89795,1.01208,1.73535,1.54175,0.81396   c8.0376-13.97949,11.03198-20.20483,37.36926-31.66895c8.97815-3.90771,18.59143-6.12012,28.35657-6.52344   c9.85547-0.40747,20.1687-0.52271,29.96875,0.6897c1.14355,0.14136,1.70605-1.32349,0.87146-1.85278   c-0.01038-1.89502-0.55579-3.45923-0.80481-5.51123c-0.26636-2.19385,0.37134-17.92725,0.43359-23.40479   c0.34277-30.1582,8.93994-48.62963,9.93018-63.02489c3.80469-0.60791,16.13501-2.93359,15.11157,1.02515   c-1.62476,6.28418-1.91235,10.05005-4.08203,18.93164c-0.3916,0.1814-0.77563,0.3728-1.13843,0.58447   c-0.78931,0.46069-0.62891,1.77686,0.48608,2.00708c-8.68835,33.62891-22.9187,58.49657-14.86536,82.99096   c-2.34998-1.14087-5.27759-1.04028-7.87952-1.1355c-9.84595-0.3606-12.6936-3.19189-30.84351,0.82568   c-5.28369,1.16968-10.68677,0.86987-15.96265,1.97632c-4.63623,0.97241-8.79065,4.04761-13.18188,5.74463   c-4.39722,1.69946-8.62891,3.5625-12.83179,5.69678c-5.89014,2.99097-15.0752,6.28857-17.08948,13.29761   c-0.14075,0.48975,0.46375,0.91064,0.8075,0.46094c6.66162-8.70898,20.02173-11.94141,40.02026-20.91284   c4.75366-2.13257,10.13892-1.48804,15.1936-2.06592c11.89966-1.36108,11.09204-4.17554,30.84424-1.37134   c3.98499,0.56567,7.70142,0.62939,11.65906,1.57202c1.56885,0.37354,2.0824-1.50879,1.32947-2.53198   c-0.03613-5.71436-1.28845-11.39233-1.6189-17.10962c-0.91736-15.87622,12.24707-47.49804,17.21045-67.30932   c3.91711-0.67969,5.01563,1.44385,4.75269,4.62354c-0.22571,2.72656-0.3949,5.45581-0.59448,8.18213   c-12.07056,30.81445-12.48938,38.79736-12.33459,59.32738c0.10583,14.02417,2.70227,16.81641,2.48181,23.68774   c-3.54785-0.79785-6.3811-0.08643-23.01099,0.7666c-9.38721,0.48169-18.71912-0.76636-28.11182,0.08423   c-21.69397,1.9646-20.31897,2.05322-36.0448,7.64893c-4.36951,1.55493-7.86389,4.76733-12.20239,6.1897   c-1.00452,0.3291-0.41699,1.82056,0.53821,1.69751c3.06421-0.39429,5.44604-1.97461,8.09167-3.47827   c3.90381-2.21899,9.00098-3.09839,13.25806-4.4646c18.32727-5.88159,45.15344-3.98022,52.65051-4.08569   c4.42432-0.06226,8.85815-0.51978,13.27197-0.80786c4.42859-0.28882,9.7478,0.48853,13.83118-1.33203   c0.59778-0.2666,0.69104-1.0957,0.06702-1.40601c-0.73059-0.36304-1.49146-0.61792-2.27124-0.7981   c1.21875-13.41992-5.84644-39.3335,9.00977-75.0603c-1.36768,10.71509-4.3064,20.70605-3.13513,31.55688   c0.57813,5.35522,1.90808,10.55811,2.17419,15.95996c0.33691,6.83667-0.9519,28.6792,1.47144,42.38599   C255.04764,199.91246,249.57645,200.07652,243.88333,200.29918z"/><path d="M148.65311,204.82896c-4.66638,1.45239-7.81982,3.76758-12.99243,3.38135   c-3.7854-0.28247-7.25049-2.72485-10.99598-2.59912c-0.26379,0.00879-0.42395,0.32813-0.27356,0.54492   c3.40173,4.90283,17.58375,8.31494,25.19068,0.14697C150.27396,205.55992,149.62064,204.52794,148.65311,204.82896z"/><path d="M61.10464,101.65807c0.31836,0.69849,1.54553,0.14502,1.23474-0.55811c-1.76355-3.98901-1.56445-8.29102-1.56305-12.56055   c0.00177-5.25781-1.14655-10.4939-1.45782-15.7373c-0.11133-1.875,6.54572,1.22705,6.96063,1.39453   c1.99878,0.80615,4.18317,1.26172,6.25256,1.85376c4.87939,1.396,9.53143,0.82983,14.41132,1.78125   c3.23047,0.62988,0.72113,4.07837,0.21814,5.33276c-0.74792,1.86548-1.24481,3.75195-1.67078,5.71387   c-0.71863,3.30957-0.85883,6.46021-0.86249,9.823c-0.00629,5.66772-5.45416,3.8562-9.36145,3.97192   c-4.93011,0.14624-9.51904-0.27002-14.43048-0.75098c-0.82532-0.08105-1.18945,0.89893-0.47754,1.35156   c3.93463,2.50098,8.68201,2.43848,13.20093,2.13477c3.39935-0.22852,6.81207,0.01758,10.17615-0.58154   c1.82599-0.32544,2.50714-1.70557,3.02411-3.34692c1.12994-3.58716,0.63629-8.12231,1.31885-11.84766   c0.93561-5.1062,6.73401-11.77954-0.3717-14.37036c-1.51978-0.55396-3.42401-0.45117-4.99231-0.45679   c-3.24512-0.01147-6.1416-0.34961-9.32465-1.11426c-4.67657-1.12354-15.78546-5.50024-15.90479-2.76709   c-0.25732,5.89185,1.03662,11.66357,1.3728,17.53101C59.1177,92.9901,59.19204,97.46276,61.10464,101.65807z"/><path d="M95.6282,87.89806c9.53094,0.51416,13.15338,5.47827,17.75464,4.86182c3.65063-0.48926,6.22852-0.92139,9.95105,0.14868   c11.61732,3.33936,5.06165-7.39673-9.41663-4.16504c-4.88324,1.09033-11.24933-6.47803-18.65674-2.61768   C94.44027,86.55334,94.68649,87.84728,95.6282,87.89806z"/><path d="M94.44009,112.3214c5.43475,0.97925,8.77185,4.81201,14.29865,2.51685c8.19806-3.4043,10.36554-0.06396,15.16608-0.92456   c0.7168-0.12842,1.01404-1.12939,0.48376-1.62842c-3.0116-2.83447-7.86951-2.60449-11.73645-2.29858   c-2.8255,0.22339-5.02893,2.39429-7.81573,2.48877c-3.42371,0.11621-6.65332-2.22461-10.17603-2.23462   C93.47066,110.23766,93.25228,112.10754,94.44009,112.3214z"/><path d="M107.4457,135.35094c-9.78308-4.19092-13.08417,1.59839-19.37646,2.38208   c-6.15643,0.7666-11.9035-3.95166-18.23792-3.35669c-0.92944,0.0874-0.99445,1.59814-0.10529,1.81006   c5.23761,1.24854,10.03137,3.63452,15.22913,4.97046c4.28809,1.10229,8.33344-1.10352,12.17084-2.65649   c5.91333-2.39282,9.0376,2.18555,14.49634,2.78174c5.33301,0.58252,10.77344,2.17383,16.11987,2.10645   c0.54249-0.00684,0.94849-0.77026,0.56483-1.19873C122.85256,136.09703,115.20144,138.6732,107.4457,135.35094z"/><path d="M205.09256,144.25572c-0.24561-5.55933-2.88977-10.64038-2.82312-16.30273c0.00867-0.74023-1.01282-1.41357-1.50598-0.6106   c-2.96289,4.8247,1.3208,12.80175,3.53784,17.09985C204.5098,144.84679,205.11392,144.73912,205.09256,144.25572z"/><path d="M211.29544,123.83825c-3.06958,0.56104-6.97925,1.09473-9.65833,2.72827c-0.0542,0.03296-0.03064,0.10986,0.01636,0.13403   c2.38562,1.23047,5.20178,0.56763,7.76978,0.24219c2.72156-0.34473,5.53174-0.71387,8.24353-1.29468   c-2.70532,4.9558,0.69165,13.50805,3.20532,17.69799c0.52979,0.88306,1.77698,0.49219,1.69751-0.53809   c-0.21509-2.79077-1.1897-5.35938-1.98499-8.02563c-0.93762-3.14331-0.85437-6.30249-1.37292-9.479   c0.00537-0.00122,0.01099-0.0022,0.01636-0.00366c0.56201-0.14258,0.68945-1.0708,0.11523-1.29395   C216.63602,122.953,214.08243,123.32897,211.29544,123.83825z"/><path d="M218.34317,142.29527c-2.29578-0.82788-4.56848-0.0293-6.76306,0.771c-2.20801,0.80518-4.49756,1.67236-6.44849,2.99756   c-0.79761,0.54175-0.53491,2.08716,0.57666,1.95288c2.44287-0.29492,4.75293-1.28491,7.0863-2.02954   c1.94666-0.62134,4.08093-1.01465,5.64246-2.4126C218.80057,143.24937,218.93399,142.50816,218.34317,142.29527z"/><path d="M152.68216,142.44884c20.9762,9.86401,19.28833-3.45679,25.00586-2.28687c5.41321,1.10864,5.8429,0.54956,9.02332-1.19678   c1.88708-1.03662,4.48914-0.77856,6.5033-1.78076c0.80066-0.39844,0.58203-1.72681-0.27673-1.89258   c-2.65491-0.51245-5.56848-1.35571-8.12903,0.00732c-5.06689,2.69727-7.2832-0.03101-9.99927,1.10742   c-2.92798,1.22656-4.24268,4.13721-6.92627,5.66821c-3.63794,2.07495-10.70508-1.96826-14.63745-2.02075   C151.82388,140.03526,151.38065,141.83678,152.68216,142.44884z"/><path d="M154.91946,104.46886c9.75537,2.43677,19.41577,6.37549,27.15283-1.9126   c5.04932-5.40894,13.27075-3.90527,20.11108-3.88745c5.53882,0.0144,11.44128-1.98315,16.59143-3.87036   c0.78259-0.28687,0.60046-1.51733-0.1322-1.72729c-5.41333-1.55029-10.79919,1.2583-16.24023,1.51758   c-5.51807,0.26318-11.76416-0.57642-17.05444,1.48145c-3.60986,1.4043-5.60303,4.5188-8.49158,6.91113   c-4.95593,4.10449-15.82703,0.30273-21.38562-0.93018C154.08963,101.74499,153.54544,104.1256,154.91946,104.46886z"/><path d="M169.51456,80.2506c6.59155,2.14355,15.21106,1.86792,21.24548-1.83716c4.4729-2.74634,7.62061-3.10059,12.81616-3.03101   c4.27197,0.05713,8.70837-0.93872,12.94629-0.08936c0.6095,0.12207,1.22437-0.73169,0.62878-1.16382   c-5.65491-4.10107-16.01501-2.95361-22.43127-1.16943c-1.55139,0.4314-2.9292,1.26855-4.29395,2.08936   c-3.32129,1.9978-6.42651,3.0564-10.34229,3.43213c-3.5415,0.34009-7.05579-0.18359-10.56665,0.5249   C168.85184,79.1405,168.94339,80.06481,169.51456,80.2506z"/></g></svg>