<svg xmlns="http://www.w3.org/2000/svg" version="1.1" viewBox="-5.0 -10.0 110.0 135.0" fill="#F1F0EA">
 <path d="m84.914 60.621c-3.1523-3.5938-6.5898-6.3281-10.215-8.1211-3.6719-1.8203-9.5195-2.5117-13.758-2.2305-0.039062-0.14844-0.058594-0.30469-0.11719-0.44531-0.22266-0.54688-0.55078-0.99609-0.96094-1.3438 0.92578-3.6875-0.21094-6.9648-2.1758-10.203-0.19141-0.60938-0.42188-0.73047-0.55859-0.84766-0.042968-0.046876-0.074218-0.10156-0.12109-0.14063l0.003907-0.003906c-1.8555-1.4688-5.6484 0.38672-7.5586 1.4961l-27.516-30.223c-1.3945-1.5-3.8828-1.6094-5.4062-0.23828-1.5547 1.4219-1.6641 3.8438-0.24609 5.3945l27.141 29.805c-2.7695 2.8594-3.793 5.3828-2.6992 6.8242 0.17188 0.23438 0.39844 0.41016 0.64453 0.55078 0.054687 0.066407 0.10156 0.14062 0.17188 0.1875 3.0508 2.0703 6.2148 3.9688 9.9336 3.9688 0.15625 0 0.30469-0.03125 0.46094-0.039062 0.15625 0.26562 0.33203 0.51172 0.53906 0.73438-1.7227 3.9414-3.6914 10.453-2.9648 14.727 0.75781 4.457 2.6758 8.668 3.9766 12.82 0.76172 2.4336 1.9844 4.8906 3.8438 7.7266 0.66797 1.0195 1.8047 1.6953 3.2031 1.8672 0.84375 0.10938 1.8086-0.63281 2.2852-1.3164 0.52734-0.75781 0.35547-1.3359 0.20703-1.6133-1.6719-3.1289-2.6055-6.9414-3.4336-10.734 2.7188 4.2852 5.9375 8.9141 6.3828 9.4805 2.6133 3.3477 7.9336 1.1914 11.59-0.95312 3.4258-2.0234 10.918-7.8789 9.7383-11.598-0.007813-0.019532-0.015626-0.042969-0.023438-0.0625-1.3828-3.5352-1.1797-3.0234-3.6289-7.1914 1.9375 1.4961 3.7852 3.1406 4.8672 4.9648 0.60547 1.0234 2.0547 1.2422 2.8984 0.3125 0.34766-0.38281 1.4453-1.4805 1.6953-1.6523 0.55469-0.35156 0.72266-1.0664 0.37891-1.6289-2.3945-3.8867-5.5781-6.8594-8.5781-10.273zm-65.789-51.305c0.50781 0 0.98828 0.21484 1.3438 0.59766 29.754 32.68 27.816 30.52 27.938 30.719 0.8125 1.2109-0.058594 2.8828-1.5977 2.8398-0.48828-0.023437-0.9375-0.23438-1.2656-0.60156l-27.777-30.504c-1.0703-1.1641-0.23047-3.0508 1.3594-3.0508zm25.742 35.578c0.046874 0.03125 0.10156 0.042969 0.14844 0.070313 1.3594 0.77344 2.957 0.72656 4.4453-0.48438 0 0 0.003906-0.003907 0.003906-0.003907 1.1094-1.0117 1.5-2.6445 1.0586-4.0078 2.7461-1.5977 4.582-1.8867 5.1406-1.6758 0.050782 0.078125 0.097657 0.15625 0.14453 0.23047 0.11719 1.207-2.0703 3.6523-2.9688 4.5352-1.8555 1.8281-4.3359 3.6523-6.7773 4.7812-1.2305 0.56641-2.2305 0.85156-2.9062 0.90625-0.69141 0.054687-0.6875-0.0625-0.82422-0.09375-0.21484-0.28516 0.27344-1.9219 2.5352-4.2578zm0.11328 6.0234c2.207-0.67188 4.7266-2.2109 6.5938-3.625 0 0 0-0.003907 0.003906-0.003907 1.9609-1.5039 4.3125-3.7305 5.5156-5.9102 0.96484 2.0781 1.3711 4.1016 0.89844 6.3125-1.6875-0.21094-3.5547 0.54688-4.6719 1.4375-2.0898 1.6602-1.9219 3.7695-1.9531 3.9023-2.3359-0.027344-4.3711-0.91797-6.3867-2.1133zm45.133 21.719c-1.3164-2.1172-3.4023-3.9219-5.5195-5.5391-0.003906-0.003906-0.003906-0.007812-0.007812-0.007812-1.7344-1.4531-3.5586-2.7031-5.1836-3.9297-0.86719-0.66016-2.0195 0.36328-1.4648 1.3047l4.25 7.2148c0.70703 1.1992 1.1953 2.5117 1.7266 3.8945 0.37109 1.1406-2.207 4.832-7.2422 8.2578-3.875 2.625-7.5195 3.8594-9.4297 3.2344-3.1094-4.5-5.7031-8.3125-9.0781-13.98-0.25391-0.42578-0.78125-0.60156-1.2422-0.41406-0.45703 0.19141-0.71094 0.6875-0.58984 1.168 1.3242 5.2695 2.1562 11.652 4.7422 16.707-0.12109 0.12891-0.29297 0.27344-0.41797 0.33594-0.72656-0.097656-1.3125-0.4375-1.6602-0.96484-3.082-4.6992-3.1602-6.1602-5.0352-11.375-0.98828-2.7422-2.0078-5.5742-2.4883-8.4102-0.57422-3.3906 0.91406-9.1406 2.7344-13.363 0.17578 0.042969 0.35547 0.070313 0.53906 0.089844 0 4.0234 1.168 8.043 3.3672 11.414 0.30469 0.46484 0.92578 0.59375 1.3828 0.29297 0.46484-0.30078 0.59375-0.92188 0.29297-1.3828-2.0391-3.1289-3.1016-6.875-3.043-10.605 1.3984-0.48828 2.7578-1.4336 3.5742-2.6992 4.0352 0.99219 7.6172 3.5078 9.8867 7 0.19141 0.29688 0.51172 0.45703 0.83984 0.45703 0.1875 0 0.375-0.050782 0.54297-0.16016 0.46484-0.30078 0.59375-0.91797 0.29297-1.3828-2.332-3.5938-5.9023-6.2852-9.9688-7.5625 3.6641-0.11719 8.6875 0.47656 11.887 2.0625 5.707 2.8281 8.8828 6.9258 12.066 10.363 2.0234 2.1836 3.9453 4.2578 5.5352 6.6953-0.45703 0.42969-1.0039 0.99219-1.2891 1.2852z"/>
 <path d="m25.352 74.938 4.4102-0.76172c0.54297-0.09375 0.91016-0.61328 0.8125-1.1562-0.09375-0.54297-0.60938-0.89844-1.1562-0.81641l-4.0898 0.70703c0.21484-1.2422-0.46094-2.3086-1.3945-3.1484-1.6875-1.5234-4.2188-3.4648-6.707-2.8008-0.78125 0.21094-1 1.2109-0.38281 1.7305 0.14844 0.125 0.32031 0.29688 0.5 0.48828-1.8828-0.57031-4.6328-0.89453-7.1758 0.70703-0.80859 0.50781-0.50781 1.7578 0.44531 1.8438 0.13672 0.011719 0.26562 0.046875 0.38672 0.10156-1.6445 0.78906-4.1211 2.3945-4.6484 5.0664-0.14844 0.75 0.5625 1.3828 1.3047 1.1406 2.2695-0.77734 4.5234-0.45703 5.7891-0.15234-0.35547 1.0859-0.35156 2.3242 0.054688 3.4141 0.29297 0.78516 1.3359 0.85938 1.7734 0.20312 0.55469-0.83984 1.2852-1.5117 2.1016-1.9609-0.16406 0.61328-0.26172 1.25-0.28125 1.8906-0.03125 1.0078 1.2852 1.4219 1.8359 0.57812 1.0977-1.6836 4.168-1.1172 5.9062-3.3516 0.85547-1.0938 1.0078-2.7578 0.51562-3.7227zm-2.0938 2.4922c-0.76953 0.99219-2.2539 1.1289-3.6016 1.6602 0.097656-0.21094 0.20703-0.41016 0.32812-0.60156 0.45703-0.71484-0.14062-1.625-0.94141-1.5312-1.3164 0.12891-2.5977 0.67578-3.6914 1.5352 0.082032-0.23828 0.1875-0.46094 0.32031-0.65234 0.36719-0.52734 0.14844-1.2578-0.44922-1.5-0.13672-0.054688-2.8438-1.1133-6.1172-0.68359 1.3789-1.6953 3.9297-2.5039 3.9648-2.5117 0.63672-0.19531 0.90234-0.94531 0.54688-1.4961-0.1875-0.29297-0.39453-0.55469-0.61328-0.78516 2.8164-0.60156 5.5859 0.99609 5.6211 1.0156 1.0156 0.59766 2.25-0.70312 1.25-2.6055 1.1602 0.57422 2.2383 1.5469 2.7148 1.9766 0.33203 0.29688 0.54297 0.55469 0.66406 0.80859 0.12891 0.26172 0.13281 0.51172 0.10547 0.56641l-0.007813 0.003906 0.35156 0.56641-0.027344 0.003907-0.39062-0.53516c-0.65234 0.37109-0.9375 0.86719-0.83594 1.4844 0.14844 0.91797 1.0508 1.457 1.1211 1.7227 0.14063 0.47656 0 1.1602-0.3125 1.5586z"/>
 <path d="m44.672 83.023c0.12109-0.054688 0.25-0.089844 0.38672-0.10156 0.95312-0.085937 1.2539-1.332 0.44531-1.8438-2.5391-1.6016-5.2891-1.2773-7.1719-0.70703 0.17578-0.19141 0.34766-0.36328 0.49219-0.48828 0.61719-0.51953 0.39453-1.5195-0.38281-1.7305-2.4844-0.67188-5.0156 1.2734-6.707 2.8008-0.93359 0.84766-1.6055 1.9062-1.3906 3.1484l-4.0898-0.70703c-0.54688-0.09375-1.0625 0.26953-1.1562 0.81641-0.09375 0.54297 0.26953 1.0625 0.8125 1.1562l4.4102 0.76172c-0.48828 0.94922-0.34766 2.6172 0.51172 3.7188 1.75 2.2461 4.8008 1.6562 5.9062 3.3516 0.55078 0.84375 1.8672 0.42969 1.8359-0.57812-0.019531-0.64062-0.11719-1.2812-0.28125-1.8906 0.81641 0.44922 1.5469 1.1211 2.1016 1.9609 0.43359 0.66406 1.4805 0.58203 1.7734-0.20312 0.40625-1.0898 0.41016-2.3281 0.054687-3.4141 1.2656-0.30469 3.5195-0.625 5.7891 0.15234 0.73828 0.24609 1.4531-0.39453 1.3047-1.1406-0.52344-2.668-3-4.2734-4.6445-5.0625zm-4.2305 4.5078c-0.59766 0.24219-0.8125 0.97266-0.44922 1.5 0.13281 0.19531 0.24219 0.41406 0.32031 0.65234-1.0898-0.85938-2.375-1.4062-3.6875-1.5352-0.8125-0.089844-1.3945 0.82031-0.94141 1.5312 0.12109 0.19141 0.23047 0.39453 0.33203 0.60156-1.375-0.53906-2.832-0.67188-3.6016-1.6602-0.30859-0.39844-0.44922-1.082-0.32031-1.5586 0.070312-0.26172 0.97266-0.80078 1.1211-1.7227 0.097656-0.61328-0.18359-1.1094-0.83594-1.4805l-0.39062 0.53125-0.027343-0.003906 0.35156-0.56641c-0.03125-0.058593-0.027344-0.30859 0.10156-0.57422 0.12109-0.25 0.33594-0.50781 0.66406-0.80859 0.47656-0.42969 1.5547-1.4023 2.7148-1.9766-0.99609 1.8945 0.23047 3.207 1.2539 2.6016 0.035156-0.019531 2.7969-1.6289 5.6211-1.0195-0.21875 0.23047-0.42578 0.49219-0.61719 0.78516-0.35938 0.55859-0.085937 1.3047 0.55078 1.4961 0.03125 0.011719 2.5742 0.83203 3.9531 2.5117-3.2734-0.42578-5.9766 0.64062-6.1133 0.69531z"/>
 <path d="m70.527 8.5547c1.1211-0.41797 2.457-0.21094 3.3984 0.53516 0.43359 0.34375 1.0586 0.27344 1.4062-0.16406 0.34375-0.43359 0.26953-1.0625-0.16406-1.4062-1.4805-1.1719-3.5781-1.5039-5.3438-0.83984-1.7383 0.64844-2.9102 2.2266-2.8477 3.8398 0.054688 1.4297 1.0703 2.793 2.5938 3.4727 2.5469 1.1328 6.0156 0.47656 16.645 0.35937 0.55078-0.011718 0.98828-0.46875 0.97656-1.0234-0.011718-0.54688-0.45703-0.97656-1-0.97656h-0.023437c-11.449 0.15234-13.945 0.63672-15.785-0.18359-0.67969-0.30469-1.3789-0.95703-1.4102-1.7266-0.027344-0.83594 0.77734-1.5977 1.5547-1.8867z"/>
 <path d="m70.383 26.449c1.5195-0.70312 2.7227-0.51953 15.789-0.39844 0.54688 0 0.99609-0.44141 1-0.99219 0.003906-0.55078-0.4375-1.0039-0.99219-1.0078-11.137 0.027344-14.176-0.55859-16.641 0.58203-1.5078 0.69922-2.5078 2.0742-2.5469 3.5078-0.039063 1.6094 1.1523 3.1719 2.8984 3.8008 1.7656 0.63281 3.8633 0.28516 5.332-0.91406 0.42578-0.34766 0.49219-0.98047 0.14062-1.4062-0.35156-0.42969-0.98047-0.48828-1.4062-0.14062-0.92969 0.75781-2.2617 0.98828-3.3906 0.58203-0.77734-0.28125-1.5977-1.0273-1.5742-1.8672 0.023437-0.77344 0.71484-1.4336 1.3906-1.7461z"/>
 <path d="m93.469 19.168c-0.007812-0.55078-0.46875-0.96875-1.0156-0.98438l-18.727 0.28906c-0.55078 0.007813-0.99219 0.46484-0.98437 1.0156 0.007812 0.54688 0.45312 0.98438 1 0.98438 0.13672 0 18.609-0.28125 18.742-0.28906 0.55469-0.007813 0.99219-0.46484 0.98438-1.0156z"/></svg>