<svg xmlns="http://www.w3.org/2000/svg" xmlns:xlink="http://www.w3.org/1999/xlink" version="1.1" x="0px" y="0px" viewBox="0 0 268 335" style="enable-background:new 0 0 268 268;" xml:space="preserve"><g fill="#F1F0EA"><path d="M233.69803,215.31174c2.91736-15.38184,11.62366-55.45605,4.7179-71.90332   c-3.13684-7.4707-11.59229-8.99219-19.64453-9.50781c1.6582-10.69238-13.30835-27.36523-50.59875-22.85449   c-3.67261,0.44434-6.54944,1.82422-9.7334,3.2207c0.60083-1.44141,0.47253-3.16992,0.39099-5.01953   c-0.16162-3.66797,1.56396-7.81152,0.31677-11.40625c-1.42065-4.09473-4.33984-8.29883-8.70667-8.36914   c3.39087-5.44727,6.50659-11.06152,8.91858-17c0.29065-0.71582-0.15173-1.31055-0.75366-1.56055   c1.14465-0.02344,2.20471-0.20801,3.10437-0.65039c0.51038-0.25,0.70068-0.88867,0.2312-1.30078   c-3.30908-2.90039-10.90601-2.36328-15.16968-2.62207c-4.84375-0.29297-11.00879-0.27051-15.24976,2.52148   c0.21118-0.12207,0.38013-0.31738,0.45068-0.59082c3.47363-13.47461,0.94873-34.65332,0.91138-47.03711   c-0.01074-3.52734,1.19775-8.07422,0.12744-11.40039c-0.02307-0.07129-0.12732-0.08887-0.18042-0.04297   c-5.8933,5.04492-0.31213,33.71094-2.89746,58.23535c-0.09436,0.89648,0.93359,1.20605,1.5769,0.84375   c-0.34534,0.22754-0.68213,0.46777-1.00012,0.73438c-0.54919,0.45996,0.06824,1.15723,0.62585,1.0752   c20.74878-3.06836,18.02051-0.27441,26.36133,0.20703c-2.75806,1.1748-7.59302,12.41797-8.04919,13.34863   c-4.71887,9.62207-7.10486,9.79883-19.48596,31.71582c-2.5686,4.5459-6.9099,10.59082-6.99755,15.98145   c-4.01636-6.3125-3.67322-3.85449-19.28418-25.83691c-4.84302-6.81836-13.12988-12.82813-15.71155-21.10645   c0.53479-2.97266-3.19287-7.50781-4.57922-10.9541c0.04736-0.0127,0.09399-0.01172,0.14136-0.03418   c4.79321-2.30469,11.00146-1.91406,16.16577-1.90234c3.08044,0.00684,7.51489,1.08496,10.32629-0.45313   c0.44653-0.24512,0.39807-0.91016-0.02087-1.14844c-0.60864-0.3457-1.32568-0.5918-2.11121-0.76563   c3.89648-9.15918,2.44934-21.10449,1.98376-30.65527c-0.67603-13.8584,1.02222-25.1377-0.14575-31.84863   c0.65356,2.15137,10.17798,0.9707,18.29101,1.79395c1.96021,0.19922,3.57202,0.91797,5.52222,0.54297   c0.64844-0.12402,1.00562-0.95703,0.5271-1.4707c-2.55212-2.74023-7.15697-2.75195-23.39013-2.28516   c-0.72485,0.02148-1.04468,0.6123-0.9895,1.17969c-0.11206-0.60938-0.24487-1.21777-0.40723-1.82422   c-0.14404-0.53906-0.96753-0.63574-1.13013-0.04883c-2.93042,10.57129-1.05225,42.66797-1.21362,49.97461   c-0.1073,4.84766-0.87769,9.54492-1.36938,14.33203c-2.93384-0.19336-6.24255,0.18457-8.51245,0.24316   c-4.73047,0.12207-10.13403,0.08398-14.25928,2.71387c-0.30835-0.99219-0.58594-1.99414-0.96533-2.97363   c-0.21033-0.54395-1.13696-0.73828-1.36877-0.08398c-1.05896,2.98633,0.69458,5.82813,2.16052,8.38477   c1.21545,2.12012,2.28186,4.48145,3.5282,6.62891c-0.03088,0.56934,0.17981,2.33789,0.74658,4.18652   c-4.22473-0.69629-9.25525,4.34277-10.2511,7.9541c-1.24487,4.51367-3.00073,16.45215-2.0791,20.79492   c-4.40747-1.52051-9.79614-1.16895-14.23804-1.22559c-5.4325-0.06934-11.75562-1.34961-17.02026,0.27148   c-18.1571,5.5918-17.13477,31.39551-15.50366,89.34863c0.27124,9.63477,0.26123,34.47461,3.90234,43.08398   c-0.0907,0.6416,0.28687,0.91504,0.51465,1.13184c0.36963,0.75195,0.78271,1.4873,1.25146,2.19922   c0.33276,0.50586,0.96924,0.36621,1.28467-0.01855c29.14087,22.81348,94.54565,3.79102,129.54395,3.85352   c23.26099,0.04297,51.30762,4.44824,62.13965-14.88574C230.78885,233.26877,232.06546,223.92014,233.69803,215.31174z    M34.63224,248.64377c-0.2793-0.14746-0.55859-0.29688-0.83765-0.44824c-2.36401-7.87109-3.07324-28.81641-3.07178-36.9668   c0.0105-55.35352-3.83179-79.35059,9.08521-89.82422c7.24609-5.87402,22.60864,0.03125,36.60913-1.51074   c0.64209-0.07031,0.91174-0.88379,0.61133-1.38672c0.49902-1.24414,0.28308-2.92383,0.31201-4.14844   c0.09912-4.20801,1.62-8.21973,2.24402-12.36816c0.38086-2.53223,0.48083-5.62598,2.43616-7.53418   c1.78406-1.74219,4.51758-0.91895,6.63232-1.84766c3.17517,5.7207,8.66016,10.47168,12.50757,15.63086   c6.39075,8.57031,12.29565,19.44531,21.07397,25.81445c0.71631,0.52051,1.80371-0.37695,1.33252-1.16797   c-0.07666-0.12891-0.1615-0.25195-0.23975-0.37988c2.62317-1.04883,7.07726-11.25977,8.47094-13.71582   c7.96472-14.03906,10.86267-17.12402,17.25977-27.11133c1.14404,0.4668,2.36548,0.6084,3.55737,1.18555   c1.22925,0.59473,2.00098,3.59668,2.49829,4.72363c2.51709,5.7041-2.96167,12.83105,0.13647,18.41016   c0.19092,0.34375,0.60608,0.54102,0.99512,0.50293c2.11694,0.7998,4.81238-0.27051,6.26526-0.82129   c3.96619-1.50195,8.67542-1.38965,12.87048-1.62207c13.61426-0.75391,29.98242,1.26367,37.60107,12.56543   c0.82898,1.22949,2.36133,2.81445,2.81787,4.26074c0.26245,0.83105,0.15894,1.85449,0.08716,2.87109   c-22.81641-0.88086-55.56763,5.54688-85.93701,5.30664c-23.73388-0.1875-62.3474-5.2207-74.28588,23.01855   c-5.51575,13.04785-10.24341,26.8457-14.35181,40.39941C36.78519,217.41525,33.78031,233.00314,34.63224,248.64377z    M168.12881,252.15451c-44.00463-0.74512-90.62841,18.27441-132.24182-2.86035c1.35437-34.2832,9.43347-51.84863,21.00256-83.47559   c11.48633-31.40332,50.26453-22.68652,83.61205-23.62793c23.29541-0.65723,42.97925-4.42871,68.81006-4.66211   c23.39404-0.20996,27.05884,2.39063,27.17139,22.41895c0.08325,14.80566-2.11206,29.15918-4.84106,43.6709   c-1.90771,10.14453-3.19543,20.67871-6.53992,30.4834C217.27872,257.0383,187.24673,252.47775,168.12881,252.15451z"/></g></svg>