<svg xmlns="http://www.w3.org/2000/svg" xmlns:xlink="http://www.w3.org/1999/xlink" version="1.1" x="0px" y="0px" viewBox="0 0 268 335" style="enable-background:new 0 0 268 268;" xml:space="preserve"><g fill="#F1F0EA"><path d="M11.02965,171.03426c0.8999,11.94312,1.41528,24.19067,3.96484,35.92456   c2.14783,9.88428,10.05542,15.34375,19.39331,17.59229c10.7561,2.58984,21.90088,0.6394,32.79297,1.10449   c7.71558,0.3291,15.21216,2.38208,22.89575,2.91699c17.61279,1.22583,57.52197-1.17627,73.06299-1.40479   c15.5769-0.22925,31.29224,1.95752,46.81689,0.24902c10.63916-1.1709,24.70557,0.98438,33.4751-6.56958   c12.62868-10.87891,8.72559-29.65601,9.94336-43.44775c1.3125-14.86206,8.40431-45.67603,9.79201-65.92896   c1.50049-21.8894-5.30566-24.28076-17.05666-23.31226c0.85815-9.64941,1.22217-20.79517-8.31543-26.28442   c-17.5083-10.07715-57.47632-6.20776-83.16016-4.71558c-6.85571,0.39844-13.67456,0.09814-20.52686,0.20483   c-6.41797,0.1001-0.58423-9.33252-7.37329-13.99854c-6.54053-4.49609-9.02417-1.33374-57.16382-4.0166   c-9.9126-0.55298-19.86816-1.104-24.15381,7.80103c-1.84375,3.83179-0.82813,8.51392-2.76123,12.3269   c-1.7688,3.48877-10.32544,0.83765-13.46899,0.85254c-4.17236,0.01953-8.72449,1.36523-10.81445,5.30054   c-2.15503,4.05713-3.48511,11.15894-2.34558,16.76392c-0.08838,1.82129-0.3739,3.8728,0.20398,5.62793   c-1.90283,0.3208-4.35938,1.1001-6.43066,2.32715c-0.47241-0.06958-0.63965,0.29248-0.78003,0.49561   c-1.83203,1.25757-3.21094,2.90869-3.37,4.94214c-3.35193,8.10669,2.58362,23.83228,2.89075,39.64502   C8.54271,135.53841,10.96141,170.12874,11.02965,171.03426z M238.18736,219.52058   c-0.08203,0.03662-0.16235,0.07642-0.24512,0.11206c0.08521-0.0415,0.1687-0.08521,0.25488-0.125   C238.19371,219.5118,238.19078,219.51643,238.18736,219.52058z M239.63683,216.58504   c-0.14136,0.13184-0.28467,0.26221-0.42798,0.39233c0.17358-0.22266,0.34277-0.45483,0.51001-0.69092   C239.69029,216.38606,239.6649,216.48543,239.63683,216.58504z M19.45311,74.27791   c1.87146-16.698,16.36169-4.52539,24.9779-9.54346c7.39429-4.30688,0.74097-17.28687,11.22852-20.15527   c5.55469-1.51904,12.06421-0.40649,17.70435-0.08691c14.49072,0.82104,28.92188,0.82935,43.41089,1.15894   c11.57788,0.26392,8.21973,6.55444,9.20923,11.45435c0.89722,4.44116,5.63794,5.31396,9.3855,5.24561   c7.05884-0.12891,14.06787,0.10913,21.13232-0.30127c12.83447-0.74585,36.62695-3.49194,69.43164-0.65649   c3.80591,0.3291,7.45166,0.21851,10.67871,2.52246c10.07422,7.19287,7.67554,15.8811,7.53589,24.4231   c-1.7395,0.18823-3.48218,0.42358-5.22388,0.65234c-0.87207-7.99829,3.00928-13.39087-6.90137-18.25366   c-8.39111-4.11792-18.08862-0.98877-26.79858,0.04614c-53.38745,6.34302-93.12183,1.15161-102.85571,1.15894   c-31.5835,0.02344-52.25635-7.33984-63.49805-0.45166c-6.11816,3.74878-5.23169,8.75537-5.34766,15.16479   c-3.89941,0.24585-8.6792,0.41284-13.21643,0.86401c-0.01917-0.05908-0.02649-0.11572-0.06274-0.17749   C18.14269,83.76717,19.01378,78.19783,19.45311,74.27791z M47.45299,71.15974c14.29297-1.49951,17.58594,3.32959,60.05859,4.77441   c9.19971,0.31299,18.31177,1.67114,27.53271,1.8916c19.79126,0.47339,49.60449-0.26245,72.46655-2.82764   c7.02832-0.78882,20.56543-4.67139,26.3728,2.45996c2.32373,2.85327,1.39502,8.38037,1.81665,11.92993   c-21.17993,2.38867-44.32373-3.67383-76.89795-2.76147c-16.83105,0.47119-33.52002-0.11377-50.3457-0.34351   c-20.1936-0.27588-40.3877,0.29028-60.57983,0.44189c-10.49561,0.07861-6.51953-0.56445-13.33765-0.13281   C34.81602,77.84798,32.71715,72.70564,47.45299,71.15974z M10.27599,95.36678c1.33008-1.91113,4.11206-2.85083,6.71802-3.70483   c3.11401-0.42749,6.2937-0.2627,9.42627-0.32935c3.91455-0.0835,68.1814-0.5979,74.72681-0.57959   c16.21509,0.04492,32.39575,1.17578,48.60938,0.73706c16.98901-0.45947,33.8562-0.60278,50.78052,1.26758   c14.50342,1.60303,29.41235,1.92261,43.76245-0.88721c6.06104-1.18701,13.03127-2.24023,15.89601,4.71289   c3.17041,7.69482,0.74658,19.43066-0.47485,27.33545c-1.04614,6.77295-2.29761,15.87158-7.73683,36.46606   c-0.36426-0.22729-0.86572-0.20581-1.04834,0.29907c-5.80151,16.03931-3.65088,33.90967-10.64648,49.72339   c-6.10352,13.79663-19.50293,11.36743-29.26025,12.23853c-15.46338,1.38184-31.07739-0.15381-46.58984-0.07104   c-20.979,0.11206-44.28369,2.59082-70.86328,1.81274c-8.92529-0.26123-17.63892-2.63354-26.56836-3.08008   c-7.34204-0.36694-14.5542,0.60229-21.79883,0.52759c0.68628-5.79321-9.40234,7.11841-27.35461-32.31714   c-0.89111-3.47119-1.78162-6.94312-3.05334-10.31104c-0.84521-8.99341-1.18433-18.05347-2.2561-27.01611   c-0.36206-4.3457-1.29272-8.68896-1.7771-12.98584c-0.62878-5.57715-0.34009-11.11816-0.47424-16.70825   C9.96129,108.6805,6.14415,101.30403,10.27599,95.36678z"/><path d="M62.79308,145.06477c4.29175,5.66113,8.11548,11.66992,12.30933,17.40405   c10.14502,13.87061,15.33447,13.27588,21.66748,17.25781c2.08203,1.30908,3.83203,3.06714,5.875,4.43286   c0.39331,0.26318,0.91553-0.18018,0.61279-0.59229c-7.94043-10.81665-12.95898-4.63037-26.75122-22.43018   c-4.28906-5.53564-8.23657-11.32227-12.51245-16.86694c-3.85474-4.99854-9.37207-8.48389-12.5813-13.98438   c-0.25562-0.43799-1.01343-0.00122-0.77173,0.44556C53.66417,136.32014,58.99181,140.05061,62.79308,145.06477z"/><path d="M67.27965,174.81892c-3.98633-6.47217-10.18604-11.10278-14.15698-17.56201   c-0.4939-0.80347-1.90771,0.03247-1.43237,0.84839c3.5896,6.15869,8.9043,10.94409,12.94238,16.76733   c1.7356,2.50317,3.1084,5.07813,5.24585,7.28101c2.60181,2.6814,5.80908,4.7749,8.44604,7.44751   c0.44336,0.44946,1.23071-0.0564,0.92334-0.64014C76.42564,183.60237,72.20006,182.80745,67.27965,174.81892z"/></g></svg>