<svg xmlns="http://www.w3.org/2000/svg" xmlns:xlink="http://www.w3.org/1999/xlink" version="1.1" x="0px" y="0px" viewBox="0 0 268 335" style="enable-background:new 0 0 268 268;" xml:space="preserve"><g fill="#F1F0EA"><path d="M113.66269,153.65224c3.79663,2.80176,11.63843,10.72754,16.49951,5.71289   c1.55591-1.60547,3.10254-3.23633,4.84668-4.64258c1.65063-1.33203,6.73877,1.66699,8.46973,2.35449   c4.74146,1.88574,3.58472-0.52148,4.95361,12.90039c0.22998,2.25781,4.96118,0.21484,18.16089,1.62891   c2.67456,0.28711,4.56763-0.55469,6.22998-2.60059c2.15869-2.65625,1.57739-6.18945,2.96948-9.05566   c1.06787-2.2002,5.27222-3.30078,7.29199-4.23242c2.40967-1.11133,4.74854-2.3125,6.97241-3.75488   c2.3313,2.32422,4.80566,4.47754,7.5166,6.3623c0.26514,0.18457,0.70386,0.19238,0.97632,0.02051   c7.06494-4.46191,13.49243-10.91895,17.66309-18.16504c0.32642-0.56738,0.27905-1.44434-0.36963-1.79199   c-1.38232-0.73926-2.6167-1.7998-3.84863-2.75879c-4.24829-3.30664-5.03906-3.7041-1.17578-8.89356   c1.88892-2.53906,2.82861-8.33301,6.19727-9.20703c4.23975-1.10059,9.03638,2.91113,9.98877,0.2998   c2.61157-7.16211-0.09473-15.33594-0.24756-22.70996c-0.05103-2.48438-6.09399-1.50781-8.52344-1.0498   c-5.70703,1.07715-6.77832-3.875-7.84473-8.07715c-0.92529-3.64551-4.62134-8.2832-0.87842-11.83008   c4.58569-4.34375,10.63135-5.93848,8.89136-8.09375c-3.2749-4.05957-7.31665-7.1377-11.62451-10.02539   c-3.3877-2.27148-6.37134-4.99414-10.64722-4.21387c-4.13184,0.75488-6.26978,6.45117-10.6123,6.06152   c-4.62012-0.41309-8.85449-4.77441-13.53833-3.93945c2.40527-4.2207,4.21118-10.83691-0.10767-14.00586   c-5.75781-4.22461-15.91602,0.51074-22.06079,1.26074c-6.10034,0.74414-2.02295,9.3623-3.95068,12.47168   c-2.13428,3.44238-10.23926,4.58789-12.18823,5.95898c-0.77734-3.54199-5.66748-7.62207-8.74121-8.17969   c-2.3064-0.41895-6.49463,3.12012-8.37549,4.31055c-3.82764,2.42383-7.1521,5.56445-10.26807,8.82617   c-2.58716,2.70508,4.86377,7.32715,7.58496,11.66602c2.65503,4.2334-4.15649,12.3418-6.69727,17.11035   c-4.08325-0.10352-10.40088-2.46484-12.08911,2.5c-1.99097,5.85645-2.95728,18.3584,1.87305,23.0498   c0.22046,0.21387,0.55005,0.01758,0.5564-0.25781c0.14136-6.06836-1.76685-4.00684-0.57031-17.99414   c0.61914-7.23926,3.50464-3.0625,11.39624-3.74316c0.58154-0.0498,1.28223-0.34375,1.52002-0.93359   c2.2207-5.50684,6.35767-10.02344,7.8313-15.84375c1.04834-4.14063-1.94092-7.26465-4.7002-9.83008   c-2.72949-2.53711-4.53052-3.60254-1.27417-6.70996c3.14844-3.00391,6.79761-5.54199,10.65332-7.53906   c2.62476-1.35938,1.55127-1.55859,3.9519,0.11035c2.30737,1.60352,3.27197,4.27539,5.39111,5.96973   c0.77124,0.61719,1.67725-0.03516,1.95386-0.7959c2.66089,0.44824,8.38501-2.62305,10.31128-3.50098   c9.50684-4.33691,0.10718-13.27539,7.59204-13.99805c3.29175-0.31738,6.5647-1.19336,9.8269-1.73242   c4.89453-0.80957,11.15674-0.48828,9.26514,6.04004c-0.64941,2.24121-1.61694,4.125-1.41772,6.49316   c0.09229,1.09766,1.39502,1.37988,2.05005,0.41895c5.66797,1.24219,11.95093,7.46191,17.79199,4.76074   c3.08936-1.42871,6.53711-8.05859,13.52393-3.29199c4.44043,3.03027,8.7561,6.11621,12.35986,10.10156   c-11.75757,8.35156-11.00122,9.63867-7.7356,18.98438c1.34741,3.85645,1.53931,8.55957,5.51123,10.72656   c3.32593,1.81445,7.45239-0.16113,11.07935,0.18945c0.41895,5.8916,1.32642,6.29102,1.42822,15.35938   c0.02246,2.00098,0.4751,4.26465-1.70825,3.88184c-11.75342-2.05957-9.7627,0.70801-17.01514,12.99317   c-0.67041,1.13574-1.4585,3.52344-0.60571,4.80957c1.57861,2.38086,4.74487,4.83691,7.42725,6.38184   c-2.25537,3.81152-5.05957,7.2334-8.16602,10.39551c-1.47876,1.50488-5.91699,6.71191-7.89697,5.45801   c-2.67529-1.69336-4.98486-3.87305-7.07104-6.2373c-0.70874-0.80273-1.9292,0.16113-1.48706,0.97168   c-18.33081,5.66504-15.17969,9.4541-16.98462,14.92383c-1.23926,3.75391-3.87915,3.82617-7.14966,3.4541   c-4.64282-0.5293-9.33545-0.18652-14-0.20605c-1.55664-12.14746-0.72998-12.41211-1.98438-12.58691   c-3.56299-0.49414-6.65845-2.18164-10.04224-3.28809c-3.50562-1.14648-3.90918-1.34375-9.43994,4.34082   c-3.92505,4.03418-9.82666-1.72168-12.99683-4.33008c-2.70972-2.23047-9.07104-5.31738-6.21582-9.89063   c3.27246-5.24219,10.44458-7.81641,3.26782-25.76173c-0.19946-0.49902-0.74878-0.81445-1.27954-0.7373   c-4.7417,0.69531-9.66113,0.06348-14.09668,2.16113c-1.38062,0.65234-0.56177,2.76758,0.88208,2.21387   c3.54712-1.36133,11.90332-3.60645,13.76343,0.51563c3.06616,6.79591,1.67188,12.66602-2.84399,18.20509   C104.4498,145.90224,107.81357,149.33485,113.66269,153.65224z"/><path d="M154.4371,80.00282c-13.50732-0.95996-21.63013,13.60352-22.30884,25.24609   c-0.75659,12.98145,6.78198,25.35743,19.68652,28.54884c19.14282,4.7334,37.26636-7.54981,38.05713-27.49708   c0.35913-9.05566-3.78394-17.85156-11.64893-22.49902c-6.31079-3.72949-15.94458-5.28906-23.24219-2.66211   C155.1954,80.69715,155.01035,80.04383,154.4371,80.00282z M173.96982,86.14539   c8.66577,3.30859,12.38525,12.35938,11.97095,21.10059c-1.46729,30.95899-52.97974,34.08887-50.29907-3.72266   c0.38086-5.36816,2.4248-10.62402,5.85693-14.75977c3.05029-3.67676,7.02539-5.23535,11.29834-6.66797   c-0.37866,0.19727-0.75635,0.39648-1.11572,0.62207c-1.39868,0.87695-0.22217,3.18359,1.28955,2.85742   C160.23349,84.00867,166.86288,83.43153,173.96982,86.14539z"/><path d="M234.22421,219.53798c1.89404-1.08789,3.56665-2.44727,5.52588-3.44727c5.65894-2.8877,9.46777,4.27734,10.91211,2.43359   c4.53101-5.78516,9.52686-10.85352,12.51367-17.67871c0.30371-0.69531-0.22095-1.3584-0.81128-1.63379   c-2.177-1.01855-4.07251-2.24707-6.31665-2.94141c1.01807-5.3877,0.94824-10.84082-0.28418-16.18262   c3.69824-0.9668,7.43262-1.98047,6.42456-3.99121c-2.83765-5.65723-6.45605-10.84277-9.51074-16.37695   c-0.26831-0.48633-0.91406-0.875-1.4834-0.68359c-1.76465,0.59375-3.39038,1.2207-5.03882,2.07227   c-1.85059,0.95605-5.95117-2.15723-7.65527-2.94531c-1.06396-0.49121-5.57886-1.14746-5.72656-2.39648   c-0.27832-2.35352-0.6123-4.64063-1.18091-6.94043c-0.10938-0.44238-0.63965-0.81934-1.09668-0.75781   c-13.35962,1.79199-17.90259,1.37793-17.63379,5.51465c0.31128,4.78613-2.60278,6.13379-6.42114,8.1377   c-8.14307,4.27344-8.22705,3.44336-13.71606-0.98145c-0.3396-0.27344-0.95532-0.20117-1.19019,0.18262   c-2.16846,3.53613-12.00977,13.86816-9.98828,15.47461c2.64404,2.09863,5.52393,3.3877,8.56665,4.79395   c-0.56006,5.58301,1.80176,11.20703-3.44946,15.52637c-3.53418,2.90723-2.46313,5.60156-0.19434,9.22266   c1.46411,2.33594,5.14697,11.18945,8.74854,10.8623c2.31519-0.21094,4.65576-1.21484,6.9668-1.61719   c2.47241-0.42969,7.18457,2.16504,10.18311,3.08594c-0.58008,3.34961-1.06372,6.7002-1.37646,10.08984   c-0.06592,0.71191,0.33594,1.29395,1.0918,1.30957c6.6709,0.13184,13.32104-0.92578,19.95776,0.10645   c0.59131,0.0918,1.34863-0.39941,1.34985-1.04688C233.39389,226.61513,232.23642,220.67958,234.22421,219.53798z    M230.9791,227.23524c-5.92212-0.6084-11.8252,0.19727-17.76563,0.26758c0.86475-9.79199,2.1084-10.66211,0.5791-10.98242   c-3.78931-0.79395-8.69531-4.34668-12.68457-3.38184c-1.99585,0.48242-4.03711,0.72266-5.99829,1.33984   c-0.67456,0.21191-4.12476-5.46387-4.65698-6.35645c-1.21143-2.03223-5.51221-6.83887-3.05762-9.05957   c1.26123-1.14063,2.646-2.07324,3.54858-3.5625c3.14526-5.18945,0.02832-10.58008,1.75732-16.02246   c0.43555-1.37109-1.61084-2.34863-2.05493-0.95508c-0.11572,0.3623-0.20898,0.72656-0.28809,1.0918   c-5.54858-3.08398-8.04199-3.88281-3.75537-9.48438c1.89185-2.4707,3.8772-4.87207,5.70947-7.38867   c2.74609,2.82227,4.93994,4.6084,9.22461,3.48828c3.81982-0.99902,7.9917-3.57031,11.16455-5.8457   c2.14624-1.53906,2.44751-4.35059,2.16846-6.77441c-0.29077-2.52734,7.34888-2.28711,9.07056-2.50977   c1.6748-0.21582,3.3479-0.44434,5.02319-0.65723c1.37598-0.1748,1.52466,6.52051,1.59595,7.31836   c0.04932,0.55176,0.53711,0.96484,1.0603,1.04199c7.46191,1.10059,13.19556,6.95703,14.72876,5.75391   c1.53223-1.2002,2.88062-1.88086,4.57544-2.56348c2.81689,4.67871,5.6543,9.35254,8.20361,14.18262   c-3.61816,1.63379-6.78052,1.28125-6.25415,3.24805c1.51733,5.66895,1.48706,11.68457,0.73901,17.47852   c-0.08105,0.62891,0.29663,1.18945,0.92578,1.31934c2.11768,0.43652,3.87402,1.75977,5.74268,2.79688   c-2.56201,5.75391-6.56201,10.54297-10.53809,15.38086c-5.3667-3.88574-9.28516-3.83105-15.10645,0.10547   C231.94101,218.32802,230.88681,216.52333,230.9791,227.23524z"/><path d="M223.35947,172.55946c-0.58496,0.2793-0.28589,1.02734,0.17847,1.21094   c4.29712,1.70117,12.64136,0.62598,13.70386,11.92969c0.68384,7.27734-3.95386,14.53223-10.82275,16.86133   c-8.60449,2.91797-16.04102-3.20898-17.15332-11.57031c-1.30054-9.77734,5.01587-17.54004,14.46729-19.31152   c0.18579-0.03516,0.14746-0.27637-0.01611-0.30957c-21.14307-4.32715-24.21704,35.75977-0.0896,34.82813   c9.81201-0.37988,16.4541-9.66406,16.71118-18.86719C240.56528,179.19911,232.57333,168.162,223.35947,172.55946z"/><path d="M26.94589,206.23036c1.40747-1.4375,2.39185-3.14258,3.52197-4.79688c2.97314-4.35254,9.34009,0.27441,12.5708,1.33789   c13.25928,4.36133,10.65796-0.41504,10.93896,11.58594c0.01343,0.56641,0.58203,1.11816,1.16406,1.03906   c9.33423-1.26758,18.90649-1.47266,27.90723-4.50293c1.89429-0.63574-0.08008-2.24121-1.93555-7.49805   c-1.24121-3.51758,2.50757-6.24609,4.6167-8.46777c1.58447-1.66895,2.93164-3.56738,4.41699-5.32324   c6.14868-7.26953,13.01318,3.07129,13.92969-0.81543c1.98218-8.41211,8.21484-15.12402,10.40039-23.52344   c1.39355-5.35547-5.01343-4.64063-8.71924-4.47949c-0.30103-15.04199-7.88208-19.1123,0.51514-25.27441   c0.51172-0.375,0.61011-0.95313,0.32227-1.50195c-3.67944-7.01661-11.81348-10.15137-15.35059-17.21485   c-0.43286-0.86426-1.40063-0.96191-2.05273-0.28418c-1.17139,1.2168-2.21826,2.48047-3.23682,3.8252   c-1.92773,2.5459-4.71509,0.71191-7.06812,0.07129c-10.70142-2.91113-10.86353-1.29004-12.81543-8.31152   c-2.4812-8.92383-11.15649-5.21973-17.97168-5.0918c-6.83276,0.12695-12.10425,2.29883-10.45776,9.99805   c1.15771,5.41406-2.40625,8.04199-5.93652,11.4502c-5.53296,5.33984-6.98633,6.62402-13.34253,2.57227   c-0.75574-0.48145-1.5481-0.05371-1.84644,0.56641c-0.9408-0.34473-1.61646,0.05371-1.85693,0.72852   c-2.76672,7.77148-8.50049,14.13086-9.90808,22.41504c-0.12024,0.70801,0.43616,1.19727,1.05249,1.35156   c4.01672,1.00293,9.10217,0.1084,9.7135,5.67578c0.2959,2.69434,0.0166,5.33789,0.66724,7.99414   c1.06873,4.3623,2.51416,7.83594-1.15418,11.4541c-1.9657,1.93848-4.12073,3.50391-5.66785,5.82715   c-0.25415,0.38184-0.13916,0.87109,0.14111,1.19531c5.25696,6.08203,11.02246,11.7041,16.08252,17.95703   C25.90659,206.58485,26.59921,206.58388,26.94589,206.23036z M20.8895,197.87392   c-8.26843-8.97656-10.62769-9.72656-6.41333-13.37695c2.28882-1.98242,5.75049-4.35352,5.6167-7.81836   c-0.15271-3.96191-1.9043-7.54785-2.03076-11.51758c-0.07678-2.41309,0.37463-6.54297-1.67554-8.39355   c-2.51245-2.26758-5.83704-2.25-9.00842-2.81738c1.59558-7.17383,6.55798-12.97266,9.30274-19.72754   c2.03687,0.45605,3.9928,0.96094,5.79663,2.20898c0.4845,0.33496,0.96692,0.11621,1.1886-0.2627   c3.9126,0.42676,8.49121-4.27637,11.58887-7.44141c2.14844-2.19434,4.56348-4.5293,5.30347-7.58399   c0.9856-4.06543-5.10913-11.06641,6.5249-11.82227c6.2207-0.4043,15.9729-3.88965,17.1272,5.23828   c0.71851,5.68555,6.92871,6.30371,12.80713,7.72754c2.03882,0.49316,4.64917,2.01953,6.86719,1.8457   c2.80493-0.2207,4.4021-2.74121,6.0813-4.86914c3.83325,5.86621,10.62939,9.06153,14.29053,15.05567   c-2.4939,1.91504-4.95972,4.22266-4.39893,7.66211c1.10278,6.76465,3.93018,12.85156,3.84546,19.87598   c-0.02344,1.95898,3.44629,0.44141,7.94946,1.05957c3.948,0.54395-6.97485,16.9375-9.35107,23.99414   c-2.81104-1.6416-5.60815-3.38672-8.98047-2.80078c-3.03149,0.52539-5.68066,4.83105-7.38745,6.99023   c-2.38062,3.00977-5.96143,5.60059-7.27344,9.29297c-0.93066,2.62012,1.31323,6.10938,2.54443,8.70117   c-8.22559,2.04102-16.67114,2.76367-25.0498,3.94141c-0.29956-14.46191,3.50098-5.95215-18.77368-14.77246   c-2.95435-1.16895-5.30981-1.1748-7.68823,1.06641c-1.1665,1.09961-1.95557,2.73242-2.82764,4.05957   C26.19809,204.40517,21.47885,198.51357,20.8895,197.87392z"/><path d="M62.8956,182.8788c16.19507-2.97266,25.48633-24.59668,12.82324-38.1416   c-4.40698-4.71387-13.71191-8.63672-19.93481-6.25488c-0.82397,0.31543-1.08325,1.49023-0.20239,1.94336   c4.76709,2.45313,10.19897,2.26074,14.83252,5.34375c9.9873,6.64551,9.5564,24.37012-3.67285,31.42871   c-10.57715,5.64453-26.56934,0.31543-30.09131-11.44043c-3.25708-10.87207,7.42236-30.37695,20.4314-27.95313   c0.42993,0.08008,0.71851-0.5498,0.34033-0.79883c-11.84985-7.80078-24.27173,13.09375-25.23389,22.51074   C30.48081,176.22353,48.38779,185.54189,62.8956,182.8788z"/></g></svg>