<svg xmlns="http://www.w3.org/2000/svg" xmlns:xlink="http://www.w3.org/1999/xlink" version="1.1" x="0px" y="0px" viewBox="0 0 268 335" style="enable-background:new 0 0 268 268;" xml:space="preserve"><g fill="#F1F0EA"><path d="M51.53235,238.17213c0.34204,7.29443,4.83618,14.0791,11.34985,17.3623c3.86548,1.94826,8.24341,2.52052,12.4939,3.00587   c5.72266,0.65381,11.41455,1.65771,17.13989,2.2251c11.1748,1.10693,22.5365,1.17627,33.75574,1.07275   c41.96492-0.38788,39.75549,3.86285,65.15759,0.63428c13.27722-1.68799,28.20264-5.09229,31.42358-20.12697   c2.58192-12.05112-4.22707-18.37341-16.34229-20.875c-1.43726-9.10107-2.80188-18.50244-5.80713-27.2168   c-9.58203-27.7831-11.86763-36.16402-24.44873-51.37158c-2.47314-2.98975-6.77185-9.30811-11.35742-10.59961   c12.0127-7.10693,21.3418-21.14014,25.94739-33.29492c3.06677-8.09326,5.37122-16.64258,7.771-24.96191   c4.16452-14.43676,4.94623-27.3323,4.42468-28.65088c7.94116-1.1416,16.26062-4.0625,19.43213-12.06299   c3.6554-9.22071-0.0647-19.10693-8.87988-23.44629c-8.60187-4.23415-15.10019-2.85615-40.45923-4.27539   C153.0304,4.46559,132.83435,5.4905,112.7074,4.71706c-9.85315-0.37891-19.68896-0.65186-29.54321-0.08057   c-8.89905,0.51563-17.68982,1.22266-26.61597,1.06934c-1.49609-0.02588-1.88135,2.1001-0.32605,2.36035   c11.72437,1.96191,24.1781-0.15771,36.00476-0.31445c14.47998-0.19141,28.96667,0.77637,43.45068,0.84277   c14.54114,0.06689,29.07324-0.2251,43.60547,0.39795c16.54773,0.71029,26.72916-0.33744,34.66992,4.69922   c9.53296,6.04736,8.44019,20.65625-1.47046,25.66846c-9.22754,4.6665-21.50781,3.71631-31.49341,3.90088   c-29.44226,0.54395-58.85889-2.08105-88.27588-1.27002c-11.26721,0.31055-24.29443,3.46582-35.12305-0.67188   c-6.77148-2.58789-10.3407-8.76074-10.3916-15.93994c-0.02148-3.04199,4.03979-18.12744,9.61462-15.15869   c0.32935,0.17529,0.7511-0.27979,0.48804-0.57715C51.9259,3.56618,44.98975,18.37038,44.38391,22.4236   c-1.63351,10.92706,4.71,21.05488,17.94043,23.35401c-2.6748,8.34717,2.18896,18.21338,4.56445,26.20898   c3.87158,13.03125,7.30725,25.80566,14.41919,37.54834c6.0767,10.0336,14.46798,18.37095,26.00916,24.87207   c-19.99191,5.28136-45.65989,54.27841-38.52917,82.64893c0.19946,0.79346,1.29675,0.5415,1.46582-0.11865   c3.46333-13.53275-1.03416-24.2392,10.86572-48.02539c3.0675-6.13086,6.43408-12.13867,10.55298-17.63477   c5.07642-6.77344,10.78833-11.27783,17.79785-15.71338c5.86108,2.99121,13.43579,5.49658,17.65845,0.85498   c0.71606-0.78662-0.16296-2.07129-1.13208-1.92334c-4.73071,0.72217-7.97449,1.12695-12.62646-0.77051   c-4.04407-1.64941-7.75977-4.04102-11.3313-6.53027c-8.64722-6.02588-15.08582-13.92432-20.07495-23.16162   c-5.51013-10.20117-8.43652-21.1792-11.6543-32.24023c-2.32385-7.98828-6.83716-17.12207-6.25903-25.74951   c10.86401,1.46094,22.51453-0.70703,33.32837-0.78271c27.19927-0.18956,70.81926,3.35966,102.16895,0.51416   c-0.31407,0.90191,0.08691,1.98496-0.67554,8.59326c-0.05603-0.5293-0.1239-1.05713-0.20703-1.58301   c-0.05713-0.36182-0.62988-0.47803-0.6947-0.05518c-1.30188,8.4873-3.44739,16.47558-6.5907,24.10937   c-0.10156-0.05762-0.20728-0.11133-0.31055-0.16699c0.11771-1.94693-1.19853-2.07252-2.24963-1.04297   c-26.64705-10.6583-48.63017,0.17918-52.83667,13.16211c-14.05928-3.67205-20.64592-12.46533-35.81506-10.26758   c-3.88159,0.56201-12.87305,2.60059-14.03198,7.41504c-6.53965-16.89256-7.56962-28.87605-11.80615-37.92675   c-0.37505-0.8023-0.18428,4.40467,4.4856,22.14941c1.77441,6.74268,3.76563,13.46533,6.47852,19.89697   c5.3833,12.76172,13.54395,24.14941,25.401,31.60742c31.62521,19.89081,64.95317-6.15177,81.75745-39.7915   c0.00806,0.00244,0.01587,0.00537,0.0238,0.00732c-6.48753,22.5755-11.43083,34.24535-36.34485,52.59521   c-0.71045,0.52295-0.11987,1.57227,0.69678,1.33936c1.94385-0.55469,3.83704-1.30713,5.67456-2.22363   c4.30156,4.77815,4.55467,2.96632,14.01367,15.82471c7.54408,10.25516,10.44307,18.60551,13.50781,26.97656   c-6.97168-5.43359-18.44641-4.28125-26.42725-1.97559c-7.5144,2.1709-18.50244,5.74805-20.97217,14.02979   c-0.06641-0.01904-0.1333-0.03809-0.19958-0.05713c-23.01772-6.65094-33.11674-10.64479-54.36865,9.58984   c-4.14539,3.94678-14.98584,14.33203-9.33801,20.78271c-7.08887,0.88574-14.87817,2.57959-21.36353,6.07861   c-0.70341-0.78792-2.9341,1.35672-3.56592,2.21045c-1.07446,0.76807-2.09351,1.60205-3.04419,2.5083   c-0.33447,0.31885-0.04419,1.03125,0.44556,0.77197c0.41248-0.21875,0.82764-0.42383,1.24219-0.63232   C51.49622,232.39333,51.41064,235.57643,51.53235,238.17213z M148.49463,78.79225   c11.0273-6.04482,25.78983-4.98695,36.85291,0.09424c-5.70268,4.97875-11.82849,6.93358-20.28418,9.38818   c-9.13989,2.65332-18.47437,2.94971-27.41553,0.91846C141.13306,85.38649,143.70935,81.41579,148.49463,78.79225z    M87.21924,88.66774c2.22229-8.66553,17.96472-8.81885,24.76294-6.6333c5.61157,1.8042,10.46985,5.26953,15.76379,7.76953   c22.63441,10.68855,56.05536-1.64794,61.69849-9.03809c0.05737,0.0249,0.11462,0.05176,0.17212,0.07617   C162.07021,139.96059,108.77305,140.16982,87.21924,88.66774z M167.33325,177.46852   c6.29602-1.17969,13.52844-1.11621,19.68616,1.29688c-4.3987,8.44579-7.81824,13.03154-18.50745,13.83154   c-8.13672,0.60889-16.39661-1.44385-24.21619-3.66992C148.21155,181.90211,160.16589,178.81129,167.33325,177.46852z    M116.82117,222.22633c29.90524,1.66737,44.91977-0.44989,58.74683,0.33887c5.99036,0.3418,11.46985,2.43164,17.3186,3.0874   c1.39453,0.15625,2.38684-1.87158,1.31909-2.84082c-6.93376-6.29546-25.99464-5.10712-34.98755-4.70557   c-42.27546,1.88902-57.54238-2.0618-79.83081,0.57959c0.01294-0.04102,0.03491-0.07959,0.02905-0.12451   c-0.89966-6.80957,4.76221-12.51807,9.32727-16.85303c4.17603-3.96533,8.83679-7.87158,13.82434-10.78223   c12.83337-7.48828,25.68823-2.46924,38.69568,1.50781c9.70483,2.9668,20.42712,5.99463,30.6593,4.36865   c9.06787-1.44043,16.78442-7.65576,17.68958-16.84082c1.34642,0.72328,2.04187,1.23843,2.26721,1.37891   c2.55884,6.68164,5.23682,13.3418,7.27917,20.1665c1.83472,6.13086,1.47607,14.23828,5.34534,19.61621   c-2.17883-0.29639-4.31702-0.33008-6.25464-0.01855c-0.40503,0.06494-0.53735,0.58398-0.21777,0.83838   c4.37476,3.47949,10.28394,3.3833,15.25256,5.74072c6.12732,2.90674,7.39734,8.32129,5.81262,14.64697   c-3.45581,13.79298-19.16772,15.28273-31.01025,16.67189c-16.72656,1.96191-33.05713-1.33447-49.81421-1.10059   c-25.07756,0.35107-30.44226,0.69135-56.06689-2.19386c-8.55371-0.96338-18.32495-0.75146-24.11572-8.23828   c-2.70801-3.50098-3.85059-7.56445-3.85046-11.91162c0.00012-2.01318,0.11938-4.9126,1.01062-7.19873   C74.57141,219.74342,95.95422,221.06227,116.82117,222.22633z"/></g></svg>