<svg xmlns="http://www.w3.org/2000/svg" xmlns:xlink="http://www.w3.org/1999/xlink" version="1.1" x="0px" y="0px" viewBox="0 0 268 335" style="enable-background:new 0 0 268 268;" xml:space="preserve"><g fill="#F1F0EA"><path d="M200.88841,48.55607c20.25391-3.55469,17.69238-3.67676,38.30347-1.05957c0.64819,0.08301,0.87683-0.92383,0.32593-1.20313   c-11.1355-5.63867-28.08801-4.32129-38.86426,1.58594C200.33641,48.05216,200.53001,48.61857,200.88841,48.55607z"/><path d="M53.72398,113.17716c-0.22229-2.84375-0.44861-5.94922-2.12756-8.33496c-0.33569-0.47754-0.95251-0.02441-0.91919,0.4375   c1.91455,26.62598,3.10474,23.53614-2.00171,46.75391c-3.05798,13.90527-10.79272,27.95313-5.81274,42.26367   c0.15234,0.43848,0.75964,0.20898,0.6665-0.22363c-1.78162-8.28223,0.90967-16.71289,3.37256-24.59961   C58.80797,131.34904,54.34935,121.17912,53.72398,113.17716z"/><path d="M169.80211,34.00138c-5.88245-1.9043-13.68042,0.19629-19.72815,0.82031   c-6.4751,0.66797-13.13599,0.92383-19.60242,1.88086c-4.68762-0.29102-9.3302-1.24219-14.03601-1.37695   c-11.78809-0.33789-23.41626,3.00684-35.20703,3.25293c-12.32178,0.25684-24.82104,1.35742-37.11572,0.1582   c-7.63977-0.74512-21.06042-4.41699-28.12256,0.46289C1.70848,40.34904-2.94057,72.32365,15.71727,76.31583   c4.25598,0.91016,9.66992-0.79688,10.55957-5.18848c2.18579-0.12305,2.99609-0.18945,3.24805-0.22266   c0.28967,0.0166,1.12451,0.03613,3.20581,0.03809c4.47046,18.46582,3.01025,38.85156,1.27429,57.39747   c-5.09216,54.40332-14.99768,65.20996-11.2157,88.21094c3.2937,20.0332,24.25146,42.78514,45.44189,35.79199   c0.36499,0.46094,0.94287,0.74609,1.74219,0.64258c6.33423-0.82031,12.35168-3.45703,18.74683-3.80957   c8.89307-0.49121,17.90466-0.28027,26.80981-0.28613c36.18323-0.02344,70.10059,10.02147,83.09766-11.54785   c3.55298-5.89648,4.52417-13.17676,4.69727-19.92676c0.15137-5.90332-2.42078-11.3584-3.06519-17.03223   c0.31689-0.41699,0.60242-0.86035,0.84985-1.33398c0.70703-1.35449-0.78784-2.90332-2.14673-2.66602   c-4.43848,0.77637-8.31628,3.3457-12.93262,4.04199c1.03003-4.55566-0.46655-20.48633-0.79053-23.89746   c-1.04053-10.9502-1.39014-23.24023-4.86121-33.74902c-0.21692-0.65723-0.99768-1.00195-1.62451-1.04883   c0.44714-0.61719,0.87292-1.24512,1.26062-1.88867c1.00952-1.67578-0.94299-3.23145-2.45947-2.18555   c-7.91016,5.4502-16.52368,17.18848-42.7832,21.31445c-3.67468,0.57617-10.19128-0.46582-12.7041,2.58203   c-0.12256,0.14844-0.12305,0.37109-0.00903,0.52441c2.5343,3.40527,9.4718,1.75977,13.12854,1.37402   c14.10876-1.48535,33.04932-9.08203,42.22424-20.00586c-0.95313,3.19238,0.40454,2.88574,3.39648,30.72949   c2.53613,23.60156,0.90601,20.66699,1.38074,26.60059c-21.53259,0.89648-50.28967-13.56055-80.66516-5.8418   c-5.29492,1.34473-16.72021,4.45996-19.27783,10.63672c-6.15808-2.47363-13.68237-1.65234-19.40137,1.33105   c-6.68506,3.4873-8.45044,11.41895-4.19971,17.47461c1.24304,1.77051,4.73413,0.93555,3.86816-1.49121   c-1.4613-4.09668-1.88623-7.91602,1.82617-10.79688c9.61438-7.45801,32.81226-0.16797,20.64526,19.8877   c-6.16357,10.16113-18.59766,19.46484-30.81104,15.95508c-12.88806-3.70313-22.77087-17.49316-25.90942-29.83984   c-3.69995-14.55566,0.86182-29.31738,4.1322-43.48438c3.51941-15.24512,5.12854-30.71387,6.61096-46.26855   c2.70215-28.35548,4.24951-59.15137-13.93677-83.05079c-0.97266-1.27832-2.12317-2.31641-3.38159-3.22266   c9.76367-1.04492,11.07825,0.01465,23.13367,1.24219c10.98389,1.11719,22.25427,0.22949,33.26379-0.05762   c11.69165-0.30371,23.01343-2.49219,34.64429-3.29688c7.40857-0.5127,14.72632,1.16309,22.13062,0.78125   c5.15088-0.2666,10.43848-2.08691,15.48047-3.10254c0.23779-0.04785,0.42834-0.16895,0.58838-0.31738   c15.09363-0.90918,15.68286-0.26172,19.03125-1.55078C170.7805,35.44669,170.52574,34.23576,169.80211,34.00138z    M84.83592,206.86174c6.3999-5.05566,14.49316-7.11621,22.50891-8.47461c31.72156-5.37988,70.54626,16.00195,89.55286,4.89063   c0.00049,2.37598,0.53174,4.81738,0.98486,7.21973c1.42004,7.52734,0.25891,16.12695-2.896,23.06836   c-4.67285,10.28125-15.36011,12.54883-25.65234,13.00488c3.21606-4.95605,1.93481-14.33008,0.09521-18.6709   c-0.35327-0.83398-1.67749-0.55566-1.86047,0.24609c-1.56555,6.85156,2.25098,9.13379-2.58435,18.5293   c-17.00342,0.10254-18.42554-2.4209-51.35278-2.3125c2.64661-4.94434,1.72729-15.83203,1.05969-18.60059   c-0.28699-1.19043-2.01648-0.83301-2.21887,0.20801c-1.17432,6.03809,1.27954,13.51465-2.90527,18.43066   c-23.98682,0.19238-23.54187,0.02637-31.08398,2.1416C92.43932,235.38029,100.75658,216.64201,84.83592,206.86174z    M31.69164,67.06974c-1.99573-0.41797-4.20776-0.27344-6.02441,0.4375c0.55371-4.60352-0.60693-8.82129-4.8219-7.20313   c-1.42603,0.54688-0.52356,2.90234,0.92004,2.49219c1.10498-0.31348,1.53809-0.23047,1.78662,0.97852   c0.34119,1.6582,0.02051,3.86426-0.32788,5.52539c-2.25537,2.21484-4.09155,3.25195-7.62085,2.54395   c-5.6731-1.1377-7.49011-7.26563-8.28918-12.2002c-1.25183-7.73145,2.92395-13.82031,9.1908-17.32715   c0.68286,0.03125,1.36926,0.0332,2.06006,0.00195C24.91551,49.74552,29.07091,58.14201,31.69164,67.06974z"/><path d="M105.86119,165.72502c-2.77905,4.15527-6.89319,8.95117-7.7738,13.94336c-0.1167,0.66113,0.59326,1.09668,1.14722,0.75781   c2.93213-1.79395,4.94067-5.11719,6.97314-7.80273c3.29541-4.35547,6.42993-8.83984,9.65295-13.24902   c28.64465-39.19141,31.91919-40.57813,57.42151-59.49317c5.57642-4.13672,11.84619-7.35547,17.34131-11.54395   c1.6853-1.28516,0.53308-3.67969-1.50732-3.27344c-11.6438,2.31934-22.20215,12.3252-31.40796,19.27539   C135.34764,121.22306,123.03148,140.05022,105.86119,165.72502z"/><path d="M101.0244,146.98479c0.2251,0.83691,1.44617,0.54199,1.57202-0.19336c1.86426-10.89551-1.47461-16.64551,13.31348-59.32423   c2.87231,2.26563,4.03955,5.90625,6.73706,8.43066c0.71472,0.66895,1.82983-0.04297,1.94434-0.8623   c0.79761-5.70313-4.27844-10.65137-9.15063-12.5459c-1.04199-0.4043-2.24658,0.28125-2.58594,1.29883   c-3.5863,10.74707-7.03979,21.53613-9.60876,32.58008C101.07762,125.68888,98.4807,137.52873,101.0244,146.98479z"/><path d="M144.8867,48.08829c-7.47852,12.88867-19.97339,34.85742-13.8623,47.09277   c0.03906,0.07813,0.15942,0.05078,0.14966-0.04004c-1.35083-12.62988,8.49084-32.16016,15.49146-42.6709   c2.55347,3.2041,4.44775,6.95117,7.73523,9.39844c0.75916,0.56543,2.08337,0.00391,1.89124-1.04395   C154.53783,51.26115,146.64696,45.05509,144.8867,48.08829z"/><path d="M261.5582,14.5463c-30.27464,12.26172-61.36412,3.8252-90.24181,26.53711c0.15698-1.86328,0.18018-4.10742-1.58936-4.75293   c-1.3031-0.48047-1.2113,4.12402-1.34192,5.00586c-0.12195,0.82324-0.2948,1.69824-0.43079,2.58008   c-4.60352,4.12109-8.55835,8.7959-11.37683,13.89746c-0.25623,0.46387,0.40613,0.81836,0.76172,0.55957   c6.67761-4.85645,12.17493-11.13574,18.94031-15.9375c24.56555-17.43457,52.88208-11.89941,81.59154-21.29395   c-10.95335,29.4873-9.30882,60.56641-55.68211,78.20703c-0.58508,0.22266-0.77148,0.73047-0.70374,1.22266   c-0.19641,0.64063,0.09399,1.49609,0.78296,1.74316c6.37195,2.2832,14.63989,5.47266,21.68896,4.21484   c-0.12622,0.04004-0.24719,0.10352-0.3468,0.20117c-9.99927,9.76758-17.98999,5.8418-30.37378,5.43555   c-0.73706-0.02441-0.8429,0.94141-0.31067,1.28516c5.6073,3.62012,13.3772,3.96191,19.81409,3.20898   c12.3562-1.44531,13.64624-10.45215,11.37329-10.16406c1.43286-0.26953,2.8186-0.70996,4.12146-1.39941   c0.72351-0.38281,0.64661-1.46777-0.21936-1.60645c-9.86584-1.57031-1.25293,0.24414-18.82654-3.09766   c13.35193-3.66602,24.46155-12.35059,32.73035-23.6875c12.70605-17.4209,14.07324-39.18457,22.43333-58.4834   C265.08994,16.51994,263.86765,13.61076,261.5582,14.5463z"/><path d="M190.25414,134.58147c-4.81323,0.38672-9.16138-0.50977-13.89954-0.99805c-1.11609-0.11426-1.28577,1.44336-0.4906,1.94238   c8.97168,5.62988,27.27954-0.46094,26.4519-0.72168c-0.0437-0.01465-0.08679-0.02051-0.13037-0.03418   c2.85767-1.1543,4.71021-1.7832,6.09961-3.6543c0.27173-0.36621-0.08337-0.91406-0.52795-0.81934   c-0.51184,0.10938-0.99963,0.25684-1.47327,0.42871c-0.78113-2.70996-3.7113-4.08497-5.84082-5.7588   c-4.66162-3.66406-5.32349-8.72461-5.51685-8.45508c-2.07263,2.99219-1.60376,5.99609,0.72754,8.87695   c1.80249,2.22754,4.97266,5.30665,7.93774,6.56153c-2.1947,1.10938-3.0957,1.44824-4.34778,2.22949   C196.28221,133.87346,193.34727,134.33244,190.25414,134.58147z"/><path d="M95.27684,173.8549c-0.18628-0.43848-0.8479-0.67383-1.26001-0.41211c-1.83984,1.16602-1.94678,3.0498-2.30652,5.08789   c-0.40784,2.31055-0.73572,4.75781-0.61182,7.10742c0.06018,1.14063,1.24402,2.03906,2.35999,1.64746   c3.02271-1.05957,6.4646-1.3457,9.33496-2.74414c0.67712-0.33008,0.65796-1.22852-0.01147-1.55176   c-2.4668-1.19336-5.32666-0.6748-7.96765,0.08008c0.03809-0.91406,0.08838-1.82813,0.17493-2.74414   C95.19823,178.11174,96.16673,175.94865,95.27684,173.8549z"/><path d="M147.24913,81.11759c-0.17249-0.81055-1.41248-1.05664-1.69141-0.16895   c-2.46277,7.83887-2.85681,18.14844-0.59277,26.01758c0.26331,0.91504,1.77979,0.48242,1.60632-0.4375   C144.97533,98.0629,149.00414,89.36857,147.24913,81.11759z"/><path d="M186.78783,59.54533c-3.50171,6.58594-5.64978,14.68945-4.19751,22.13574c0.35693,1.83008,3.12488,0.96191,2.76343-0.84863   c-1.40088-7.01953,1.54736-13.93359,3.0271-20.69238C188.56517,59.29826,187.19542,58.77872,186.78783,59.54533z"/><path d="M156.12584,127.6049c-2.93713,0.59376-5.92053,0.85548-8.85974,1.44044c-1.39038,0.27637-1.3103,2.54492,0.07715,2.75781   c5.70679,0.87402,13.22473-0.11816,18.41113-2.73926c1.40674-0.71094,0.49658-2.54786-0.77832-2.64552   C161.96776,126.18888,159.0537,127.0131,156.12584,127.6049z"/><path d="M186.00145,108.55802c1.13281-0.69336,0.15869-2.20215-0.90479-2.15625c-3.55713,0.1543-7.07104,0.77441-10.63586,0.93555   c-1.76453,0.08008-1.78589,3.03516-0.01196,3.09961C178.4099,110.58048,182.51146,110.69376,186.00145,108.55802z"/><path d="M199.8513,85.94767c4.04346,1.99902,8.79858-0.25098,12.65076-1.78027c0.99011-0.39355,0.99512-2.05469-0.25159-1.99902   c-3.72656,0.16699-7.87244,3.05371-11.6145,2.00781C199.59947,83.88615,198.8286,85.44181,199.8513,85.94767z"/><path d="M58.65953,78.21525c4.32605-9.16992,0.07813-27.6582-9.1366-32.99414c-0.22266-0.12891-0.54883,0.05371-0.57593,0.30176   c-0.40527,3.70605,2.95972,7.38672,4.32947,10.73926c2.90222,7.10547,1.89392,14.48047,3.40076,21.77441   C56.87035,78.97208,58.27782,79.02384,58.65953,78.21525z"/><path d="M114.58214,65.56974c1.88586-6.8457,0.45032-22.84863-6.73987-24.87598c-0.82422-0.23242-1.83069,0.49219-1.74353,1.38574   c0.36731,3.76465,2.88037,7.1582,3.71423,10.92676c0.91345,4.12793,1.01025,8.41699,2.1626,12.49219   C112.33189,66.75919,114.20872,66.92423,114.58214,65.56974z"/></g></svg>