<svg xmlns="http://www.w3.org/2000/svg" xmlns:xlink="http://www.w3.org/1999/xlink" version="1.1" x="0px" y="0px" viewBox="0 0 268 335" style="enable-background:new 0 0 268 268;" xml:space="preserve"><g fill="#F1F0EA"><path d="M239.55605,76.9665c-2.05542,3.27124-4.3645,6.40625-6.50085,9.62793c-0.09753,0.14722,0.1145,0.30005,0.2218,0.16016   c4.97986-6.49561,12.00769-13.93091,11.61401-22.75366C244.84132,62.91181,243.38087,70.87959,239.55605,76.9665z"/><path d="M146.20033,104.98383c4.66846,2.56689,10.52991,2.64673,15.54004,1.29053c1.1698-0.31665,1.49854-2.09644,0.17065-2.48828   c-3.6311-1.07129-7.34424-0.99219-11.04102-1.7312c-4.05688-0.81079-6.96948-4.71875-11.08008-5.12915   c-3.64795-0.36426-6.64893,1.34692-9.85938,2.84937c-5.23754,2.45117-7.97326,0.41187-11.65087-3.00952   c-5.27112-4.90405-12.47998-4.19873-19.04358-2.91577c-8.20605,1.60425-19.75696,3.82813-23.2832-6.85425   c-0.32898-0.99634-1.66785-0.41821-1.63733,0.46973c0.24133,7.05347,6.82825,10.83447,13.31238,11.5061   c8.24304,0.85352,16.21497-4.0498,24.43982-1.59497c6.35779,1.89746,6.53149,11.20313,19.58031,6.03687   c2.84082-1.12451,5.28076-3.1438,8.54565-2.15771C142.29799,101.89106,144.26845,103.92182,146.20033,104.98383z"/><path d="M121.52627,148.26459c-11.08704,3.72583-10.98352-3.25293-17.9187-6.97534   c-6.10669-3.27734-13.53101,1.2627-19.28955,3.16797c-5.04431,1.66919-9.49951,0.40234-13.63477-2.6665   c-1.58667-1.17773-5.1311-3.56152-5.80859-5.4502c-0.37207-1.03687-1.85425-0.96655-2.11255,0.11011   c-1.06616,4.44409,6.16821,9.33057,9.32471,11.1355c12.37939,7.07861,23.36792-8.78223,32.38208-0.46216   c2.56763,2.36987,4.54749,4.5957,7.81128,6.0271c7.02856,3.08252,13.64307-4.6377,20.71435-0.95117   c0.75452,0.39355,1.67786-0.22827,1.47241-1.09692C132.96596,144.75848,126.06875,146.73822,121.52627,148.26459z"/><path d="M126.18472,195.01166c-7.57727-0.05176-13.91699-0.42798-21.32007-2.27686   c-9.39404-2.34644-8.41748,0.05005-19.18042-6.41089c-8.03149-4.82104-13.74658,3.95166-23.91504,0.27588   c-2.6272-0.94971-4.32263-3.17969-6.76208-4.40332c-0.67444-0.33838-1.69226,0.14307-1.44312,1.0144   c1.42358,4.97876,9.88977,10.48486,19.28162,7.46582c8.66284-2.78491,7.63623-2.8147,14.41699,1.42627   c5.8042,3.63013,13.25757,3.65625,19.69946,5.39258c6.51978,1.75732,13.50244,2.59985,19.69067-0.61865   C127.5375,196.41669,127.16177,195.01849,126.18472,195.01166z"/><path d="M218.45387,247.14716c-2.66516,2.76147-5.99109,1.47217-9.16858,2.7334c-0.42529,0.1687-0.35181,0.77783,0.03394,0.93555   c3.00562,1.22705,6.04419,1.46655,8.9917,0.0293c3.08533-1.50464,4.0946-4.79102,5.64233-7.53247   c0.29712-0.52637-0.32703-1.14136-0.81555-0.71533C221.45058,244.06879,220.00868,245.53583,218.45387,247.14716z"/><path d="M248.90712,29.33076c-0.33521-0.07983-0.58508,0.38281-0.30859,0.60596c4.49097,3.6211,5.02612,11.45484,4.84497,16.77027   c-0.01514,0.4436,0.71362,0.47021,0.77332,0.03955C254.95131,41.44331,255.82423,30.97797,248.90712,29.33076z"/><path d="M37.17458,27.99018c-0.02258-0.01123-0.03943,0.02393-0.01697,0.0354c0.22229,0.11084,0.44458,0.22217,0.66675,0.33325   c0.02246,0.01123,0.03931-0.02417,0.01685-0.0354C37.61904,28.21235,37.39675,28.10126,37.17458,27.99018z"/><path d="M36.65566,17.49262c-2.62012,2.91235-3.19788,7.60864-0.16895,10.53003c0.22168,0.2124-0.89111-3.03027-1.07263-4.59717   c-0.22595-1.95068,0.72302-3.95654,1.63623-5.62012C37.18435,17.56122,36.85561,17.27021,36.65566,17.49262z"/><path d="M207.76344,225.83759c0.61609-1.05786,0.36292-2.14111,1.84424-2.29321c1.3407-0.13794,2.7478,0.32617,3.90613,0.95801   c3.80444,2.07544,4.78369,6.75952,7.64478,9.73633c0.46375,0.48242,1.56641,0.35791,1.54871-0.47534   c-0.13806-6.52734-4.00293-12.67944-10.69031-13.87549c-6.13306-1.09717-8.45117,4.10059-5.90332,6.2251   C206.6476,226.55829,207.40749,226.44916,207.76344,225.83759z"/><path d="M202.83412,104.24262c-7.89917,4.77344-13.8136,13.26953-20.17285,19.84033   c-8.95166,9.2495-17.62671,18.73461-24.62744,29.57958c-6.42212,9.94824-11.14514,20.97729-14.57227,32.2854   c-3.68115,12.146-4.04248,24.05396-2.81323,36.57959c0.04456,0.45313,0.7002,0.4126,0.70215-0.03931   c0.10266-23.95288,6.54834-46.93091,18.97827-67.42871c11.42285-18.83691,28.2666-34.08813,42.89783-50.33715   C203.46437,104.45844,203.14125,104.05683,202.83412,104.24262z"/><path d="M258.34573,26.23188c-5.94789-13.67554-29.40468-21.19019-39.43788-9.16626   c-25.42932,3.32495-16.04492,2.06226-65.69629-1.77734c-49.4436-3.82349-35.73559-2.57202-62.22118-7.83545   c-6.74902-1.34131-13.67944-1.94946-20.4928-2.89771C55.44985,2.46113,34.29531-1.0086,26.68496,16.1811   c-4.04614,9.1394,0.31592,17.5354,8.02844,22.82276c4.63074,3.17456,10.15588,3.8833,15.49451,5.08813   c4.27759,0.96558,8.04675,1.99219,11.94031-0.0083c-2.3374,3.06299-3.2124,6.08667-4.19202,8.13281   c-0.28369,0.10205-0.53809,0.29517-0.72021,0.60693C50.03408,65.14155,42.24624,77.1247,35.7914,89.86591   c-6.60974,13.04688-11.53223,27.28931-14.59326,41.53979C14.7936,161.22235-0.4846,183.12909,5.67861,215.33929   c4.11426,21.50073,21.2395,32.49707,41.77625,35.18774c19.56555,2.56299,27.42908-0.05127,61.39978,3.88281   c7.26453,1.69556,14.4104,3.72632,21.88854,4.31689c21.03003,1.66064,21.54297,0.42114,31.14136,0.13623   c19.23669,1.68604,23.26648,3.55396,24.28894,2.90576c11.02197,4.45508,25.78125,5.20947,35.05981-1.42114   c20.23193-8.14893,20.95264-37.05884,6.1228-52.25317c-7.84131-8.03369-18.6355-8.15576-26.18518-2.63623   c-4.16895-4.86304-15.02002-4.25781-19.57971-4.40674c-3.78857-0.12378-7.39233-1.2583-11.1167-1.74365   c4.45532-11.98193,10.92578-23.44702,17.51563-34.229c18.39648-30.09814,29.86328-40.38671,42.09155-56.84277   c5.61255-7.55298,12.87964-13.6814,18.82349-20.95313C262.17569,71.04804,269.38773,44.24238,258.34573,26.23188z    M204.10146,208.95526c13.62207-10.96997,26.71594,8.26099,28.43127,20.11621c0.99744,6.89307-0.50061,14.15308-4.33008,19.96484   c-4.09253,6.21118-10.8147,7.88794-17.74597,8.78125c-19.04517,2.45508-32.70898-6.0061-40.21899-21.71045   c3.02515,1.68091,6.71338,2.75439,9.23682,3.63965c5.8479,2.05151,16.20654,4.29785,21.00928-0.98438   c5.23804,2.75928,12.94092,1.51147,15.99451-3.59644c1.32263-2.21216-1.71741-4.40503-3.29102-2.31641   c-2.37329,3.1499-6.83606,3.11279-10.16077,1.92578C196.59169,232.47821,193.29176,217.66058,204.10146,208.95526z    M183.55141,205.85321c-2.40039,0.6084-3.61658,3.93164-4.27783,6.03223c-1.05566,3.35327-0.90393,6.8606,1.15881,9.79907   c0.33875,0.48267,0.9447,0.01929,0.91919-0.43774c-0.15942-2.86816-0.06799-5.82861,0.58752-8.64868   c0.43091-1.85425,2.9137-5.77466,2.43701-6.69702c5.8866,0.31348,7.98828,0.27417,13.34375,2.75049   c-7.11011,8.26318-7.18408,21.0415,0.03027,28.0769c-3.73682,0.33569-7.35986,1.80054-11.38013,1.30811   c-6.43213-0.78809-13.78833-5.18433-18.20593-7.16235c-3.23499-10.08179-2.05432-18.83325,1.19238-28.41992   C173.66823,204.80194,178.65248,205.54803,183.55141,205.85321z M215.38857,117.56318   c-19.08569,24.40771-59.33618,78.38451-53.52795,109.06835c0.526,10.24951,4.995,19.89404,11.58057,26.63379   c-1.12146-0.09937-2.23291-0.20044-3.30493-0.23706c-8.24902-0.28198-16.62781-2.11597-21.71545,0.28564   c-6.93579-2.13452-11.02124-0.41284-17.89197-1.57202c-1.09143-3.2168-2.78405-5.8894-0.86707-10.55371   c0.23877-0.58105-0.57153-0.92993-0.9292-0.48047c-1.86108,2.33838-3.40649,6.83716-2.45934,10.15112   c-11.05847-2.63403-28.70911-6.97778-39.3324-6.67261c-0.86243-2.79834-0.88538-5.3938,0.0127-8.33203   c0.18433-0.60303-0.63428-0.92847-0.9082-0.35938c-1.23364,2.56274-2.82373,6.03027-1.95862,8.91699   c-7.46863,0.88428-11.90247,3.22876-26.53943,2.32788c-0.11243-1.05859-2.99438-9.62598-3.36133-10.62427   c-0.28809-0.78369-1.39624-0.55078-1.40845,0.26074c-0.06958,4.63672,0.93628,8.27881,1.91016,10.14893   c-6.65027-0.58643-12.98901-2.39209-19.36792-4.30786c-15.30127-4.59546-16.2688-7.46655-17.67957-7.80298   C5.8334,220.22919,5.21767,197.81683,9.73318,180.06927c4.09509-16.09497,10.34582-31.48291,15.26208-47.3125   c2.2196-7.14672,3.85205-14.17065,6.72888-21.1162c2.9552-7.13501,5.3761-14.45117,8.83655-21.37256   c5.49756-10.99634,17.93225-31.4585,21.21436-39.21387c0.94434-2.2312,1.35632-4.90796,1.34814-7.31812   c1.18604-0.22119,2.34131-0.6084,3.36401-1.20337c2.30469-0.02905,4.7179,0.22925,7.40112,0.09326   c0.80579-0.04102,0.94653-1.17578,0.36768-1.58667c-2.95459-2.09619-7.93469-1.99658-11.54358-0.25854   c-0.078,0.02515-0.15271,0.05103-0.23157,0.07568c-0.11475,0.00269-0.23267,0.01392-0.35742,0.04614   c-5.21338,1.34326-10.70581-0.99683-15.81079-2.10986c-5.14441-1.12134-9.59106-3.0061-13.39844-6.7002   c-8.17175-7.92822-1.99634-19.9353,6.93958-23.54517c8.39258-3.39038,19.16541-1.10229,29.07166,0.22827   c-6.98779,5.61011-12.83984,15.00562-10.47607,23.82324c0.25635,0.95679,1.66016,0.42285,1.43359-0.51538   c-2.38306-9.86402,5.92041-16.09546,11.3313-23.00049c32.61963,4.36426,29.19116,5.97974,58.56298,8.68457   c-8.26244,3.23853-17.90697,14.48975-15.37096,22.88281c0.26746,0.88501,1.75769,0.49731,1.57471-0.40527   c-1.19983-5.91821,4.09851-11.45264,7.99084-15.32202c3.09839-3.08032,6.82275-5.09521,10.76488-6.71582   c50.70166,4.31006,47.1189,4.57324,59.38831,5.06982c-5.98157,2.49487-5.27747,7.00464-4.00232,6.58081   c0.68811-0.22852,1.00049-0.87012,1.42847-1.41968c3.03223-3.8916,8.87024-4.66431,9.28442-5.0127   c6.03516,0.01465,9.39331-0.77954,15.14795-1.34546c-0.7644,1.8916-1.32849,3.88623-1.71631,5.92847   c-3.21924,7.0564-3.11572,15,2.61938,20.81372c1.57788,2.38232,3.76929,4.26172,6.39075,5.08398   c-16.98132,3.78638-34.35681,4.42212-51.65002,2.96948c-17.64087-1.48193-35.31628-2.97974-52.91576-4.89404   c-31.85596-3.46509-38.30542-8.69067-51.51855-7.28638c-1.58765,0.1687-1.18152,2.55273,0.26978,2.65967   c11.94739,0.88013,23.67834,5.06812,35.49304,7.02515c12.41711,2.05664,25.00842,3.08862,37.53698,4.20093   c24.92871,2.21289,49.52905,5.4458,74.48242,1.73584c8.28162-1.2312,17.08179-2.31763,23.84021-7.64722   c5.34546-4.21533,7.56604-12.22314,5.20227-18.53198c-2.22876-5.948-11.25977-9.65064-17.04236-6.87964   c-6.66858,3.19531-6.22571,9.19702-0.3949,12.07984c0.01465,0.01392,0.03027,0.02661,0.04504,0.04028   c2.33484,2.90674,6.12854,2.65723,8.05432,0.93481c0.95947-0.8584,0.17944-2.46216-1.08801-2.23828   c-0.34827,0.06152-0.66931,0.13501-0.97839,0.20361c-0.40381-0.52026-1.96387-0.49292-3.45508-1.13281   c-1.82153-1.85864-5.86084-4.67212,0.47046-6.43042c2.13367-0.59277,4.61304,0.12988,6.55066,1.02124   c5.39722,2.4834,5.18787,10.37818,1.67102,14.87232c-4.3573,3.29199-5.60754,3.21973-8.59131,4.47876   c-1.51343-0.64819-4.58508,0.87573-9.45679-4.74194c-2.75513-4.33301-2.91968-11.58496-2.04346-16.73633   c1.77734-3.75879,4.80884-6.9624,8.42688-8.80835c14.48914-7.39282,30.20448,4.11475,31.2726,19.24536   C259.68558,71.59394,233.10805,94.90278,215.38857,117.56318z"/><path d="M27.87417,144.0705c-3.83398,12.12158-5.94971,14.95728-9.80212,39.31299   c-2.01184,12.71899-2.1189,17.62598,7.50305,33.67212c0.33972,0.56665,1.39966,0.2981,1.29395-0.40552   c-0.78979-5.25366-3.46814-9.84814-5.35608-14.75098c-2.66699-6.92651-1.00183-14.75903,0.14685-21.84082   c1.89722-11.69678,3.75488-24.39258,8.13159-35.44678C30.25771,143.43402,28.2665,142.83026,27.87417,144.0705z"/></g></svg>