<svg xmlns="http://www.w3.org/2000/svg" xmlns:xlink="http://www.w3.org/1999/xlink" version="1.1" x="0px" y="0px" viewBox="0 0 268 335" style="enable-background:new 0 0 268 268;" xml:space="preserve"><g fill="#F1F0EA"><path d="M49.41163,95.46806c-0.17523-0.58057-1.00586-0.57471-1.08209,0.06396c-0.25104,2.104,0.17065,4.5,0.93109,6.479   c0.08386,0.21826,0.31976,0.28809,0.52008,0.2334c0.49768,0.90234,11.33728,1.86182,20.53778,4.0791   c7.01849,1.69092,13.93958,3.77441,20.91608,5.62646c8.38416,2.22607,16.92383,3.53516,25.37817,5.4209   c8.08374,1.80322,16.09814,4.17383,23.55224,7.82764c13.24072,6.49121,13.07373,12.82324,14.03491,18.66406   c0.16016,0.97314,1.35205,0.89307,1.7312,0.14844c3.33765-6.55664-2.64233-13.71484-7.4884-17.45117   c-7.01038-5.40527-16.00769-8.18945-24.42944-10.47705c-8.90125-2.41797-18.04504-3.59619-27.01917-5.66846   c-15.89972-3.67188-37.00012-10.9873-46.67963-9.3457C50.62971,99.22978,49.92506,97.17021,49.41163,95.46806z"/><path d="M153.54315,146.66679c-0.08875,0.19336-2.44958,3.82813-4.22815,4.9751c-0.52075,0.33594-0.98547,0.28076-1.27649,0.94775   c-0.13257,0.30469-0.00171,0.69873,0.20679,0.93164c1.55322,1.73779,4.79492-1.96387,6.0603-4.16211   c0.55518-0.96436,0.55688-1.75537,0.2085-2.74072C154.34662,146.14531,153.71136,146.30058,153.54315,146.66679z"/><path d="M68.39845,178.50615c-4.16125-0.87061-8.26141-2.41895-12.53314-1.57666c-0.25885,0.05127-0.26471,0.48193,0.00043,0.52734   c15.38391,2.64404,49.28015,12.90283,55.39978,14.37109c0.88385,0.2124,1.24078-1.11426,0.45544-1.48096   C101.12251,185.39287,80.47504,181.03203,68.39845,178.50615z"/><path d="M208.58307,155.33476c-36.18811,27.14551-41.68127,28.24512-45.43384,33.85498   c-0.04138,0.06201,0.04346,0.13379,0.09119,0.07373c2.89453-3.63818,7.06665-5.34619,10.83252-7.84326   c1.84155-1.2207,25.54932-17.52051,34.771-25.79443C209.03436,155.45488,208.78143,155.18584,208.58307,155.33476z"/><path d="M66.30793,120.42998c-0.61932,0.0957-0.51416,0.94824,0.04736,1.04395   c25.76996,4.40381,51.07898,11.20215,75.21532,21.26514c0.70264,0.29297,1.02063-0.75049,0.49243-1.1377   c-16.27648-11.93066-39.58025-14.55908-55.88415-18.75195C79.82929,121.21611,72.88142,119.41484,66.30793,120.42998z"/><path d="M37.53046,146.51591c5.11346,2.65137,11.19482,2.69336,16.7475,3.83887c0.87793,0.17285-11.41595-2.81641-16.7356-3.87549   C37.52021,146.4749,37.51124,146.50615,37.53046,146.51591z"/><path d="M235.22614,126.3372c2.59924-1.93555,5.02246-4.18262,7.32166-6.46191c0.28308-0.28076-0.13721-0.76758-0.4563-0.52783   c-10.78784,8.12158-13.04175,8.89014-14.12427,11.44678c-0.00562,0.0127,0.00391,0.02979,0.01929,0.02783   C230.68707,130.45341,233.09808,127.92216,235.22614,126.3372z"/><path d="M261.51642,114.60722c0.33203-0.02246,0.66394-0.04688,0.99255-0.09912c0.62012-0.09912,0.55103-0.89209,0.15479-1.18115   c-2.96777-2.16162-7.29688-2.40234-10.8147-3.12207c-5.48474-1.12305-10.16284-2.46924-10.82324-2.59521   c11.14783-13.00586,9.46204-26.96729,2.66309-33.00977c0.72754-0.45361,1.44409-0.92139,2.13062-1.42969   c0.94629-0.70068,0.38916-2.01563-0.76465-1.8623c-0.79541,0.10547-1.58789,0.28076-2.37781,0.4917   c-3.94153-11.00146-24.78284-19.23877-35.95496-22.86523c-19.25049-6.24756-31.58752-3.37012-44.34692-7.55176   c-4.89771-1.60498-10.39941-5.62256-15.71753-4.63525c-0.22266,0.04102-0.20911,0.31152-0.06738,0.42627   c0.80701,0.65576,1.66272,1.27393,2.54834,1.86475c-17.77148,7.5083-34.39159,17.92041-51.71178,26.39063   c-16.46741,8.05322-33.30939,16.79932-48.18915,27.55811c-0.13293,0.0127-0.26465,0.02002-0.39777,0.0332   c-0.93585,0.09375-0.85522,1.4165,0.07013,1.44385c24.46252,0.71924,47.57391,6.57813,70.76788,13.91992   c15.59618,4.93701,40.46947,10.26611,44.69164,29.05957c1.95227,8.69043-1.41077,21.15869-10.04272,25.09033   c-7.39673,3.36865-20.41467-5.42969-32.79272-9.26514c-13.19531-4.08887-27.15948-6.50195-40.66101-9.37256   c-11.34521-2.41211-23.24719-5.96143-34.98492-6.40869c3.41425-2.73047,6.65381-5.69092,10.43005-7.91553   c-0.68439,1.11328-1.44501,2.18066-2.29413,3.17871c-0.56372,0.6626,0.39026,1.71875,1.06512,1.12549   c0.42151-0.37012,0.84216-0.79834,1.25848-1.26563c4.84131,2.34033,17.14026,1.37354,23.54675,2.0127   c22.54895,2.25098,30.58716,11.57178,47.10034,14.88232c6.04613,1.2124,11.77746,2.43408,17.68505,4.17285   c1.29285,0.38086,2.16113-1.0376,1.19006-1.99658c-3.85779-3.80859-10.14526-4.15039-15.2467-4.97314   c-17.90917-2.88867-25.89416-12.2373-46.91467-15.15088c-8.54193-1.18359-17.23718-0.61328-25.83936-0.88623   c4.47375-6.41211,7.56268-17.42725,2.42175-22.94092c-0.32953-0.35352-1.02301-0.14893-1.01416,0.37158   c0.07178,4.21826,1.08722,7.92188,0.44647,12.23193c-11.65137,1.4873-34.86481,17.81738-45.08429,24.35059   c-0.09296,0.05957-0.16663,0.13574-0.23883,0.2124c-10.258,1.50146-10.63361,19.21875-7.96716,26.32764   c2.58661,6.89551,9.92102,12.20752,15.87085,15.93555c11.84992,7.42578,31.68805,12.83008,70.79474,27.60205   c16.86255,6.36963,23.3252,9.9126,41.66723,14.37354c3.68359,0.89551,7.63147,2.03613,11.46509,2.05371   c1.07666,1.36914,5.79761-3.66064,30.46704-17.36084c43.99097-24.43066,36.37134-24.05762,58.50122-37.4502   c9.19214-5.56299,17.15051-12.78369,24.87671-20.18555c0.6001-0.57471,0.479-1.33984,0.05664-1.82861   c0.27588,0.03516,0.54968,0.0791,0.8269,0.10742c0.39307,0.04004,0.59033-0.44336,0.23462-0.65674   c-4.37109-2.61963-9.24365-4.09766-14.07275-5.729c-5.474-1.84863-11.35449-4.60059-17.15149-5.16553   c0.39783-1.26221,0.9447-2.47852,1.60291-3.5957c0.40906-0.69385-0.62158-1.396-1.14331-0.79883   c-6.85742,7.84863-2.67065,18.66357,3.26758,21.12012c-40.30481,30.3208-35.60583,22.06299-66.47729,41.26367   c-7.09277,4.41113-12.56982,11.72656-20.47278,14.76367c-0.84546,0.32471-0.50342,1.80713,0.4054,1.57471   c7.07202-1.80859,12.11816-7.48535,17.70508-11.84814c14.76343-11.52979,24.44531-11.79443,52.57715-30.70605   c6.36743-4.28076,15.11328-8.36182,19.56787-14.82813c0.46484-0.6748,0.07153-1.63818-0.58325-1.82422   c-2.22913-2.60986-8.29907-4.53711-6.97485-12.92725c5.27307,2.69336,11.38647,3.9668,17.00769,5.71191   c3.98914,1.23877,7.94519,2.58301,12.03674,3.29297c-1.33081,0.97021-12.18945,12.4375-26.0835,20.79639   c-9.9668,5.99658-19.02368,13.29004-28.63062,19.81934c-23.49268,15.96582-45.49731,23.41162-56.55688,34.6665   c-7.51453-2.94629-9.1582,0.23096-45.76019-14.27246c-53.40179-21.16016-90.44775-27.3374-93.50024-50.45508   c-0.63934-4.84229,0.74402-15.74854,6.79126-17.43262c1.68182,0.91455,11.28851,3.41211,15.52533,4.82422   c-4.18359-0.02734-6.70013,6.37988-7.83881,9.70801c-1.51257,4.42041-0.96979,9.61523,1.29657,13.63916   c1.84119,3.26904,5.5835,5.16113,8.90112,6.54736c2.40973,1.00684,34.97345,11.88135,42.26843,14.04736   c16.46948,4.89014,19.66919,10.10986,46.50574,16.58838c19.97265,4.82227,18.08447,5.52295,21.76781,5.52637   c1.36963,0.00098,1.323-2.11084,0.05322-2.32422c-3.8717-0.65137-1.66528-1.28809-17.78027-5.25   c-22.27942-5.479-21.59839-6.16406-39.14032-13.70947c-10.73901-4.61865-37.84668-12.01611-53.5387-18.27393   c-9.26361-3.69434-10.26465-12.96973-5.284-21.29199c1.15594-1.93164,2.86682-2.85156,3.0838-5.10938   c4.81623,1.62109,10.21033,3.85693,15.73627,5.33252c49.60443,13.24268,83.90881,25.07813,94.08971,27.47559   c-3.93604,0.75098-3.87256,7.87158-3.83691,10.97803c0.07727,6.76172,3.00989,15.2168,9.1366,18.79834   c1.00427,0.5874,1.78577-0.61475,1.39478-1.4834c-2.51453-5.58643-6.65369-8.95703-7.20593-15.63428   c-0.28662-3.46387-0.90918-9.50977,1.95166-12.33203c3.91235,0.83936,7.83643,1.33398,11.70093,1.14893   c0.63403-0.03027,1.03516-0.37061,1.21973-0.80273c11.19531-1.31787,30.54724-21.1001,46.23499-29.7959   c5.09094-2.82178,10.44006-5.04541,15.44153-8.05176C231.18719,138.92607,257.82172,118.16142,261.51642,114.60722z    M129.2641,107.73613c-21.96404-6.81885-54.37023-16.37744-77.48748-14.94971   c15.92554-7.70898,31.02704-17.15674,46.92169-24.97607c17.75574-8.73535,35.03381-18.35986,52.96691-26.73193   c0.15796-0.07373,0.27979-0.17139,0.38037-0.28125c16.94482,9.32129,32.06824,5.64111,50.26685,11.14307   c12.7771,3.8623,28.71167,9.75049,37.23499,20.93652c-9.2135,3.87451-25.0343,18.43115-38.43164,26.92285   c-12.53003,7.94189-33.01685,12.7041-41.28552,22.69678C151.57806,114.95293,139.0412,110.77177,129.2641,107.73613z    M168.47699,139.30547c-0.50269-6.32666-3.27539-11.38916-7.30774-15.5127c17.36462-12.40234,26.19885-13.07959,39.56421-20.33545   c-0.17126,0.30908-0.20874,0.69482,0.00977,1.06299c4.55811,7.67432,6.75305,18.05811,1.6178,25.83936   c-0.24512,0.37158,0.07373,0.78662,0.49512,0.66748c11.30713-3.19775,2.82813-27.76025-1.07971-28.14551   c6.96936-3.95752,13.27075-9.22119,19.60242-14.06006c12.65735-9.67285,14.33899-9.72461,20.18896-12.97607   c2.7627,7.08057,8.13513,13.30762-0.32739,26.07031c-9.91772,14.95752-27.80762,21.07715-76.99878,56.79248   C167.84906,153.12138,168.95966,145.38066,168.47699,139.30547z M163.80365,178.38066   c-2.78809,1.82568-6.09949,4.40918-9.27954,5.72656c-0.23071-0.26465-0.57397-0.44971-1.02844-0.47217   c-19.0011-0.94824-73.76336-21.87402-103.34411-28.38379c-6.15009-1.35352-11.95734-3.46484-17.81323-5.729   c-4.32312-1.67188-8.88654-2.61035-13.30664-4.00049c13.35645-8.43652,26.53943-16.8252,40.51984-24.24658   c-0.37451,1.95557-0.97711,3.85352-1.80505,5.6499c-0.37073-0.45557-1.00153-0.7041-1.68268-0.37305   c-5.81866,2.8291-10.30731,7.64258-15.65289,11.20117c-1.33685,0.88965-0.43036,2.82031,1.02545,2.7627   c7.58575-0.29932,14.78363,1.44092,22.1629,2.93506c42.86847,8.67725,55.4726,11.7002,67.31084,16.78369   c7.76477,3.33447,17.41016,8.14063,25.72913,4.87158c1.47388,1.20605,37.67078-24.12061,41.43774-26.65186   c16.20959-10.89209,32.53723-19.1582,42.31848-30.12695c0.03589,0.09277,0.09155,0.18213,0.18994,0.25684   c3.45093,2.61523,7.60278,3.49609,11.73706,4.52148c1.61401,0.40039,3.30469,0.87988,5.00964,1.19678   c-3.26843,1.62256-6.11951,4.26514-8.85339,6.56348c-10.26587,8.62988-6.22363,6.07178-29.55518,21.62451   c-5.66162,3.77393-11.66284,6.60059-17.70422,9.66797C188.55804,158.58672,182.71088,165.9998,163.80365,178.38066z"/><path d="M184.12103,116.32402c4.94885,9.77783,0.9541,18.45166-2.19312,27.83398c-0.10608,0.31592,0.32983,0.55908,0.573,0.37988   c3.66357-2.70166,5.06421-8.38867,6.00903-12.62598c1.21545-5.44971,1.1366-12.22754-2.93542-16.47607   C184.93976,114.77373,183.65704,115.40752,184.12103,116.32402z"/><path d="M132.44171,194.66338c0.70081,0.1123,1.24255-0.80957,0.62988-1.29053c-1.95105-1.53223-4.14709-2.33398-6.45788-3.2002   c-2.62817-0.98486-10.87756-4.68945-9.49231-2.84473c1.69495,2.26123,4.29236,3.46533,6.8241,4.58105   C126.6551,193.10381,129.51263,194.19365,132.44171,194.66338z"/><path d="M118.78181,200.61162c2.19324,1.52002,4.58337,2.2417,7.17468,2.79688c2.48779,0.53369,5.60741,1.48877,8.13305,1.38379   c0.78992-0.0332,1.30432-0.85498,0.75525-1.52441c-2.67981-3.26709-10.09655-1.93555-14.87292-4.65332   C118.81538,197.95683,117.6977,199.86015,118.78181,200.61162z"/></g></svg>