<svg xmlns="http://www.w3.org/2000/svg" version="1.1" viewBox="-5.0 -10.0 110.0 135.0" fill="#F1F0EA">
 <path d="m90.367 41.719c-3.1875-2.4883-6.1523-4.7031-9.7305-6.2812 0.97266-3.7539 0.96875-8.4102 1.2734-12.133 0.074219-1.1445-0.81641-2.168-1.8516-2.3047-5.6367-0.87109-11.41-1.332-16.773 0.53516-0.52734-1.5156-1.9258-4.0508-4.0977-6.5938-1.9492-2.2852-4.2031-4.3125-6.3906-6.2188-0.84375-0.73438-2.1445-0.6875-2.9688 0.11328-4.9258 5.0117-11.023 9.5391-11.34 17.238-0.015625 0.48828 0.03125 0.98047 0.058594 1.4727-1.3047-0.90625-1.9688-1.3086-3.8438-1.9414-6.5938-2.2266-13.254-0.042969-19.805 2.4727-1.0586 0.4375-1.6016 1.5859-1.2617 2.668 1.3516 4.3047 2.3125 8.9297 4.5938 12.742-3.9961 3.1406-6.7031 7.6133-9.125 11.949-0.56641 1-0.25781 2.2617 0.70312 2.8789 3.4453 2.2305 6.4531 4.625 10.262 6.2969-0.94141 4.3164-0.57812 9.2031-0.074218 13.574 0.089844 0.74609 0.70703 1.6602 1.8086 1.8398 0.625 0.10547-0.66406 0.070312 3.8281-0.035156 4.5352-0.10938 8.9023-0.19922 12.902-2.2031 1.7891 5.543 6.5469 9.3203 10.43 13.363 0.67969 0.69922 2.0273 0.92969 2.9453 0.15625 5.3633-4.5312 10.547-9.4414 11.691-16.359 5.9688 2.8203 12.816 0.76953 18.926-0.23438 1.1289-0.18359 1.9258-1.2109 1.8125-2.3398-0.48828-5.1406-1.2148-10.68-3.8594-15.211 4.6367-2.9062 7.1406-7.8867 10.324-12.531 0.019531-0.03125 0.023437-0.066406 0.042968-0.097656 0.57422-0.91016 0.38672-2.125-0.48047-2.8164zm-48.121-4.7266c-0.375-0.44141-1.1406-0.57422-1.6797-0.33984l-1.8555-2.4336c0.3125-0.86328-0.26172-1.5273-1.1836-1.5625-0.23828-0.32031-0.47266-0.66016-0.68359-1.0156 0.58203-0.59375 0.57812-1.7305-0.59766-1.9922 0.10547-0.36719 0.52734-0.44141 0.84766-0.32422 0.51953 0.19922 0.95703 0.75391 1.3281 1.1602 0.11719 0.25781 0.32031 0.45703 0.55859 0.60938 1.0898 1.2773 1.3477 1.7773 1.7031 2.3242-0.54688 0.77344 0.24609 1.8672 1.1758 1.875 1.0586 1.7891 1.0664 1.8281 1.7227 2.918-0.44141 0.75781 0.27344 1.7422 1.1406 1.8125 4.0117 6.0508 3.2148 4.9375 4.0703 6.0625 2.2148 2.7773 1.2812 3.5977 0.80859 3.4141-0.98828-0.51172-1.3906-1.4805-1.8164-2.5078-1.0938-2.5703-2.5352-4.125-5.7344-8.3867 0.44531-0.40625 0.58984-1.1445 0.19531-1.6133zm9.1094 51.773c-0.51562 0.4375-1.2969 0.39062-1.7695-0.097656-4.7383-4.9336-10.477-9.3477-10.844-16.293 0-0.011719-0.011719-0.019531-0.015626-0.03125 0.38281-5.7266 3.7461-10.824 6.7734-15.309 0.51172 0.53125 1.1875 0.92578 1.9531 0.94922-1.3906 4.1602-1.7617 8.668-1.0039 12.98 0.097656 0.5625 0.94922 0.41406 0.84766-0.14844-0.76172-4.332-0.35156-8.8633 1.1211-13.012 0.54297-0.22656 0.97656-0.61328 1.375-1.0352-0.29688 4.707 0.33594 9.4492 1.8984 13.914 0.074219 0.21094 0.30078 0.34375 0.55078 0.26562 0.22656-0.078125 0.34375-0.32422 0.26562-0.55078-1.6406-4.6836-2.2305-9.6836-1.7695-14.613 0.30859-0.28516 0.54688-0.5 1.2383-0.78516 2.0898 5.4766 8.0078 6.5508 10.254 12.898 0.40234 1.1367 0.625 2.3242 0.69922 3.5469-0.49609 7.3711-5.9258 12.551-11.574 17.32zm28.828-51.754c2.8633 1.5195 5.5 3.4766 7.9258 5.3906 0.53906 0.41797 0.66016 1.1914 0.27344 1.7578-2.7852 4.0625-5.1992 8.6289-8.9219 11.469-0.28516-0.38672-0.57422-0.76953-0.88672-1.1289-0.066407-0.078125-0.16406-0.12109-0.26172-0.13672-1.5117-1.7031-3.3203-3.0508-5.2578-3.9219 0.72266-0.035156 1.4609-0.10156 2.168-0.10938 0.23828-0.003906 0.42969-0.19922 0.42578-0.4375-0.003907-0.23438-0.19531-0.42578-0.42969-0.42578-0.83594 0-2.5703 0.066406-4.293 0.21484-5.1289-1.3086-9.1875 0.85938-12.742 1.3047 0.050781-0.57422-0.054688-0.87109-0.24219-1.2617 2.0898-0.32422 4.5-0.8125 6.543-1.2188 7.1992-1.4219 13.375-4.5625 15.699-11.496zm-27 9.4961c0.28516 0.52734-0.47266 0.95313-0.79688 0.4375-0.47266-0.89062-1.1797-1.668-2.0156-2.2305-0.50781-0.29688 0.003906-1.0977 0.48828-0.74609 0.98438 0.63281 1.7812 1.5234 2.3242 2.5391zm27.918 25.691c-5.8047 0.95312-11.875 2.7617-17.289 0.71484 0.0625-1.7695-0.16406-3.6055-0.76172-5.2969-1.2461-3.5195-3.543-5.5117-5.9766-7.625-1.9492-1.6875-3.3047-2.7656-4.2812-5.2695 0.83594-0.23828 1.4375-0.34375 2.2266-0.58203 2.6641 2.2617 5.5703 4.2383 8.6562 5.8672 0.21875 0.11328 0.47266 0.027344 0.58203-0.17969 0.10938-0.21094 0.03125-0.47266-0.17969-0.58203-2.8867-1.5234-5.6055-3.3672-8.1211-5.4531 0.60156-0.27734 0.87891-0.49219 1.1836-0.78125 4.7617 0.46875 9.4844 2.5078 13.121 5.7383 0.17969 0.16016 0.45312 0.14062 0.60938-0.035156 0.16016-0.17969 0.14062-0.45312-0.035156-0.60938-3.6328-3.2227-8.3047-5.3164-13.055-5.9062 0.058594-0.097657 0.10938-0.19531 0.15625-0.30078 3.6172-0.33203 7.7734-2.7266 12.922-1.3477 2.7852 0.74609 5.4336 2.582 7.418 5.0977 2.7109 4.5234 3.418 9.8828 3.918 15.148 0.066407 0.67578-0.41406 1.293-1.0938 1.4023zm-17.473-49.695c4.6211-1.4531 10.609-0.78906 15.211-0.125 0.67188 0.09375 1.1562 0.70312 1.1016 1.3906-0.70703 9.1211 0.023438 16.891-8.7227 21.715-0.84766 0.32812-2.5898 1.3281-6.9023 2.1797-2.2031 0.4375-4.7852 0.96484-6.8984 1.2734-0.51172-0.60938-0.94531-0.92578-1.4609-1.5039 4.6289-0.46484 9.0938-2.4844 12.465-5.6914 0.41406-0.39453-0.1875-1.0195-0.59375-0.62109-3.3359 3.1719-7.7891 5.1211-12.375 5.4844-0.09375-0.33984-0.066406-0.52344 0.046875-0.84375 3.7539-3.4492 7.8906-6.4648 12.363-8.9219 0.20703-0.11328 0.28516-0.375 0.17188-0.58594-0.11719-0.21094-0.37891-0.28516-0.58594-0.17188-4.0352 2.2148-7.8047 4.8789-11.273 7.9023 0.085938-0.73828-0.29688-1.3594-0.8125-1.6875-0.039062-0.039063-0.089843-0.058594-0.12891-0.09375 2.9805-3.1211 12.301-8.0117 8.3945-19.699zm-18.68 33.809c-0.83203 1.2305-1.6602 2.5-2.4727 3.8047-1.7539 1.625-3.1758 2.957-5.7539 4.4805-0.20703 0.12109-0.27344 0.38281-0.15234 0.58984 0.125 0.21484 0.39844 0.26953 0.58984 0.15234 1.5234-0.89844 2.7656-1.832 3.8516-2.75-2.3281 4.2812-3.8594 9.0508-2.8516 13.801-4.3867 1.9023-9.9883 1.5586-14.996 1.7734-0.66406 0.0625-1.2695-0.47656-1.3516-1.1406-0.41406-3.625-0.78906-7.7969-0.20703-11.766 9.2773 3.168 16.402-2.875 23.055-9.5312 0.16016 0.38281 0.19141 0.41406 0.28906 0.58594zm-5.5977-30.207c0.027344-0.62109 0.16406-1.4844 0.14063-1.3086 1.4648-5.4258 6.5781-9.4414 10.574-13.508 0.49609-0.48047 1.2812-0.51953 1.793-0.074218 2.875 2.5039 5.8633 5.2188 8.0742 8.4297 2.3906 3.5234 3.7617 7.4531 3.1875 11.691-1.5469 5.4961-5.9922 7.5-8.6875 10.453-0.23047-0.078124-0.46094-0.14844-0.69531-0.1875 1.4648-3.4336 2.3672-7.0938 2.6172-10.746 0.035156-0.53906-0.81641-0.66797-0.85938-0.058594-0.25 3.6367-1.1797 7.2773-2.668 10.688-1.3672-0.15234-2.6367-0.25391-3.9922 0.007813 0.082031-4.2891-0.51953-8.543-1.8867-12.668-0.18359-0.55078-0.99609-0.26562-0.81641 0.26953 1.3633 4.1094 1.9492 8.3477 1.8359 12.621-0.71484 0.25-0.75391 0.27344-0.875 0.32812l-1.5234-2.3047c0.40625-0.41406 0.53125-1.1328 0.14453-1.5859-0.31641-0.37109-0.91016-0.51953-1.4102-0.41797-0.56641-0.9375-0.40625-0.69141-1.6367-2.7734 0.37109-0.42188 0.47656-1.1055 0.10547-1.5391-0.30078-0.35547-0.85547-0.51172-1.3438-0.4375-0.87891-1.3477-0.53516-0.86719-1.2812-1.8047 0.60156-0.33594 0.86719-1.2188 0.41406-1.7539-0.23828-0.28125-0.63281-0.42969-1.0312-0.44922-0.13281-0.96875-0.21094-1.9219-0.17969-2.8711zm-8.4531 27.684c0.82812-0.097656 5.9297 0.15234 12.324-2.7539 0.33203 0.46484 0.54688 1.0117 0.68359 1.5469-1.7109 1.3242-4.8125 4.8555-10.801 5.0703-0.55859 0.019531-0.54688 0.86328 0.015625 0.86328h0.015625c6.0977-0.21875 9.3711-3.6953 10.969-5.0039 0.050781 0.25781 0.13281 0.73828 0.26953 1.2891-3.8945 3.8984-8.0781 8.1133-13.551 9.7852-7.1992 1.4453-12.984-3.6445-18.809-7.4414-0.58203-0.36719-0.77344-1.1133-0.43359-1.7109 2.0781-3.7656 4.4414-7.6289 7.5977-10.547 5.0625 6.7773 13.371 6.957 21.711 6.1992-3.2031 1.1797-6.6055 1.8242-9.9961 1.8438-0.23828 0-0.42969 0.19531-0.42969 0.43359 0.007812 0.23438 0.19922 0.42578 0.43359 0.42578zm7.8047-24.59c-0.058594 0.039062-0.11328 0.082031-0.16016 0.13672-0.30078-0.28125-0.61328-0.61328-1.1406-0.81641-0.82031-0.30859-1.8984 0.03125-2.0195 1.1758-1.207 0.4375-0.61328 2.1602 0.64063 2.2344 0.19531 0.34766 0.40234 0.68359 0.62109 0.98828-0.92188 0.73828 0.15625 2.3945 1.3125 2.0625 0.066407-0.019531 0.10938-0.074219 0.16797-0.10547l1.8867 2.4727c-0.011719 0.050782-0.03125 0.09375-0.035157 0.14844-0.027343 0.66406 0.55078 1.2773 1.1953 1.375 0.13281 0.17578 3.0234 3.9766 2.8477 3.7422 0.33203 0.44141 0.66406 0.88281 1.0078 1.375-0.26953 0.19922-0.5625 0.38281-0.88672 0.55078-5.3047-2.2227-9.9492-6.1953-12.898-11.121-0.12109-0.20703-0.39063-0.26953-0.58984-0.14844-0.20312 0.12109-0.26953 0.38672-0.14844 0.58984 2.918 4.8789 7.4531 8.8711 12.652 11.211-0.55469 0.29688-1.0312 0.51953-1.6211 1.2812-4.0977-1.0312-7.9609-3.1367-10.984-6.0508-0.17188-0.16406-0.44141-0.16016-0.60938 0.011719-0.16406 0.17188-0.16016 0.44531 0.011719 0.60938 3.0703 2.957 6.9727 5.1055 11.125 6.1914-0.26562 0.625-0.30859 1.3047 0.03125 1.9336 0.26172 0.47656 0.67578 0.78125 1.0625 1.0547-5.3555 0.49609-11.344 1.0938-16.699-1.2617-0.015625-0.007813-0.019531-0.027344-0.035156-0.035156-0.078125-0.03125-0.19531-0.09375-0.26953-0.13281-6.3516-3.7305-7.418-10.934-9.5156-17.598-0.19922-0.66406 0.13281-1.3711 0.76562-1.6133 6.5312-2.5469 13.613-4.8359 20.168-2.1211 0.71094 0.37109 1.3867 0.79297 2.0078 1.2734 0.023438 0.19141 0.078125 0.39062 0.10938 0.58594z"/></svg>