<svg xmlns="http://www.w3.org/2000/svg" xmlns:xlink="http://www.w3.org/1999/xlink" version="1.1" x="0px" y="0px" viewBox="0 0 268 335" style="enable-background:new 0 0 268 268;" xml:space="preserve"><g fill="#F1F0EA"><path d="M48.76054,130.24548c9.75464,4.8645,15.52509,4.68384,16.23553,4.88403   c-0.54254-0.2583-20.38403-6.83032-32.51733-22.42285c-5.19818-6.36963-5.43866-7.45093-7.13708-9.89111   C29.33397,114.37219,35.44231,122.61658,48.76054,130.24548z"/><path d="M240.09514,242.9386c5.65088-1.26831,10.51587-6.13843,10.65918-12.73267   c-0.00793-0.21533-0.01221-0.33008-0.01221-0.33008c-2.1084,3.84473-4.4751,7.24316-9.12781,9.41211   c-6.15198,2.81641-11.98096,0.90942-13.08765,0.78784C228.62737,240.12952,232.68376,244.51697,240.09514,242.9386z"/><path d="M80.6815,27.30652c-3.87103-2.94263-9.71143-4.58643-14.04779-4.40259c-3.80475,0.07202-6.15454,1.1687-6.29071,1.19775   c18.02081,3.03955,19.33423,5.58374,24.81537,7.7854C83.88341,30.17468,82.94713,28.95032,80.6815,27.30652z"/><path d="M157.75224,137.1554c-12.82214,1.52441-17.70789,14.26172-16.28613,20.69531   c0.14978,0.79883,0.27002,1.2561,0.27002,1.2561c1.59558-6.13745,2.6156-8.21045,5.62915-12.71143   C147.89482,145.72839,154.77483,139.10779,157.75224,137.1554z"/><path d="M149.70647,184.51917c0.10022,0.05371,1.45288,0.77759,1.35266,0.72388   c32.47937,17.41211,39.5365,27.20215,64.73254,46.17188c2.83167,2.06323,4.48511,3.19092,4.48511,3.19092   c-17.96191-18.43042-32.98511-34.4021-54.40747-46.82275c2.87341-7.58545,1.495-6.23047,8.68738-19.77148   c-0.28625,0.26831-6.8429,2.81006-9.00928,12.69287c-0.41174,2.39209-0.51062,4.58447,0.09631,6.94824   c-5.6853-3.29395-9.37231-4.93335-13.76111-6.98193c-1.40247-0.66406-1.94934-2.59424-1.85645-4.37134   c-0.01697-0.81958,0.91711-6.6748,3.01123-11.98389c3.97778-10.06958,10.00891-15.90869,10.44653-16.49243   c-0.33752,0.30078-7.91736,5.22119-13.04956,15.3125c-1.89856,3.65112-4.76306,11.14502-4.42346,15.17358   C146.25798,180.88977,147.51775,183.24133,149.70647,184.51917z"/><path d="M127.12566,146.54749c-2.70789,6.8396-2.56323,12.35913,1.65515,18.29004   c3.71594,5.1897,10.09705,8.82715,16.81384,8.58765c0.29956-0.01147,0.33008-0.44507,0.03638-0.49854   c-2.29773-0.4292-4.66016-1.14502-7.69885-3.21143c-9.4447-6.42407-8.59326-15.45801-8.58374-13.89429   c0.5752-11.02466,11.1427-21.26929,10.33069-20.4187c10.46045-9.80786,20.44104-9.0127,28.55994-0.27002   c1.04968,1.17383,2.04858,2.33936,3.05591,3.54663c26.19788,32.6792,6.47888,1.4585,79.77942,68.69507   c-11.55273-0.65137-22.73499,10.17285-27.87646,20.53418c-7.36841-12.99854-19.79712-25.5791-31.3385-32.95923   c-7.21082-4.79004-12.19666-6.71606-13.03711-7.16626c18.75793,12.78906,29.82166,21.17017,44.13831,40.6355   c-2.78552,5.79419-4.45776,11.10034-0.83557,17.00366c1.07507,1.76074,2.55518,3.2666,4.33789,4.32935   c3.11267,1.83643,6.39465,1.59546,6.29346,1.59277l0.08667,0.0022l0.04333,0.00122   c-0.07861,0.01123,0.15576-0.01343,0.14795-0.01221l0.17737-0.01001c3.45984-0.25098,6.92688-0.63672,10.19678-1.84985   c12.99916-4.46289,19.4911-18.95874,19.55165-27.86523c-0.01147-4.17871-3.33667-12.55249-9.94875-13.98608   c-30.2937-39.85742-57.56934-50.33813-66.78918-57.33325c-14.98047-11.10083-21.00256-28.28174-39.27112-23.10303   c11.31372-14.57031,7.89307-34.63965-1.30103-50.72266C110.10655,15.3363,30.21104-2.84046,14.36259,40.2135   C4.91283,51.31628,3.73961,70.26599,6.06621,84.72986C15.68199,144.16907,95.62114,178.09656,127.12566,146.54749z    M259.87994,216.255c4.38708,5.80054,3.34998,16.86597-10.11452,24.99683c-8.94751,5.4165-16.49182,7.22852-17.11389,7.34888   c0.04236-0.00366,0.10474-0.00952,0.0343-0.00146c-0.14661,0.02563-0.57166,0.10034-0.47058,0.08252   c-0.10022,0.01709-1.13037,0.19287-1.03015,0.17578c-3.48572,0.19507-6.17969-1.53003-7.76563-4.21729   c-4.05798-6.71094,1.51746-13.45117,6.59119-19.56689C237.80949,215.79675,252.41447,206.65393,259.87994,216.255z    M90.10631,27.22546c20.53552,10.77051,41.10785,33.05518,51.3587,51.62402c11.91528,21.84204,5.60474,36.68042,5.61023,37.07178   c-0.34729,0.78101-1.87451,5.79614-6.14233,10.33057c-0.10095,0.10107-2.08972,2.0896-1.96338,1.96338   c-0.60925,0.50586-0.39026,0.32251-0.99707,0.82788c6.57825-12.96387-0.58875-36.00073-7.39722-48.4834   c-8.3197-15.34497-18.20624-24.37646-30.2851-32.62524C74.18462,31.02893,51.96654,22.89709,23.32732,33.94739   c-0.87659,0.31885-1.21667,0.50659-1.625,0.70728C35.25426,13.34363,68.56541,15.6654,90.10631,27.22546z M16.66936,50.651   c0.08325-0.46875,0.07556-7.02905,3.96527-14.17847c5.12384-1.354,10.72699-2.39941,17.22607-2.95215   c-7.4762,2.15991-13.70551,6.3457-17.65094,13.09473c-5.23895,8.85059-2.55383,15.97998-2.57947,16.26318   c0.0611-0.30566-1.50763-7.2605,4.02759-15.34473c13.12189-19.0083,45.28235-13.82983,65.20447-2.78076   c7.24316,3.81006,13.1853,8.87549,13.64215,9.18896c-0.66357-0.55713-7.08917-8.44678-20.36444-14.94189   c37.91504,13.55859,58.32739,62.92676,56.69055,83.60938c-0.27893,3.35132-1.44116,6.76636-2.96985,9.44678   c-1.0127,0.45703-10.69165,7.43896-26.97156,6.9043c-0.33038-0.00073-0.87695-0.05127-0.77679-0.0437   c-14.25012-1.08984-27.46143-4.69556-47.51349-18.55225c-13.20953-8.8999-31.08722-28.65649-38.1192-46.76855   C15.37993,60.0575,16.67876,50.49817,16.66936,50.651z M13.66319,42.3031c-1.4433,4.77002-1.5152,9.14673-1.50842,9.04663   c-0.00421,0.10059-0.04895,1.17456-0.04474,1.07397c-0.2569,7.56836,1.52197,15.44238,4.69965,22.68335   c5.2962,12.23242,21.76929,32.64648,46.2309,48.82227c20.68817,13.45801,44.33087,25.09863,68.08679,15.08325   c-1.20093,1.74658-2.09692,3.32202-2.92139,5.05078C95.98143,175.44373,8.56517,135.76599,7.98979,68.09021   C7.87785,59.37317,9.25786,49.91052,13.66319,42.3031z"/><path d="M232.62358,248.60168c-0.04065,0.01099-0.02148,0.00854,0.02795-0.00098   C232.62907,248.60242,232.61113,248.60388,232.62358,248.60168z"/><path d="M84.69231,149.91711c0.26514,0.02563,0.51715-0.17236,0.5415-0.45483c0.02393-0.27515-0.17969-0.51733-0.45459-0.54126   c-6.77295-0.58838-13.29883-3.40259-18.37598-7.92432c-0.49396-0.44019-1.159,0.3064-0.66504,0.74658   C70.97502,146.40759,77.70647,149.31042,84.69231,149.91711z"/><path d="M155.65666,169.74451c0.32178-5.69678,3.80566-11.06909,8.87549-13.68628c0.58911-0.30444,0.12622-1.19312-0.45898-0.88867   c-5.37793,2.77661-9.07324,8.47534-9.41455,14.5188c-0.02881,0.50781,0.59961,0.57715,0.49951,0.52808   C155.42131,170.21643,155.64201,170.01062,155.65666,169.74451z"/><path d="M229.97649,228.73962c0.51294-0.41919-0.12256-1.19336-0.63281-0.77441   c-4.39648,3.59375-5.20215,10.68335-1.72461,15.17188c0.39636,0.51367,1.19922-0.08545,0.79004-0.6123   C225.3051,238.51794,226.05217,231.94739,229.97649,228.73962z"/><path d="M144.55998,104.67029c-0.00342,0.27612,0.21729,0.50293,0.49365,0.50659c0.10132-0.04419,0.50073-0.03979,0.50635-0.49341   c0.14697-11.16211-4.52148-22.49438-12.48779-30.31396c-0.47144-0.46265-1.1731,0.24976-0.7002,0.71387   C140.1469,82.71545,144.70354,93.776,144.55998,104.67029z"/></g></svg>