<?xml version="1.0" encoding="UTF-8"?>
<!DOCTYPE svg PUBLIC "-//W3C//DTD SVG 1.1//EN" "http://www.w3.org/Graphics/SVG/1.1/DTD/svg11.dtd">
<svg xmlns="http://www.w3.org/2000/svg" version="1.1" width="1183px" height="1229px" style="shape-rendering:geometricPrecision; text-rendering:geometricPrecision; image-rendering:optimizeQuality; fill-rule:evenodd; clip-rule:evenodd" xmlns:xlink="http://www.w3.org/1999/xlink">
<g><path style="opacity:0.973" fill="#F1F0EA" d="M 1182.5,857.5 C 1182.5,860.167 1182.5,862.833 1182.5,865.5C 1165.21,889.806 1141.54,900.639 1111.5,898C 1098.79,896.985 1087.12,892.985 1076.5,886C 1061.53,870.029 1046.2,854.362 1030.5,839C 1021.91,832.089 1012.08,829.256 1001,830.5C 980.735,830.516 961.235,834.349 942.5,842C 938.205,842.912 933.872,843.579 929.5,844C 915.438,844.05 901.438,843.217 887.5,841.5C 885.885,842.154 884.218,842.654 882.5,843C 904.135,876.441 926.635,909.274 950,941.5C 964.58,969.007 980.913,995.341 999,1020.5C 1003,1026 1004.17,1032 1002.5,1038.5C 998.312,1039.86 994.312,1039.36 990.5,1037C 942.294,1006.79 894.627,975.787 847.5,944C 820.415,926.036 792.581,909.202 764,893.5C 761.532,894.104 759.532,895.438 758,897.5C 751.048,912.322 750.714,927.322 757,942.5C 764.061,956.895 774.561,968.061 788.5,976C 811.01,997.196 823.177,1023.36 825,1054.5C 826.778,1075.84 826.611,1097.17 824.5,1118.5C 822.775,1147.55 834.109,1169.72 858.5,1185C 864.177,1189.19 867.01,1194.69 867,1201.5C 864.831,1205.01 861.664,1207.18 857.5,1208C 833.415,1214.16 811.748,1209.49 792.5,1194C 768.698,1175.57 754.865,1151.4 751,1121.5C 750.622,1105.82 749.955,1090.15 749,1074.5C 747.792,1056.9 739.625,1043.73 724.5,1035C 715.246,1031.14 705.912,1027.47 696.5,1024C 681.541,1017.04 669.707,1006.54 661,992.5C 658.232,989.059 654.899,986.393 651,984.5C 645.101,988.608 641.435,994.275 640,1001.5C 639.039,1010.22 637.706,1018.89 636,1027.5C 632.353,1040.75 629.02,1054.09 626,1067.5C 617.973,1109.97 609.306,1152.3 600,1194.5C 597.922,1201.73 595.256,1208.73 592,1215.5C 588.285,1220.36 583.785,1221.36 578.5,1218.5C 576.806,1216.45 575.639,1214.11 575,1211.5C 574.085,1183.27 571.085,1155.27 566,1127.5C 553.172,1060.53 539.006,993.86 523.5,927.5C 506.981,927.488 496.147,935.488 491,951.5C 489.872,956.139 488.872,960.805 488,965.5C 486.706,983.873 485.039,1002.21 483,1020.5C 478.422,1046.98 467.422,1070.32 450,1090.5C 439.095,1103.41 426.928,1114.91 413.5,1125C 402.178,1134.98 392.345,1146.15 384,1158.5C 380.174,1165.15 377.174,1172.15 375,1179.5C 372.563,1192.09 370.563,1204.76 369,1217.5C 368.329,1222.19 366.162,1225.86 362.5,1228.5C 359.833,1228.5 357.167,1228.5 354.5,1228.5C 350.984,1225.84 348.15,1222.5 346,1218.5C 337.339,1202.51 330.339,1185.85 325,1168.5C 321.618,1154.02 322.285,1139.68 327,1125.5C 332.64,1108.55 340.64,1092.89 351,1078.5C 365.486,1061.68 378.819,1044.02 391,1025.5C 395.709,1017.3 397.043,1008.63 395,999.5C 388.928,981.283 383.261,962.95 378,944.5C 377.377,940.014 376.877,935.514 376.5,931C 377.404,924.512 377.571,918.012 377,911.5C 375.758,910.128 374.258,909.128 372.5,908.5C 367.713,910.393 363.047,912.56 358.5,915C 308.28,953.219 256.947,989.885 204.5,1025C 197.626,1028.94 190.626,1032.6 183.5,1036C 179.874,1036.84 178.207,1035.34 178.5,1031.5C 183.002,1014.18 191.502,999.182 204,986.5C 213.94,965.62 223.607,944.62 233,923.5C 238.835,915.168 244.168,906.501 249,897.5C 265.521,863.782 283.021,830.782 301.5,798.5C 301.11,795.107 299.11,793.274 295.5,793C 284.833,791 274.167,791 263.5,793C 258.72,794.556 254.387,796.889 250.5,800C 235.113,815.387 219.779,830.721 204.5,846C 197.86,851.989 190.527,856.989 182.5,861C 166.966,863.867 151.299,865.533 135.5,866C 108.156,866.276 80.8228,866.943 53.5,868C 45.5375,877.631 37.2042,886.964 28.5,896C 25.4534,899.126 21.9534,899.959 18,898.5C 17.1376,896.913 16.4709,895.246 16,893.5C 14.5269,874.287 15.8602,855.287 20,836.5C 27.4818,814.356 42.6485,800.523 65.5,795C 71.7525,793.283 78.0858,791.95 84.5,791C 99.1744,789.384 113.841,787.717 128.5,786C 141.854,784.241 153.021,778.407 162,768.5C 165.864,759.904 169.531,751.237 173,742.5C 188.634,720.699 207.134,701.699 228.5,685.5C 225.25,683.016 221.583,681.182 217.5,680C 210.536,678.176 203.536,676.509 196.5,675C 138.755,664.051 81.0884,652.718 23.5,641C 19.0099,639.726 14.6766,638.059 10.5,636C 6.44871,631.423 7.11537,627.423 12.5,624C 14.7173,622.725 17.0506,621.725 19.5,621C 78.5549,607.986 136.888,592.32 194.5,574C 220.829,566.668 247.496,561.001 274.5,557C 282.031,555.38 284.531,550.88 282,543.5C 277.188,533.354 269.354,526.854 258.5,524C 253.552,522.744 248.552,521.744 243.5,521C 219.728,519.233 196.061,516.566 172.5,513C 146.327,508.797 125.16,496.297 109,475.5C 97.2487,458.337 86.2487,440.671 76,422.5C 71.2231,414.789 65.3898,407.956 58.5,402C 54.6534,400.384 50.6534,399.384 46.5,399C 35.6537,398.303 24.8204,398.47 14,399.5C 9.63305,399.631 5.63305,398.631 2,396.5C 1.33333,394.167 1.33333,391.833 2,389.5C 14.7893,367.067 34.1226,354.734 60,352.5C 74.2554,354.378 87.4221,359.212 99.5,367C 106.784,371.95 113.784,377.283 120.5,383C 128.462,392.631 136.796,401.964 145.5,411C 156.89,419.964 169.89,424.464 184.5,424.5C 216.073,421.105 247.74,419.271 279.5,419C 285.747,418.986 291.747,417.986 297.5,416C 290.378,402.92 282.878,390.087 275,377.5C 242,329.5 209,281.5 176,233.5C 172.051,226.938 169.218,219.938 167.5,212.5C 167.709,207.709 170.043,204.709 174.5,203.5C 179.054,204.776 183.387,206.609 187.5,209C 213.12,229.485 240.454,247.485 269.5,263C 286.167,274.667 302.833,286.333 319.5,298C 341.164,310.163 362.497,322.83 383.5,336C 392.988,341.744 402.988,346.41 413.5,350C 417.167,350.667 420.833,350.667 424.5,350C 425,349.5 425.5,349 426,348.5C 428.509,339.468 427.509,330.801 423,322.5C 416.385,312.949 409.052,303.949 401,295.5C 384.511,281.683 370.177,266.016 358,248.5C 349.783,232.878 345.95,216.211 346.5,198.5C 348.213,175.188 349.546,151.855 350.5,128.5C 351.782,110.737 348.282,94.07 340,78.5C 329.338,67.5865 317.171,58.7532 303.5,52C 293.325,44.5488 294.325,39.5488 306.5,37C 360.73,30.1903 397.23,52.357 416,103.5C 419.224,113.288 421.558,123.288 423,133.5C 423.744,146.902 425.077,160.235 427,173.5C 431.522,189.043 440.355,201.543 453.5,211C 473.006,220.579 491.339,231.912 508.5,245C 515.167,251 521.833,257 528.5,263C 531.561,265.035 534.895,266.201 538.5,266.5C 548.696,208.63 558.196,150.63 567,92.5C 570.078,74.1872 574.412,56.1872 580,38.5C 585.427,24.3426 591.427,24.0093 598,37.5C 607.543,64.7963 615.876,92.463 623,120.5C 627.14,146.005 632.14,171.338 638,196.5C 646.605,225.585 654.271,254.918 661,284.5C 662.539,290.795 665.039,296.628 668.5,302C 670.274,302.97 672.107,303.804 674,304.5C 679.336,302.916 684.169,300.416 688.5,297C 695,291.833 701.5,286.667 708,281.5C 708.144,249.485 708.81,217.485 710,185.5C 711.887,164.966 720.72,148.132 736.5,135C 748.952,123.936 762.619,114.603 777.5,107C 786.657,100.323 795.157,92.8233 803,84.5C 807.907,78.349 812,71.349 812,63.5C 814.286,51.7463 813.952,40.0797 811,28.5C 809.71,26.208 808.043,24.208 806,22.5C 802.82,16.4425 802.82,10.4425 806,4.5C 810.813,1.66078 815.313,2.16078 819.5,6C 832.197,16.6936 842.697,29.1936 851,43.5C 859.248,64.896 861.581,86.896 858,109.5C 853.838,122.97 847.171,134.97 838,145.5C 829.667,155.167 821.333,164.833 813,174.5C 801.655,188.211 797.655,203.878 801,221.5C 803.409,236.212 806.076,250.879 809,265.5C 812.976,283.053 812.309,300.387 807,317.5C 804.834,321.086 801.834,323.753 798,325.5C 796.958,328.804 798.125,330.971 801.5,332C 805.833,334 810.167,334 814.5,332C 830.297,323.855 845.297,314.521 859.5,304C 888.321,282.09 917.321,260.423 946.5,239C 959.33,230.417 972.33,222.084 985.5,214C 1002.24,205.741 1007.07,210.241 1000,227.5C 951.756,293.621 907.756,362.621 868,434.5C 864.894,440.379 862.06,446.379 859.5,452.5C 859.709,453.086 860.043,453.586 860.5,454C 873.927,457.714 887.593,459.381 901.5,459C 904.618,457.941 907.618,456.608 910.5,455C 927.475,437.692 944.808,420.692 962.5,404C 980.335,389.924 1000.67,382.257 1023.5,381C 1047.48,379.842 1071.48,379.176 1095.5,379C 1106.73,378.824 1117.73,377.157 1128.5,374C 1132.33,372.254 1135.99,370.254 1139.5,368C 1146.3,361.378 1152.63,354.378 1158.5,347C 1161.13,344.983 1163.63,345.15 1166,347.5C 1174.94,405.732 1150.1,439.232 1091.5,448C 1073.53,448.763 1055.86,451.43 1038.5,456C 1026.65,460.513 1017.15,468.013 1010,478.5C 1003.08,490.674 996.412,503.007 990,515.5C 984.956,523.551 978.789,530.717 971.5,537C 961.815,543.176 952.481,549.843 943.5,557C 940.93,559.067 938.93,561.567 937.5,564.5C 939.837,567.322 942.837,569.155 946.5,570C 959.657,574.289 972.99,577.956 986.5,581C 1041.03,591.439 1095.36,602.772 1149.5,615C 1154.6,616.603 1158.26,619.77 1160.5,624.5C 1158.09,630.06 1153.76,633.227 1147.5,634C 1082.17,648 1016.83,662 951.5,676C 936.523,679.243 921.856,683.409 907.5,688.5C 913.782,704.952 923.116,719.452 935.5,732C 943.014,737.253 951.347,740.586 960.5,742C 977.139,743.921 993.806,745.588 1010.5,747C 1042.58,748.287 1068.08,761.787 1087,787.5C 1090.33,792.833 1093.67,798.167 1097,803.5C 1101.9,815.548 1107.57,827.214 1114,838.5C 1119.39,846.552 1126.89,851.385 1136.5,853C 1149.15,853.944 1161.82,854.61 1174.5,855C 1177.29,855.542 1179.96,856.376 1182.5,857.5 Z"/></g>
<g><path style="opacity:1" fill="none" d="M 839.5,43.5 C 841.328,46.135 842.495,49.135 843,52.5C 844.537,61.1868 846.204,69.8534 848,78.5C 848.887,91.0725 847.553,103.406 844,115.5C 841.73,120.098 839.063,124.431 836,128.5C 821.832,141.888 808.832,156.221 797,171.5C 787.111,184.955 783.444,199.955 786,216.5C 788.498,235.82 790.832,255.153 793,274.5C 793.838,286.539 793.504,298.539 792,310.5C 785.619,328.753 775.119,344.253 760.5,357C 755.368,360.713 749.701,362.38 743.5,362C 738.557,358.895 734.891,354.728 732.5,349.5C 733.137,346.893 734.304,344.56 736,342.5C 747.22,331.548 753.886,318.214 756,302.5C 757.999,290.595 758.832,278.595 758.5,266.5C 758.52,250.968 757.854,235.468 756.5,220C 755.927,199.721 761.76,181.554 774,165.5C 785.927,150.902 798.594,136.902 812,123.5C 821.164,113.17 828.83,101.837 835,89.5C 837.328,74.2163 838.828,58.883 839.5,43.5 Z"/></g>
<g><path style="opacity:1" fill="none" d="M 828.5,57.5 C 829.222,57.9175 829.722,58.5842 830,59.5C 831.271,73.4203 828.271,86.4203 821,98.5C 815.493,107.515 809.493,116.182 803,124.5C 788.633,139.199 774.633,154.199 761,169.5C 750.962,182.95 746.129,198.116 746.5,215C 746.856,226.87 747.69,238.703 749,250.5C 753.108,276.097 748.774,300.097 736,322.5C 722.984,342.755 705.817,347.255 684.5,336C 679.744,333.661 678.577,330.161 681,325.5C 687.686,318.579 695.186,312.746 703.5,308C 715.135,298.568 721.968,286.401 724,271.5C 724.667,262.833 724.667,254.167 724,245.5C 721.316,230.08 719.15,214.58 717.5,199C 718.185,190.612 720.685,182.778 725,175.5C 741.068,147.43 763.568,126.264 792.5,112C 798,107.167 803.5,102.333 809,97.5C 817.371,85.0911 823.871,71.7577 828.5,57.5 Z"/></g>
<g><path style="opacity:1" fill="none" d="M 357.5,62.5 C 359.199,62.3398 360.866,62.5065 362.5,63C 386.424,76.6585 400.591,97.1585 405,124.5C 408.585,146.176 412.251,167.843 416,189.5C 416.976,197.952 420.476,205.119 426.5,211C 444.572,226.207 464.905,237.54 487.5,245C 511.632,264.43 524.132,289.597 525,320.5C 524.587,328.914 520.253,333.247 512,333.5C 503.592,333.635 497.592,329.968 494,322.5C 490.463,308.21 484.796,294.877 477,282.5C 472.468,277.633 467.634,273.133 462.5,269C 447.174,261.341 432.507,252.675 418.5,243C 401.274,229.049 392.107,210.883 391,188.5C 389.786,162.187 389.12,135.854 389,109.5C 388.667,106.5 388.333,103.5 388,100.5C 387.71,98.9559 387.044,97.6226 386,96.5C 384.826,100.046 384.16,103.713 384,107.5C 383.333,135.5 383.333,163.5 384,191.5C 384.356,199.695 385.69,207.695 388,215.5C 394.29,228.892 403.123,240.392 414.5,250C 426.984,259.411 439.984,268.078 453.5,276C 473.756,293.123 481.923,314.623 478,340.5C 472.174,346.329 465.341,350.496 457.5,353C 454.697,353.755 452.03,353.422 449.5,352C 446.433,348.703 444.267,344.869 443,340.5C 442.357,328.235 438.357,317.235 431,307.5C 417.029,292.529 402.696,277.862 388,263.5C 380.953,255.455 374.287,247.122 368,238.5C 362.748,224.488 360.582,209.988 361.5,195C 361.667,188.5 361.833,182 362,175.5C 364.164,158.852 366.164,142.185 368,125.5C 368.667,118.833 368.667,112.167 368,105.5C 365.193,90.9577 361.693,76.6243 357.5,62.5 Z"/></g>
<g><path style="opacity:1" fill="none" d="M 582.5,94.5 C 583.931,94.8807 584.764,95.8807 585,97.5C 589.649,170.775 590.649,244.109 588,317.5C 575.208,321.829 562.041,323.662 548.5,323C 547.874,322.25 547.374,321.416 547,320.5C 546.333,314.5 546.333,308.5 547,302.5C 559.194,239.195 569.194,175.528 577,111.5C 578.541,105.712 580.374,100.045 582.5,94.5 Z"/></g>
<g><path style="opacity:1" fill="none" d="M 601.5,102.5 C 603.749,106.456 605.249,110.789 606,115.5C 609.574,134.849 613.24,154.183 617,173.5C 627.961,214.679 638.295,256.012 648,297.5C 649.878,305.122 650.378,312.789 649.5,320.5C 647.833,321.333 646.167,322.167 644.5,323C 636.167,323.667 627.833,323.667 619.5,323C 610.204,322.036 605.37,316.87 605,307.5C 602.844,285.554 601.51,263.554 601,241.5C 600.177,195.126 600.344,148.792 601.5,102.5 Z"/></g>
<g><path style="opacity:1" fill="none" d="M 206.5,251.5 C 208.595,252.412 210.595,253.579 212.5,255C 252.639,296.139 293.139,336.972 334,377.5C 343.037,386.869 351.704,396.535 360,406.5C 364.283,411.739 365.616,417.739 364,424.5C 362.892,431.503 360.059,437.67 355.5,443C 349.324,446.48 343.324,446.147 337.5,442C 330.667,436.5 324.5,430.333 319,423.5C 286.737,371.296 252.737,320.296 217,270.5C 212.968,264.434 209.468,258.101 206.5,251.5 Z"/></g>
<g><path style="opacity:1" fill="none" d="M 955.5,251.5 C 956.239,251.369 956.906,251.536 957.5,252C 931.629,276.87 906.796,302.703 883,329.5C 859.41,354.093 834.91,377.593 809.5,400C 806.298,401.483 802.964,401.817 799.5,401C 789.217,397.04 781.051,390.54 775,381.5C 774.333,380.5 774.333,379.5 775,378.5C 778.167,375.333 781.333,372.167 784.5,369C 842.609,331.292 899.609,292.126 955.5,251.5 Z"/></g>
<g><path style="opacity:1" fill="none" d="M 239.5,265.5 C 244.701,267.098 249.701,269.265 254.5,272C 304.5,302.333 354.5,332.667 404.5,363C 407.965,365.463 411.131,368.296 414,371.5C 414.841,375.12 414.174,378.454 412,381.5C 404.151,389.843 394.984,396.343 384.5,401C 380.793,401.996 377.459,401.33 374.5,399C 329.096,358.599 285.263,316.432 243,272.5C 241.295,270.423 240.128,268.09 239.5,265.5 Z"/></g>
<g><path style="opacity:1" fill="none" d="M 947.5,275.5 C 949.355,275.272 950.188,275.939 950,277.5C 947.667,279.833 945.333,282.167 943,284.5C 919.75,325.347 894.75,365.014 868,403.5C 860.826,415.178 854.159,427.178 848,439.5C 845.766,443.458 842.933,446.958 839.5,450C 838.5,450.667 837.5,450.667 836.5,450C 827.321,440.43 821.154,429.263 818,416.5C 851,379.5 884,342.5 917,305.5C 927.062,295.271 937.228,285.271 947.5,275.5 Z"/></g>
<g><path style="opacity:1" fill="none" d="M 540.5,890.5 C 536.702,891.483 532.702,891.817 528.5,891.5C 524.895,891.201 521.561,890.035 518.5,888C 511.968,880.758 503.968,878.424 494.5,881C 457.12,866.155 423.453,845.488 393.5,819C 374.421,798.262 357.255,776.095 342,752.5C 337.659,742.799 333.325,733.132 329,723.5C 327.5,722 326,720.5 324.5,719C 322.324,718.837 320.491,718.004 319,716.5C 319.964,709.238 320.297,701.904 320,694.5C 315.728,682.545 313.062,670.211 312,657.5C 305.858,607.157 311.525,558.157 329,510.5C 345.117,477.418 364.784,446.751 388,418.5C 414.038,394.217 443.538,375.05 476.5,361C 547.805,329.401 620.138,327.067 693.5,354C 711.831,360.663 728.831,369.663 744.5,381C 748.088,382.963 751.755,384.63 755.5,386C 790.699,413.963 819.199,447.463 841,486.5C 884.995,578.649 882.662,669.649 834,759.5C 813.74,795.429 786.24,824.596 751.5,847C 724.147,866.675 694.147,881.008 661.5,890C 633.157,896.293 604.49,898.96 575.5,898C 565.929,897.047 558.262,892.714 552.5,885C 543.731,878.924 534.065,876.924 523.5,879C 522.5,881.091 523.167,882.757 525.5,884C 530.288,886.729 535.288,888.896 540.5,890.5 Z"/></g>
<g><path style="opacity:1" fill="#F1F0EA" d="M 552.5,350.5 C 577.208,350.148 601.874,350.982 626.5,353C 638.912,354.535 651.245,356.535 663.5,359C 689.363,368.431 714.363,379.765 738.5,393C 741.39,394.938 744.056,397.105 746.5,399.5C 744.926,400.631 743.259,400.798 741.5,400C 711.265,384.589 679.932,371.922 647.5,362C 640.273,360.231 632.94,359.231 625.5,359C 595.129,358.029 564.796,358.696 534.5,361C 522.975,361.921 511.642,363.921 500.5,367C 488.972,371.343 477.305,375.176 465.5,378.5C 464.406,377.132 464.74,375.965 466.5,375C 493.975,362.136 522.641,353.969 552.5,350.5 Z"/></g>
<g><path style="opacity:1" fill="none" d="M 54.5,367.5 C 73.5143,368.59 89.3477,376.257 102,390.5C 103.333,393.167 104.667,395.833 106,398.5C 107.303,420.939 116.47,439.439 133.5,454C 143.938,464.054 156.271,470.721 170.5,474C 194.162,473.674 217.828,473.674 241.5,474C 255.112,474.754 268.445,477.087 281.5,481C 293.859,487.69 304.026,496.857 312,508.5C 314.741,517.62 312.574,525.453 305.5,532C 302.833,532.667 300.167,532.667 297.5,532C 288.263,526.099 279.596,519.432 271.5,512C 267.779,509.473 263.779,507.473 259.5,506C 236.186,505.548 213.019,503.382 190,499.5C 158.542,496.114 133.208,482.114 114,457.5C 104.909,443.658 96.576,429.325 89,414.5C 82.1041,403.216 73.2707,393.716 62.5,386C 57.0846,383.798 51.5846,381.964 46,380.5C 45.0187,373.652 47.8521,369.318 54.5,367.5 Z"/></g>
<g><path style="opacity:1" fill="#F1F0EA" d="M 564.5,367.5 C 601.859,368.48 638.525,373.98 674.5,384C 678.69,384.924 682.024,387.09 684.5,390.5C 683.5,390.833 682.5,391.167 681.5,391.5C 672.334,388.611 663.001,386.445 653.5,385C 624.455,381.625 595.455,377.958 566.5,374C 559.731,372.729 559.065,370.562 564.5,367.5 Z"/></g>
<g><path style="opacity:1" fill="none" d="M 1139.5,387.5 C 1149,386.136 1151.5,389.469 1147,397.5C 1130.52,415.659 1110.35,427.492 1086.5,433C 1069.6,435.597 1052.6,436.93 1035.5,437C 1031.22,438.473 1027.22,440.473 1023.5,443C 1005.84,460.328 991.675,480.161 981,502.5C 963.144,529.003 938.644,546.17 907.5,554C 901.5,554.667 895.5,554.667 889.5,554C 881.441,551.074 877.441,545.241 877.5,536.5C 877.222,528.011 881.055,522.678 889,520.5C 903.953,520.044 918.12,516.544 931.5,510C 938.626,505.208 944.793,499.375 950,492.5C 960.923,474.569 973.756,458.069 988.5,443C 1003.26,430.795 1020.26,423.795 1039.5,422C 1055.58,422.057 1071.58,421.057 1087.5,419C 1090.42,418.317 1092.76,416.817 1094.5,414.5C 1070.14,411.665 1045.81,412.832 1021.5,418C 999.013,422.656 980.513,433.823 966,451.5C 956.977,466.693 946.143,480.527 933.5,493C 919.223,502.748 903.39,506.915 886,505.5C 869.124,509.066 859.124,502.4 856,485.5C 854.386,477.764 857.553,473.264 865.5,472C 869.833,471.833 874.167,471.667 878.5,471.5C 890.83,472.306 903.163,472.472 915.5,472C 932.138,454.362 949.138,437.028 966.5,420C 976.599,411.116 988.266,405.116 1001.5,402C 1015.26,398.048 1029.26,395.382 1043.5,394C 1068.47,395.142 1093.47,395.475 1118.5,395C 1125.99,393.577 1132.99,391.077 1139.5,387.5 Z"/></g>
<g><path style="opacity:1" fill="#F1F0EA" d="M 466.5,394.5 C 468.665,394.116 470.332,394.783 471.5,396.5C 470.352,398.149 469.019,399.649 467.5,401C 457.638,406.926 447.638,412.26 437.5,417C 446.495,408.489 456.162,400.989 466.5,394.5 Z"/></g>
<g><path style="opacity:1" fill="none" d="M 123.5,419.5 C 125.199,419.34 126.866,419.506 128.5,420C 134.997,423.414 141.33,427.081 147.5,431C 153.498,434.5 159.831,437.167 166.5,439C 191.633,440.687 216.3,438.02 240.5,431C 269.373,427.307 296.039,433.307 320.5,449C 331.519,457.383 334.686,468.216 330,481.5C 329.167,483.667 327.667,485.167 325.5,486C 322.5,486.667 319.5,486.667 316.5,486C 304.05,480.942 291.717,475.609 279.5,470C 273.987,468.031 268.321,466.697 262.5,466C 241.644,465.532 220.811,466.032 200,467.5C 176.457,469.429 155.624,462.929 137.5,448C 129.457,442.231 124.457,434.564 122.5,425C 122.696,423.122 123.029,421.288 123.5,419.5 Z"/></g>
<g><path style="opacity:1" fill="#F1F0EA" d="M 739.5,429.5 C 741.308,429.491 742.975,429.991 744.5,431C 747.167,434.333 749.833,437.667 752.5,441C 744.202,441.531 739.869,437.698 739.5,429.5 Z"/></g>
<g><path style="opacity:1" fill="#F1F0EA" d="M 778.5,434.5 C 783.383,437.545 787.55,441.545 791,446.5C 791.667,447.167 791.667,447.833 791,448.5C 786.7,445.202 782.7,441.535 779,437.5C 778.517,436.552 778.351,435.552 778.5,434.5 Z"/></g>
<g><path style="opacity:1" fill="#F1F0EA" d="M 450.5,461.5 C 477.828,458.532 503.495,463.699 527.5,477C 538.678,481.408 547.011,478.408 552.5,468C 553.784,467.316 554.951,467.483 556,468.5C 559.898,477.424 562.231,486.758 563,496.5C 563.848,517.205 563.348,537.872 561.5,558.5C 562.542,576.831 563.542,595.164 564.5,613.5C 564.554,618.899 564.054,624.233 563,629.5C 559.708,632.057 557.374,635.391 556,639.5C 553.633,672.132 568.8,686.966 601.5,684C 617.793,681.374 626.959,671.874 629,655.5C 629.667,651.167 629.667,646.833 629,642.5C 626.943,634.063 624.609,625.73 622,617.5C 622.374,595.478 623.041,573.478 624,551.5C 623.144,545.597 621.477,539.931 619,534.5C 616.233,512.512 615.899,490.512 618,468.5C 618.779,467.272 619.779,466.272 621,465.5C 623.951,467.447 626.618,469.781 629,472.5C 633.727,478.897 638.06,485.564 642,492.5C 643.438,493.718 645.105,494.385 647,494.5C 658.213,489.811 669.379,484.978 680.5,480C 718.58,470.256 755.58,473.256 791.5,489C 803.579,496.411 813.746,505.911 822,517.5C 824.285,521.187 825.452,525.187 825.5,529.5C 823.473,529.662 821.473,529.495 819.5,529C 814.396,526.196 810.23,522.363 807,517.5C 804.825,512.714 802.659,508.047 800.5,503.5C 798.066,507.253 795.899,511.253 794,515.5C 793.282,516.451 792.449,516.617 791.5,516C 788.46,510.087 785.294,504.253 782,498.5C 780.786,496.951 779.286,495.785 777.5,495C 771.167,494 764.833,493 758.5,492C 753.353,489.012 748.186,486.179 743,483.5C 741.289,483.439 739.956,484.106 739,485.5C 737.299,488.93 735.132,491.93 732.5,494.5C 724.899,493.694 718.233,490.861 712.5,486C 710.421,485.192 708.421,485.359 706.5,486.5C 705.376,492.448 705.21,498.448 706,504.5C 706.73,509.155 709.23,512.321 713.5,514C 717.5,514.667 721.5,514.667 725.5,514C 731.158,512.889 736.491,511.222 741.5,509C 758.114,519.718 770.947,533.885 780,551.5C 785.119,558.893 792.119,561.893 801,560.5C 807.005,560.771 812.838,559.938 818.5,558C 819.667,556.833 820.833,555.667 822,554.5C 823.207,549.332 824.874,544.332 827,539.5C 830.229,536.603 832.563,537.27 834,541.5C 835.177,557.635 828.01,568.135 812.5,573C 800.167,574.667 787.833,576.333 775.5,578C 770.72,579.556 766.387,581.889 762.5,585C 732.712,595.283 703.046,594.95 673.5,584C 667.843,581.507 662.51,578.507 657.5,575C 654.433,571.703 652.267,567.869 651,563.5C 647.114,558.285 642.78,557.619 638,561.5C 631.279,575.596 630.779,589.929 636.5,604.5C 636.833,604.833 637.167,605.167 637.5,605.5C 638.429,604.311 638.762,602.978 638.5,601.5C 640.39,601.297 641.89,601.963 643,603.5C 651.346,619.847 662.012,634.514 675,647.5C 681.143,656.99 683.143,667.323 681,678.5C 676.959,688.194 669.626,692.527 659,691.5C 654.594,691.764 650.427,690.931 646.5,689C 642.167,688.333 637.833,688.333 633.5,689C 623.207,694.146 613.207,699.813 603.5,706C 597.191,707.883 590.858,707.883 584.5,706C 567.551,698.477 549.884,694.811 531.5,695C 512.413,687.223 504.246,673.057 507,652.5C 508.393,648.714 510.059,645.048 512,641.5C 522.879,632.299 531.879,621.632 539,609.5C 546.546,601.358 548.212,602.691 544,613.5C 537.411,625.016 530.078,636.016 522,646.5C 512.492,661.306 515.826,671.973 532,678.5C 533.895,678.385 535.562,677.718 537,676.5C 538.197,673.911 539.197,671.244 540,668.5C 540.211,661.449 540.878,654.449 542,647.5C 546.21,633.872 550.21,620.206 554,606.5C 554.667,596.167 554.667,585.833 554,575.5C 552.211,567.752 547.378,565.252 539.5,568C 517.304,572.106 495.637,578.106 474.5,586C 469.833,586.667 465.167,586.667 460.5,586C 437.584,579.718 414.251,575.718 390.5,574C 374.681,572.019 362.848,564.185 355,550.5C 351.186,543.855 351.686,537.688 356.5,532C 364.111,532.728 370.278,536.228 375,542.5C 376.708,546.091 378.208,549.757 379.5,553.5C 392.928,554.302 403.428,548.969 411,537.5C 415.871,525.63 424.371,517.463 436.5,513C 445.603,509.578 454.936,506.912 464.5,505C 479.543,504.536 494.543,504.869 509.5,506C 515.39,503.038 517.89,498.205 517,491.5C 513.557,488.126 509.39,486.293 504.5,486C 493.167,485.667 481.833,485.333 470.5,485C 469.978,484.439 469.645,483.772 469.5,483C 470.278,480.61 471.445,478.443 473,476.5C 474.042,473.196 472.875,471.029 469.5,470C 465.833,469.333 462.167,469.333 458.5,470C 453.458,473.521 448.125,476.521 442.5,479C 436.422,479.296 430.422,478.962 424.5,478C 422.292,479.836 420.958,482.169 420.5,485C 418.32,485.419 416.154,485.252 414,484.5C 411.46,485.185 408.96,486.019 406.5,487C 396.974,492.595 387.974,498.929 379.5,506C 377.655,507.128 375.655,507.628 373.5,507.5C 373.717,503.015 375.217,499.015 378,495.5C 391.394,482.048 407.227,472.548 425.5,467C 433.869,464.696 442.202,462.862 450.5,461.5 Z"/></g>
<g><path style="opacity:1" fill="none" d="M 520.5,503.5 C 524.909,502.618 528.409,503.952 531,507.5C 531.729,511.333 530.063,512.999 526,512.5C 519.118,512.172 517.285,509.172 520.5,503.5 Z"/></g>
<g><path style="opacity:1" fill="none" d="M 536.5,517.5 C 541.494,517.329 543.328,519.662 542,524.5C 538.901,528.966 534.735,530.466 529.5,529C 528.446,527.612 528.28,526.112 529,524.5C 530.742,521.254 533.242,518.921 536.5,517.5 Z"/></g>
<g><path style="opacity:1" fill="none" d="M 716.5,521.5 C 719.247,521.187 721.914,521.52 724.5,522.5C 715.575,529.253 705.575,532.586 694.5,532.5C 695.313,531.186 696.313,530.019 697.5,529C 703.718,525.879 710.051,523.379 716.5,521.5 Z"/></g>
<g><path style="opacity:1" fill="none" d="M 636.5,526.5 C 643.77,526.276 648.103,529.609 649.5,536.5C 642.899,537.37 638.233,534.87 635.5,529C 635.743,528.098 636.077,527.265 636.5,526.5 Z"/></g>
<g><path style="opacity:1" fill="none" d="M 660.5,529.5 C 663.675,529.84 665.841,531.507 667,534.5C 666.697,540.336 664.364,541.003 660,536.5C 659.444,534.115 659.61,531.782 660.5,529.5 Z"/></g>
<g><path style="opacity:1" fill="none" d="M 463.5,531.5 C 467.273,531.263 470.94,531.763 474.5,533C 477.683,535.479 478.016,538.146 475.5,541C 473.048,541.29 470.715,541.956 468.5,543C 462.291,547.867 457.624,553.867 454.5,561C 454.759,562.261 455.426,563.261 456.5,564C 464.956,566.087 472.956,564.754 480.5,560C 482.5,557.667 484.5,555.333 486.5,553C 487.6,552.568 488.267,553.068 488.5,554.5C 476.972,577.206 462.139,579.539 444,561.5C 440.152,554.626 440.818,548.293 446,542.5C 451.228,537.752 457.061,534.086 463.5,531.5 Z"/></g>
<g><path style="opacity:1" fill="none" d="M 713.5,541.5 C 717.182,541.335 720.848,541.501 724.5,542C 727.287,544.167 728.12,547.001 727,550.5C 724.867,554.606 722.367,558.439 719.5,562C 724.117,568.049 729.784,569.049 736.5,565C 740.602,559.875 743.269,554.041 744.5,547.5C 745.002,546.479 745.668,546.312 746.5,547C 754.493,562.025 750.493,572.358 734.5,578C 712.595,580.756 702.428,571.256 704,549.5C 706.161,545.495 709.328,542.829 713.5,541.5 Z"/></g>
<g><path style="opacity:1" fill="none" d="M 506.5,546.5 C 513.53,546.565 519.697,548.899 525,553.5C 524.66,557.842 522.16,560.342 517.5,561C 507.945,562.766 503.445,558.933 504,549.5C 505.045,548.627 505.878,547.627 506.5,546.5 Z"/></g>
<g><path style="opacity:1" fill="none" d="M 676.5,556.5 C 685.132,555.472 690.799,558.972 693.5,567C 692.019,573.96 688.352,575.294 682.5,571C 678.908,568.287 675.408,565.453 672,562.5C 671.753,559.241 673.253,557.241 676.5,556.5 Z"/></g>
<g><path style="opacity:1" fill="none" d="M 284.5,563.5 C 288.106,563.211 291.606,563.544 295,564.5C 295.862,566.087 296.529,567.754 297,569.5C 297.667,580.5 297.667,591.5 297,602.5C 296.201,610.278 292.035,615.111 284.5,617C 269.95,619.611 255.284,621.278 240.5,622C 181.239,626.274 121.905,627.941 62.5,627C 61.062,626.781 59.7287,626.281 58.5,625.5C 60.0031,623.578 62.0031,622.412 64.5,622C 87.954,617.176 111.287,611.843 134.5,606C 184.449,591.184 234.449,577.017 284.5,563.5 Z"/></g>
<g><path style="opacity:1" fill="none" d="M 886.5,568.5 C 938.603,582.185 990.936,595.019 1043.5,607C 1061.58,611.708 1079.92,613.708 1098.5,613C 1104.82,614.082 1111.15,615.082 1117.5,616C 1118.67,616.419 1119.67,617.085 1120.5,618C 1117.15,620.091 1113.49,621.424 1109.5,622C 1092.68,622.982 1075.85,623.482 1059,623.5C 1002.49,622.091 945.992,620.425 889.5,618.5C 888.5,601.833 887.5,585.167 886.5,568.5 Z"/></g>
<g><path style="opacity:1" fill="#F1F0EA" d="M 329.5,584.5 C 330.117,584.611 330.617,584.944 331,585.5C 331.867,589.956 331.534,594.289 330,598.5C 328.177,593.933 328.01,589.266 329.5,584.5 Z"/></g>
<g><path style="opacity:1" fill="#F1F0EA" d="M 850.5,597.5 C 851.222,597.918 851.722,598.584 852,599.5C 852.985,607.625 852.485,615.625 850.5,623.5C 849.198,614.774 849.198,606.108 850.5,597.5 Z"/></g>
<g><path style="opacity:1" fill="none" d="M 634.5,613.5 C 640.729,614.404 643.729,618.071 643.5,624.5C 636.366,624.044 633.366,620.378 634.5,613.5 Z"/></g>
<g><path style="opacity:1" fill="none" d="M 179.5,631.5 C 209.835,631.333 240.168,631.5 270.5,632C 275.833,632.667 281.167,633.333 286.5,634C 288.519,634.45 290.352,635.283 292,636.5C 298.92,647.18 301.586,658.847 300,671.5C 298.272,674.953 295.438,676.786 291.5,677C 282.134,677.683 272.801,677.349 263.5,676C 226.991,668.789 190.658,660.789 154.5,652C 140.109,650.743 125.775,649.076 111.5,647C 102.397,645.872 93.397,644.205 84.5,642C 82.3215,641.558 81.6548,640.558 82.5,639C 85.4245,638.012 88.4245,637.346 91.5,637C 120.983,635.048 150.316,633.215 179.5,631.5 Z"/></g>
<g><path style="opacity:1" fill="none" d="M 949.5,631.5 C 997.51,631.191 1045.51,631.691 1093.5,633C 1087.68,635.289 1081.68,636.956 1075.5,638C 1025.58,646.851 975.914,656.851 926.5,668C 913.031,671.524 899.364,673.191 885.5,673C 884.667,672.167 883.833,671.333 883,670.5C 882.333,663.167 882.333,655.833 883,648.5C 885.737,640.034 891.57,635.201 900.5,634C 916.988,633.099 933.322,632.266 949.5,631.5 Z"/></g>
<g><path style="opacity:1" fill="none" d="M 644.5,631.5 C 654.955,640.119 663.789,650.119 671,661.5C 671.482,669.703 667.482,674.37 659,675.5C 656.077,675.205 653.743,673.871 652,671.5C 647.547,658.558 645.047,645.225 644.5,631.5 Z"/></g>
<g><path style="opacity:1" fill="#F1F0EA" d="M 334.5,663.5 C 334.824,670.354 334.491,677.021 333.5,683.5C 330.313,671.375 328.313,659.042 327.5,646.5C 327.667,644.5 327.833,642.5 328,640.5C 332.101,647.635 334.268,655.301 334.5,663.5 Z"/></g>
<g><path style="opacity:1" fill="#F1F0EA" d="M 849.5,641.5 C 850.787,642.871 851.453,644.705 851.5,647C 844.61,678.609 832.11,707.775 814,734.5C 811.318,737.35 808.484,740.016 805.5,742.5C 805.167,741.833 804.833,741.167 804.5,740.5C 805.33,738.172 806.163,735.838 807,733.5C 815.394,721.436 823.394,709.103 831,696.5C 835.486,677.542 841.653,659.208 849.5,641.5 Z"/></g>
<g><path style="opacity:1" fill="#F1F0EA" d="M 348.5,646.5 C 354.989,646.156 356.989,648.99 354.5,655C 353.451,655.492 352.451,655.326 351.5,654.5C 350.52,653.019 349.353,651.685 348,650.5C 347.421,649.072 347.588,647.738 348.5,646.5 Z"/></g>
<g><path style="opacity:1" fill="none" d="M 334.5,663.5 C 335.82,671.01 335.82,678.677 334.5,686.5C 333.614,685.675 333.281,684.675 333.5,683.5C 334.491,677.021 334.824,670.354 334.5,663.5 Z"/></g>
<g><path style="opacity:1" fill="none" d="M 267.5,690.5 C 279.591,688.895 290.924,691.062 301.5,697C 308.594,702.741 309.26,709.074 303.5,716C 289.002,720.099 274.335,723.433 259.5,726C 243.415,730.117 230.248,738.617 220,751.5C 213.333,762.167 206.667,772.833 200,783.5C 190.978,796.526 179.478,806.692 165.5,814C 153.691,818.286 141.691,821.952 129.5,825C 118.447,830.564 119.114,832.898 131.5,832C 150.816,828.45 169.15,822.117 186.5,813C 193.754,805.75 200.254,797.917 206,789.5C 214.915,774.175 225.415,760.008 237.5,747C 259.657,739.617 282.323,734.284 305.5,731C 319.024,727.522 324.524,732.689 322,746.5C 321.275,748.949 320.275,751.283 319,753.5C 304.377,771.054 285.544,779.221 262.5,778C 248.484,782.09 236.65,789.59 227,800.5C 217.621,813.552 207.121,825.718 195.5,837C 182.75,846.362 168.417,851.362 152.5,852C 122.501,851.616 92.5014,851.282 62.5,851C 59.7679,851.413 57.1013,852.08 54.5,853C 46.9796,858.01 38.813,861.51 30,863.5C 28.2894,863.561 26.956,862.894 26,861.5C 25.2617,857.739 25.5951,854.072 27,850.5C 40.1803,823.986 61.347,808.153 90.5,803C 108.915,802.174 127.249,800.508 145.5,798C 158.352,794.481 167.519,786.648 173,774.5C 177.62,763.297 182.62,752.297 188,741.5C 199.378,726.788 213.212,714.954 229.5,706C 241.836,699.729 254.503,694.562 267.5,690.5 Z"/></g>
<g><path style="opacity:1" fill="#F1F0EA" d="M 789.5,697.5 C 790.496,697.414 791.329,697.748 792,698.5C 793.174,703.94 792.174,708.94 789,713.5C 782.25,722.921 774.75,731.754 766.5,740C 764.473,741.879 762.14,743.046 759.5,743.5C 759.755,740.984 760.589,738.65 762,736.5C 770.045,727.458 777.711,718.124 785,708.5C 787.548,705.242 789.048,701.575 789.5,697.5 Z"/></g>
<g><path style="opacity:1" fill="#F1F0EA" d="M 813.5,698.5 C 814.88,698.962 815.547,699.962 815.5,701.5C 809.121,716.415 800.121,729.582 788.5,741C 783.917,741.934 782.417,740.1 784,735.5C 790.596,726.9 797.93,718.9 806,711.5C 809.536,707.761 812.036,703.427 813.5,698.5 Z"/></g>
<g><path style="opacity:1" fill="none" d="M 881.5,699.5 C 887.84,699.17 893.174,701.336 897.5,706C 908.118,718.073 918.618,730.24 929,742.5C 936.413,749.422 945.246,753.255 955.5,754C 979.36,755.961 1003.03,759.294 1026.5,764C 1044.25,767.957 1059.42,776.457 1072,789.5C 1089.29,813.985 1104.79,839.651 1118.5,866.5C 1124.68,866.933 1130.68,868.099 1136.5,870C 1139.52,872.264 1140.19,875.097 1138.5,878.5C 1136.21,880.48 1133.54,881.647 1130.5,882C 1104.08,882.976 1081.92,873.809 1064,854.5C 1055.5,844.667 1047,834.833 1038.5,825C 1024,814.094 1007.66,809.761 989.5,812C 983.454,813.119 977.454,814.452 971.5,816C 959.626,820.403 947.626,824.403 935.5,828C 901.927,832.698 874.094,822.198 852,796.5C 844.904,789.212 842.238,780.545 844,770.5C 850.649,757.506 860.482,754.34 873.5,761C 891.103,779.385 912.603,789.219 938,790.5C 953.15,789.45 968.316,788.783 983.5,788.5C 1019.69,785.351 1047.86,798.685 1068,828.5C 1074,838.5 1080,848.5 1086,858.5C 1090.53,865.377 1096.53,870.377 1104,873.5C 1107.74,873.146 1110.9,871.646 1113.5,869C 1104.64,860.47 1096.14,851.637 1088,842.5C 1077.58,828.746 1066.42,815.58 1054.5,803C 1037.4,786.956 1017.07,778.289 993.5,777C 971.502,777.111 949.502,777.111 927.5,777C 917.468,775.816 908.468,772.149 900.5,766C 892.067,759.571 884.234,752.404 877,744.5C 864.415,728.005 865.915,713.005 881.5,699.5 Z"/></g>
<g><path style="opacity:1" fill="#F1F0EA" d="M 359.5,705.5 C 366.046,712.901 371.879,720.901 377,729.5C 380.904,734.642 383.738,740.309 385.5,746.5C 383.345,746.628 381.345,746.128 379.5,745C 369.53,733.56 362.863,720.393 359.5,705.5 Z"/></g>
<g><path style="opacity:1" fill="#F1F0EA" d="M 754.5,717.5 C 755.376,717.369 756.043,717.702 756.5,718.5C 752.975,726.684 747.641,733.35 740.5,738.5C 739.337,736.45 739.504,734.45 741,732.5C 745.337,727.331 749.837,722.331 754.5,717.5 Z"/></g>
<g><path style="opacity:1" fill="#F1F0EA" d="M 395.5,725.5 C 401.459,729.625 406.626,734.625 411,740.5C 412.333,742.5 413.667,744.5 415,746.5C 415.749,747.635 415.583,748.635 414.5,749.5C 407.095,744.596 401.261,738.262 397,730.5C 395.991,728.975 395.491,727.308 395.5,725.5 Z"/></g>
<g><path style="opacity:1" fill="#F1F0EA" d="M 622.5,729.5 C 630.952,730.885 638.952,733.718 646.5,738C 660.864,743.931 675.53,744.931 690.5,741C 692.833,739.333 695.167,737.667 697.5,736C 701.025,735.342 703.859,736.509 706,739.5C 712.639,747.75 714.972,757.084 713,767.5C 711.992,769.259 710.492,770.426 708.5,771C 696.557,772.249 684.557,772.915 672.5,773C 666.841,773.996 663.007,777.162 661,782.5C 661.799,806.705 650.299,821.205 626.5,826C 609.913,829.983 593.58,829.316 577.5,824C 565.448,818.403 556.614,809.57 551,797.5C 537.289,781.226 520.123,770.393 499.5,765C 487.846,761.746 479.679,765.58 475,776.5C 472.966,779.859 470.632,780.192 468,777.5C 465.086,768.614 464.752,759.614 467,750.5C 469.174,741.827 474.674,738.327 483.5,740C 487.265,741.049 490.932,742.382 494.5,744C 502.479,745.849 510.479,745.849 518.5,744C 530.476,739.872 542.809,737.538 555.5,737C 574.85,736.181 594.184,735.181 613.5,734C 617.236,733.715 620.236,732.215 622.5,729.5 Z"/></g>
<g><path style="opacity:1" fill="#F1F0EA" d="M 422.5,730.5 C 426.642,732.12 430.142,734.786 433,738.5C 434.602,740.369 435.602,742.369 436,744.5C 432,741.167 428,737.833 424,734.5C 423.209,733.255 422.709,731.922 422.5,730.5 Z"/></g>
<g><path style="opacity:1" fill="#F1F0EA" d="M 356.5,733.5 C 362.773,734.266 366.773,737.766 368.5,744C 367.941,746.188 366.607,746.854 364.5,746C 361.333,744.167 358.833,741.667 357,738.5C 356.506,736.866 356.34,735.199 356.5,733.5 Z"/></g>
<g><path style="opacity:1" fill="none" d="M 615.5,745.5 C 630.621,744.723 645.288,746.89 659.5,752C 651.167,752.333 642.833,752.667 634.5,753C 631.107,753.798 627.774,754.798 624.5,756C 618.561,759.803 612.227,762.803 605.5,765C 593.322,766.124 581.322,765.124 569.5,762C 557.687,761.378 546.02,760.378 534.5,759C 545.75,747.806 559.083,744.14 574.5,748C 576.599,750.409 578.266,753.076 579.5,756C 586.44,756.933 593.106,755.933 599.5,753C 604.804,750.178 610.137,747.678 615.5,745.5 Z"/></g>
<g><path style="opacity:1" fill="none" d="M 331.5,769.5 C 334.928,769.547 337.928,770.713 340.5,773C 352.949,784.909 362.949,798.576 370.5,814C 342.458,848.574 314.291,883.074 286,917.5C 282.5,922.333 279,927.167 275.5,932C 276.212,933.425 276.379,934.925 276,936.5C 299.034,912.468 321.7,888.134 344,863.5C 354.934,851.561 366.767,840.727 379.5,831C 382.257,830.416 384.923,830.75 387.5,832C 398.333,837.5 406.5,845.667 412,856.5C 412.667,857.833 412.667,859.167 412,860.5C 408.167,865.667 403.667,870.167 398.5,874C 386.232,881.272 374.232,888.939 362.5,897C 332.925,919.233 302.259,939.9 270.5,959C 258.298,972.093 244.298,982.76 228.5,991C 226.167,991.667 223.833,991.667 221.5,991C 220.086,985.715 220.586,980.549 223,975.5C 228.788,961.924 235.121,948.591 242,935.5C 266.588,889.992 290.921,844.325 315,798.5C 318.275,791.8 316.442,787.133 309.5,784.5C 308.614,783.675 308.281,782.675 308.5,781.5C 318.263,781.452 325.93,777.452 331.5,769.5 Z"/></g>
<g><path style="opacity:1" fill="none" d="M 623.5,774.5 C 636.614,771.028 643.614,775.861 644.5,789C 644.917,795.028 642.917,800.028 638.5,804C 633.483,806.784 628.15,808.784 622.5,810C 610.167,810.667 597.833,810.667 585.5,810C 571.617,806.946 562.284,798.779 557.5,785.5C 558.269,782.896 559.936,781.062 562.5,780C 576.167,779.968 589.834,779.968 603.5,780C 610.616,779.39 617.283,777.557 623.5,774.5 Z"/></g>
<g><path style="opacity:1" fill="#F1F0EA" d="M 377.5,778.5 C 378.873,778.343 380.207,778.51 381.5,779C 385.167,783.333 388.833,787.667 392.5,792C 386.175,789.186 381.175,784.686 377.5,778.5 Z"/></g>
<g><path style="opacity:1" fill="#F1F0EA" d="M 759.5,794.5 C 760.573,795.251 760.74,796.251 760,797.5C 748.978,810.873 735.478,820.706 719.5,827C 715.967,827.903 712.633,827.57 709.5,826C 717.84,820.495 726.507,815.495 735.5,811C 743.678,805.637 751.678,800.137 759.5,794.5 Z"/></g>
<g><path style="opacity:1" fill="none" d="M 828.5,796.5 C 832.548,796.441 835.715,798.108 838,801.5C 844.582,810.996 850.915,820.662 857,830.5C 859.843,833.584 863.176,835.917 867,837.5C 867.673,842.519 869.34,847.186 872,851.5C 899.161,893.657 927.495,934.99 957,975.5C 959.333,980.167 961.667,984.833 964,989.5C 965.694,996.343 963.194,999.176 956.5,998C 924.815,982.5 895.482,963.5 868.5,941C 834.614,918.445 801.28,895.112 768.5,871C 766,868.5 763.5,866 761,863.5C 760.48,861.711 760.813,860.044 762,858.5C 769.31,850.43 778.143,844.763 788.5,841.5C 791.702,842.099 794.702,843.266 797.5,845C 802.5,848.667 807.5,852.333 812.5,856C 842.302,885.809 873.302,914.142 905.5,941C 908.034,942.934 910.701,944.268 913.5,945C 893.698,922.864 872.865,901.698 851,881.5C 836,865.167 821,848.833 806,832.5C 804.627,830.305 804.294,827.971 805,825.5C 811.212,814.461 819.045,804.795 828.5,796.5 Z"/></g>
<g><path style="opacity:1" fill="#F1F0EA" d="M 762.5,815.5 C 763.552,815.351 764.552,815.517 765.5,816C 743.603,836.541 718.77,852.708 691,864.5C 690.5,864.167 690,863.833 689.5,863.5C 692.898,859.303 696.898,855.803 701.5,853C 721.897,840.475 742.231,827.975 762.5,815.5 Z"/></g>
<g><path style="opacity:1" fill="#F1F0EA" d="M 416.5,819.5 C 416.56,818.957 416.893,818.624 417.5,818.5C 423.092,821.21 428.259,824.544 433,828.5C 433.483,829.448 433.649,830.448 433.5,831.5C 430.575,831.54 427.909,830.707 425.5,829C 422.268,825.938 419.268,822.771 416.5,819.5 Z"/></g>
<g><path style="opacity:1" fill="#F1F0EA" d="M 75.5,825.5 C 87.8588,825.362 100.192,825.862 112.5,827C 90.8174,829.354 69.9841,833.187 50,838.5C 57.1468,831.344 65.6468,827.011 75.5,825.5 Z"/></g>
<g><path style="opacity:1" fill="#F1F0EA" d="M 454.5,845.5 C 461.617,845.308 467.45,847.974 472,853.5C 472.667,854.167 472.667,854.833 472,855.5C 465.1,856.561 459.433,854.228 455,848.5C 454.517,847.552 454.351,846.552 454.5,845.5 Z"/></g>
<g><path style="opacity:1" fill="#F1F0EA" d="M 534.5,865.5 C 538.188,866.172 541.855,867.005 545.5,868C 548.124,868.576 548.791,869.91 547.5,872C 542.657,873.214 538.49,872.047 535,868.5C 534.517,867.552 534.351,866.552 534.5,865.5 Z"/></g>
<g><path style="opacity:1" fill="#F1F0EA" d="M 664.5,866.5 C 665.833,866.5 667.167,866.5 668.5,866.5C 668.896,869.044 668.229,871.211 666.5,873C 660.89,874.686 655.223,874.853 649.5,873.5C 654.507,870.954 659.507,868.62 664.5,866.5 Z"/></g>
<g><path style="opacity:1" fill="none" d="M 429.5,869.5 C 447.318,868.797 453.484,876.797 448,893.5C 433.841,920.455 427.841,949.122 430,979.5C 430.694,985.971 432.027,992.304 434,998.5C 435.04,1012.06 432.707,1025.06 427,1037.5C 419.429,1054.32 410.096,1069.99 399,1084.5C 388.869,1095.44 379.702,1107.11 371.5,1119.5C 371.833,1119.83 372.167,1120.17 372.5,1120.5C 379.117,1115.39 385.283,1109.72 391,1103.5C 404.527,1089.31 416.527,1073.98 427,1057.5C 435.209,1042.87 440.209,1027.21 442,1010.5C 442.936,985.49 443.603,960.49 444,935.5C 448.074,919.18 455.907,905.013 467.5,893C 484.044,888.51 496.878,893.677 506,908.5C 506.959,912.421 505.792,915.588 502.5,918C 491.026,921.474 483.526,928.974 480,940.5C 477.845,948.119 475.845,955.785 474,963.5C 472.628,983.572 470.628,1003.57 468,1023.5C 462.966,1045.24 452.966,1064.24 438,1080.5C 418,1099.17 398.667,1118.5 380,1138.5C 370.337,1151.15 361.671,1164.48 354,1178.5C 352,1181.17 350,1181.17 348,1178.5C 345.098,1173.56 343.432,1168.23 343,1162.5C 338.829,1135.52 344.829,1111.18 361,1089.5C 373.047,1075.12 384.714,1060.45 396,1045.5C 414.947,1017.49 415.28,989.16 397,960.5C 387.802,937.532 388.468,914.865 399,892.5C 405.973,880.597 416.14,872.93 429.5,869.5 Z"/></g>
<g><path style="opacity:1" fill="none" d="M 725.5,878.5 C 729.025,878.346 731.859,879.679 734,882.5C 735.725,885.674 737.058,889.007 738,892.5C 740.498,912.811 742.664,933.144 744.5,953.5C 760.456,967.955 775.956,982.955 791,998.5C 804.828,1015.98 811.495,1035.98 811,1058.5C 810.276,1094.33 812.276,1129.99 817,1165.5C 819.393,1170.68 821.393,1176.01 823,1181.5C 823.758,1183.77 823.591,1185.94 822.5,1188C 818.203,1187.87 814.203,1186.53 810.5,1184C 793.849,1173.68 781.016,1159.85 772,1142.5C 770.356,1137.92 769.022,1133.26 768,1128.5C 766.505,1106.4 764.171,1084.4 761,1062.5C 758.191,1046.35 750.025,1033.85 736.5,1025C 717.616,1017.9 700.283,1008.23 684.5,996C 665.148,978.125 656.481,955.958 658.5,929.5C 655.046,913.889 661.046,904.389 676.5,901C 679.833,900.333 683.167,900.333 686.5,901C 690.13,904.762 692.297,909.262 693,914.5C 694.101,943.195 705.267,967.028 726.5,986C 735.993,992.913 745.659,999.58 755.5,1006C 769.117,1018.39 778.284,1033.55 783,1051.5C 783.179,1066.21 784.013,1080.87 785.5,1095.5C 783.089,1099.81 781.256,1104.48 780,1109.5C 778.629,1123.26 780.296,1136.6 785,1149.5C 788.005,1154 792.005,1156 797,1155.5C 797.667,1154.5 797.667,1153.5 797,1152.5C 791.427,1144.78 788.427,1136.12 788,1126.5C 787.573,1106.65 788.073,1086.81 789.5,1067C 790.358,1051.24 786.524,1036.74 778,1023.5C 767.121,1006.95 753.288,993.454 736.5,983C 717.431,967.025 707.931,946.525 708,921.5C 707.333,913.833 707.333,906.167 708,898.5C 711.896,890.106 717.73,883.439 725.5,878.5 Z"/></g>
<g><path style="opacity:1" fill="none" d="M 540.5,890.5 C 541.473,890.987 542.473,891.487 543.5,892C 538.316,892.816 533.316,892.65 528.5,891.5C 532.702,891.817 536.702,891.483 540.5,890.5 Z"/></g>
<g><path style="opacity:1" fill="none" d="M 612.5,913.5 C 622.833,913.5 633.167,913.5 643.5,913.5C 643.5,914.833 643.5,916.167 643.5,917.5C 641.94,930.92 639.773,944.253 637,957.5C 627.692,994.067 618.692,1030.73 610,1067.5C 604.595,1100.67 598.261,1133.67 591,1166.5C 589.688,1168.66 588.022,1168.99 586,1167.5C 573.101,1088.01 557.768,1009.01 540,930.5C 537.44,922.385 534.607,914.385 531.5,906.5C 543.855,907.877 555.855,910.71 567.5,915C 572.428,916.927 575.594,920.427 577,925.5C 579.071,935.737 580.405,946.07 581,956.5C 582.595,984.154 583.928,1011.82 585,1039.5C 585.926,1055.58 587.593,1071.58 590,1087.5C 591.896,1078.31 592.896,1068.97 593,1059.5C 593.809,1012.48 595.142,965.483 597,918.5C 597.652,916.277 599.152,915.11 601.5,915C 605.086,913.892 608.753,913.392 612.5,913.5 Z"/></g>
<g><path style="opacity:1" fill="none" d="M 612.5,913.5 C 622.987,912.506 633.654,912.172 644.5,912.5C 644.784,914.415 644.451,916.081 643.5,917.5C 643.5,916.167 643.5,914.833 643.5,913.5C 633.167,913.5 622.833,913.5 612.5,913.5 Z"/></g>
<g><path style="opacity:1" fill="#F1F0EA" d="M 271.5,935.5 C 272.043,935.56 272.376,935.893 272.5,936.5C 269.941,938.952 268.441,941.952 268,945.5C 262.102,950.979 257.435,957.312 254,964.5C 248.644,968.251 243.144,971.417 237.5,974C 247.554,960.108 258.888,947.274 271.5,935.5 Z"/></g>
<g><path style="opacity:1" fill="#F1F0EA" d="M 917.5,948.5 C 923.186,949.866 925.852,953.533 925.5,959.5C 918.191,959.193 915.525,955.526 917.5,948.5 Z"/></g>
</svg>