<svg xmlns="http://www.w3.org/2000/svg" data-name="Layer 1" viewBox="0 0 64 80" x="0px" y="0px"><path d="M9.7875,32.5563c1.6252,1.2867,3.6652.2065,5.2215-.6124,1.7287-.91,3.4208-1.8748,5.0751-2.9095,1.2427-.7774,2.4783-1.5367,3.7458-2.2613a4.4146,4.4146,0,0,0,2.2124-3.1276,3.5843,3.5843,0,0,0-.8332-2.5694,2.2571,2.2571,0,0,0-1.6526-.4152,10.9428,10.9428,0,0,0-4.1277.873c-.4419.1811-.4558.0977-.3678-.3C21.38,14.9705,27.9127,11.311,34.3233,10.71c3.5508-.4942,7.1587-.3253,10.2325,1.6731,4.0113,2.6506,5.4887,7.8644,5.3813,12.4643-.02,1.9786.8172,2.733,2.5568,2.531,2.2856-.3949,3.055-3.1888,3.1472-5.1827a18.723,18.723,0,0,0-3.3135-10.81,15.9309,15.9309,0,0,0-3.001-3.3021C43.6822,3.42,35.6036,3.3639,28.9247,5.508a28.6048,28.6048,0,0,0-9.8628,5.4443,22.72,22.72,0,0,0-5.9407,8.25c-.8733,1.9214-.863,1.5444-1.3982.0959a25.666,25.666,0,0,0-1.1807-3.2639c-.611-1.0972-1.6561-1.23-2.9165-.7638-1.7639.6527-2.2373,1.5846-1.9965,3.1516a41.4855,41.4855,0,0,0,1.0659,4.8761c.4511,1.6026.875,3.25,1.3034,4.8954C8.34,29.5053,8.6539,31.68,9.7875,32.5563Zm48.418,12.5946a21.6262,21.6262,0,0,0-1.7828-3.6389q-1.0356-2.01-1.9463-4.0818c-.6935-1.5772-1.1667-3.8931-3.0129-4.5175-1.3993-.4732-2.9713.4306-4.1668,1.0689a111.0118,111.0118,0,0,1-10.102,4.6064c-1.572.6088-1.5584,1.6611-1.1384,3.3486.5971,2.2505,2.1805,1.9589,4.7917,1.8478,1.2777-.1111,2.5277-.3195,3.3749-.4723a14.0115,14.0115,0,0,1-1.5554,2.3746c-3.25,4.1949-8.5,8.1393-13.6668,8.0837-5.9161-.0636-9.7931-4.8928-12.4639-9.63a42.85,42.85,0,0,1-2.4249-5.5647,2.8588,2.8588,0,0,0-3.3618-1.563c-1.89.3458-1.7826,2.7406-1.4917,4.122,1.79,8.0874,8.8223,18.1229,17.6515,18.6623a21.261,21.261,0,0,0,15.1464-4.4015c3.155-2.327,6.0555-6.1805,8.3332-11.3888.2514.3489.9028,1.3194,1.32,1.9722.7006,1.0977,1.1324,1.67,1.8912,2.7323,1.0849,1.5185,4.3048.3021,4.7255-1.2926A4.2962,4.2962,0,0,0,58.2055,45.1509Z"/></svg>