<svg xmlns="http://www.w3.org/2000/svg" data-name="Layer 1" viewBox="0 0 64 80" x="0px" y="0px"><path d="M58.7433,20.217c1.3718,1.2055,1.1712,2.464-.1247,3.8243-2.4785,2.0824-4.78,4.1567-7.3283,6.25-.3334.2437-.2008.6849.2205.9029,2.5711,1.3734,4.9047,2.6983,7.6253,4.3837,2.4735,1.5323,1.8107,3.0926-.06,4.8823-3.1174,2.9818-7.59,7.0678-11.0031,9.7122-3.567,2.8259-7.06,5.197-10.3627,8.3281-3.1126,2.9505-4.9567,1.9556-8.2949-.2628-6.35-3.7675-12.77-7.421-19.1326-11.1695a48.2378,48.2378,0,0,1-6.2007-4.0308c-1.22-1.049-1.1639-1.9121.6486-3.4654,3.01-2.5791,6.5821-4.7247,9.5724-7.3346a.4842.4842,0,0,0-.069-.7481c-1.6979-1.1666-5.0808-3.7073-6.8682-4.8711-1.4548-1.1224-1.5986-3.0952.3741-4.6972,1.5934-1.2939,6.3041-4.9746,7.9847-6.1381C20.2226,12.6572,26.3164,8.2417,30.8514,5.17c2.5772-1.7459,3.8243-1.9953,5.908-.6327,1.5221.9955,3.98,2.6772,9.0389,6.3024C50.2774,14.2668,54.5007,16.4887,58.7433,20.217Zm-27.06-9.228c-1.6168,1.3581-5.4147,3.9486-7.1387,5.1677C22.2488,17.78,17.7854,20.71,15.5546,22.42c-1.2471.9561-1.1639,1.7043.2494,2.7019,1.5959,1.1266,5.1922,3.4049,6.8171,4.4893,1.82,1.2144,4.1245,2.693,5.9441,3.9074,3.1956,2.2009,5.3622,3.5332,8.8124.8729,3.906-3.0119,9.9613-8.0182,13.5094-11.2233.7248-.6288.7067-1.4133-.3325-2.2862-1.2673-1.0645-3.3779-2.2914-4.1983-2.91-2.18-1.6426-7.3891-5.0288-9.6437-6.5677C34.0937,9.6173,33.7612,9.2432,31.6828,10.989ZM35.84,53.3049c.7477-.5852,2.8418-2.2007,3.5748-2.7851,4.55-3.6269,8.3831-6.6309,12.7505-10.4714a1.7506,1.7506,0,0,0,.6716-.9192c.171-.931-2.0865-1.8949-2.675-2.21-.7487-.4-3.0258-1.7783-3.7638-2.1955-.956-.54-.7722-.6036-1.6627.0832-1.2052.93-6.8407,5.6878-8.0225,6.6508-2.2447,1.829-4.1239,1.83-6.4014.4157-1.8682-1.16-4.0742-2.5544-5.9161-3.757-4.2787-2.7935-4.7384-3.1825-5.5324-2.5716-1.1378.8752-4.7955,3.2761-5.9684,4.1255-1.2054.8729-2.2338,1.7229-.5819,2.5772,6.9749,3.6072,13.9989,7.6535,20.9181,11.33A2.2564,2.2564,0,0,0,35.84,53.3049Z"/></svg>